<svg width="97" height="97" viewBox="0 0 97 97" fill="none" xmlns="http://www.w3.org/2000/svg">
<g clip-path="url(#clip0_56_570)">
<path fill-rule="evenodd" clip-rule="evenodd" d="M49.0577 96.9449L93.3654 0.944946H4.75L49.0577 96.9449ZM85.6656 5.94073L49.0577 85.0631L12.5849 5.94073H85.6656ZM29.0981 26.4669L36.6622 34.7634C37.1264 35.2725 37.8789 35.2725 38.3431 34.7634C38.8073 34.2542 38.8073 33.4288 38.3431 32.9197L32.808 26.8487H42.6168V24.2414L32.808 24.2414L38.3431 18.1704C38.8073 17.6613 38.8073 16.8359 38.3431 16.3268C37.8789 15.8177 37.1264 15.8177 36.6622 16.3268L29.0981 24.6232C28.6339 25.1324 28.6339 25.9578 29.0981 26.4669ZM68.4019 24.6233L60.8378 16.3268C60.3736 15.8177 59.621 15.8177 59.1569 16.3268C58.6927 16.8359 58.6927 17.6613 59.1569 18.1705L64.6919 24.2414H54.8832V26.8488H64.6919L59.1569 32.9197C58.6927 33.4288 58.6927 34.2543 59.1569 34.7634C59.621 35.2725 60.3736 35.2725 60.8378 34.7634L68.4019 26.4669C68.8661 25.9578 68.8661 25.1324 68.4019 24.6233ZM50.4227 25.4234C50.4227 26.3472 49.6738 27.0961 48.75 27.0961C47.8262 27.0961 47.0773 26.3472 47.0773 25.4234C47.0773 24.4997 47.8262 23.7508 48.75 23.7508C49.6738 23.7508 50.4227 24.4997 50.4227 25.4234Z" fill="black"/>
</g>
<defs>
<clipPath id="clip0_56_570">
<rect width="96" height="96" fill="white" transform="translate(0.75 0.944946)"/>
</clipPath>
</defs>
</svg>
