<svg width="97" height="96" viewBox="0 0 97 96" fill="none" xmlns="http://www.w3.org/2000/svg">
<path d="M4.77393 0H93.3893L49.0816 96L4.77393 0ZM49.0816 84.1181L85.6895 4.99578H12.6088L49.0816 84.1181Z" fill="black"/>
<path fill-rule="evenodd" clip-rule="evenodd" d="M41.8266 28.5228C43.2413 29.4976 45.3757 30.2975 48.2299 30.9224V42.8082C45.6983 42.6582 43.7129 41.8709 42.2734 40.4461C40.8339 39.0213 40.1265 37.159 40.1514 34.8594H38.7739C38.7739 36.6091 39.1462 38.1714 39.8908 39.5462C40.6601 40.896 41.7646 41.9708 43.2041 42.7707C44.6436 43.5706 46.3188 44.0205 48.2299 44.1205V47.645L46.7853 47.645V53.555L43.1274 50.22C42.8207 49.9403 42.3234 49.9403 42.0166 50.22C41.7099 50.4997 41.7099 50.9531 42.0166 51.2328L47.0153 55.7903C47.3221 56.0699 47.8194 56.0699 48.1262 55.7903L53.1249 51.2328C53.4317 50.9531 53.4317 50.4997 53.1249 50.22C52.8182 49.9403 52.3208 49.9403 52.0141 50.22L48.3562 53.555L48.3562 47.645L49.6073 47.645V44.1205C51.1957 44.0455 52.6476 43.7331 53.963 43.1832C55.2784 42.6083 56.3332 41.7834 57.1274 40.7085C57.9464 39.6087 58.3559 38.2839 58.3559 36.7341C58.3559 35.1093 57.9588 33.847 57.1646 32.9471C56.3952 32.0473 55.4521 31.4099 54.3353 31.0349C53.2184 30.635 51.6424 30.2225 49.6073 29.7976V18.2492C50.9971 18.3492 52.2505 18.7242 53.3673 19.3741C54.4842 19.999 55.3652 20.8489 56.0105 21.9237C56.6558 22.9986 56.9785 24.2359 56.9785 25.6357H58.3559C58.3559 24.0109 57.9712 22.5611 57.2018 21.2863C56.4324 19.9865 55.3776 18.9616 54.0374 18.2118C52.722 17.4619 51.2453 17.0244 49.6073 16.8994V13H48.2299V16.8994C45.6735 16.9994 43.6136 17.7118 42.05 19.0366C40.5112 20.3364 39.7419 22.0487 39.7419 24.1734C39.7419 26.0981 40.4368 27.5479 41.8266 28.5228ZM43.1668 19.8615C44.5567 18.8617 46.2444 18.3117 48.2299 18.2118V29.4976C46.6415 29.1477 45.3509 28.7852 44.3581 28.4103C43.3654 28.0103 42.5712 27.4729 41.9755 26.798C41.4047 26.0981 41.1193 25.1982 41.1193 24.0984C41.1193 22.2487 41.8018 20.8364 43.1668 19.8615ZM54.8937 41.0835C53.5038 42.1333 51.7417 42.7082 49.6073 42.8082V31.1849C51.3942 31.5598 52.7593 31.9098 53.7024 32.2347C54.6703 32.5597 55.4521 33.0846 56.0478 33.8095C56.6682 34.5094 56.9785 35.4968 56.9785 36.7716C56.9785 38.5713 56.2835 40.0086 54.8937 41.0835Z" fill="#1B003F"/>
</svg>
