<svg width="97" height="97" viewBox="0 0 97 97" fill="none" xmlns="http://www.w3.org/2000/svg">
<g clip-path="url(#clip0_53_124)">
<path d="M4.84351 96.6697H93.4589L49.1512 0.669678L4.84351 96.6697ZM49.1512 12.5515L85.7591 91.6739H12.6784L49.1512 12.5515Z" fill="black"/>
<path d="M54.2245 74.6697H53.4816V72.4197C53.4816 69.8009 51.3706 67.6697 48.7768 67.6697C46.183 67.6697 44.0721 69.8009 44.0721 72.4197V74.6697H43.3292C42.509 74.6697 41.8435 75.3416 41.8435 76.1697V82.1697C41.8435 82.9978 42.509 83.6697 43.3292 83.6697H54.2245C55.0447 83.6697 55.7102 82.9978 55.7102 82.1697V76.1697C55.7102 75.3416 55.0447 74.6697 54.2245 74.6697ZM51.0054 74.6697H46.5483V72.4197C46.5483 71.1791 47.548 70.1697 48.7768 70.1697C50.0056 70.1697 51.0054 71.1791 51.0054 72.4197V74.6697Z" fill="black"/>
<path fill-rule="evenodd" clip-rule="evenodd" d="M49.9886 32.8212L46.3777 36.1134C46.1561 36.3154 46.1561 36.6429 46.3777 36.8449C46.5993 37.047 46.9586 37.047 47.1801 36.8449L49.8224 34.4359L49.8224 38.705H50.9572V34.4359L53.5995 36.8449C53.8211 37.047 54.1804 37.047 54.4019 36.8449C54.6235 36.6429 54.6235 36.3154 54.4019 36.1134L50.791 32.8212C50.5695 32.6192 50.2102 32.6192 49.9886 32.8212ZM44.0487 49.7068C45.0706 50.411 46.6124 50.9888 48.6741 51.4402V60.0261C46.8454 59.9177 45.4112 59.349 44.3714 58.3198C43.3315 57.2905 42.8206 55.9453 42.8385 54.2841H41.8435C41.8435 55.5481 42.1124 56.6766 42.6503 57.6697C43.206 58.6448 44.0038 59.4212 45.0437 59.999C46.0835 60.5768 47.2936 60.9018 48.6741 60.974V63.52H49.6691V60.974C50.8165 60.9199 51.8653 60.6942 52.8155 60.2969C53.7657 59.8816 54.5276 59.2858 55.1013 58.5093C55.6929 57.7149 55.9888 56.7579 55.9888 55.6384C55.9888 54.4647 55.7019 53.5528 55.1282 52.9028C54.5724 52.2528 53.8912 51.7923 53.0844 51.5215C52.2776 51.2326 51.1392 50.9347 49.6691 50.6277V42.2856C50.6731 42.3579 51.5785 42.6287 52.3852 43.0982C53.192 43.5496 53.8284 44.1635 54.2946 44.9399C54.7607 45.7164 54.9938 46.6102 54.9938 47.6213H55.9888C55.9888 46.4476 55.7109 45.4004 55.1551 44.4795C54.5993 43.5406 53.8374 42.8002 52.8693 42.2585C51.9191 41.7169 50.8524 41.4009 49.6691 41.3106V38.4938H48.6741V41.3106C46.8275 41.3828 45.3395 41.8974 44.21 42.8544C43.0985 43.7933 42.5427 45.0302 42.5427 46.565C42.5427 47.9554 43.0447 49.0026 44.0487 49.7068ZM45.0168 43.4503C46.0207 42.728 47.2399 42.3308 48.6741 42.2585V50.411C47.5267 50.1582 46.5944 49.8964 45.8773 49.6256C45.1602 49.3367 44.5865 48.9485 44.1562 48.4609C43.7439 47.9554 43.5377 47.3053 43.5377 46.5108C43.5377 45.1747 44.0307 44.1545 45.0168 43.4503ZM53.4878 58.7802C52.4838 59.5386 51.2109 59.9539 49.6691 60.0261V51.6298C50.9599 51.9007 51.946 52.1535 52.6272 52.3882C53.3264 52.6229 53.8912 53.0021 54.3215 53.5258C54.7697 54.0313 54.9938 54.7446 54.9938 55.6655C54.9938 56.9655 54.4918 58.0038 53.4878 58.7802Z" fill="#1B003F"/>
</g>
<defs>
<clipPath id="clip0_53_124">
<rect width="96" height="96" fill="white" transform="translate(0.843506 0.669678)"/>
</clipPath>
</defs>
</svg>
