<svg width="96" height="96" viewBox="0 0 96 96" fill="none" xmlns="http://www.w3.org/2000/svg">
<path fill-rule="evenodd" clip-rule="evenodd" d="M48.3077 0L92.6154 96H4L48.3077 0ZM84.9156 91.0042L48.3077 11.8819L11.8349 91.0042H84.9156ZM48.1611 84.7811L62.1021 56.5809H44.0177V55H63.8717V56.5809L49.9307 84.7811H48.1611ZM38.581 69.9027L44.3215 64.134L43.697 63.5091L37.3321 69.9027L43.697 76.2724L44.3215 75.6474L38.581 69.9027ZM39.1555 64.134L33.4151 69.9027L39.1555 75.6474L38.531 76.2723L32.1661 69.9027L38.531 63.509L39.1555 64.134ZM28.249 69.9027L33.9894 64.134L33.3649 63.509L27 69.9027L33.3649 76.2723L33.9894 75.6474L28.249 69.9027Z" fill="black"/>
</svg>
