<svg width="96" height="96" viewBox="0 0 96 96" fill="none" xmlns="http://www.w3.org/2000/svg">
<path fill-rule="evenodd" clip-rule="evenodd" d="M48.3077 0L92.6154 96H4L48.3077 0ZM84.9156 91.0042L48.3077 11.8819L11.8349 91.0042H84.9156ZM61.5805 49.8992L60.2299 48.5487C59.6705 47.9892 58.7635 47.9892 58.2041 48.5487L57.8665 48.8863L51.1137 42.1336L51.4513 41.796C52.0108 41.2365 52.0108 40.3295 51.4513 39.7702L50.1008 38.4196C49.5414 37.8601 48.6344 37.8601 48.075 38.4196L40.6469 45.8476C40.0875 46.407 40.0875 47.314 40.6469 47.8734L41.9975 49.2239C42.5569 49.7834 43.4639 49.7834 44.0233 49.2239L44.3609 48.8863L46.7244 51.2497L41.8874 56.0867L41.5498 55.7491H38.8487L32 62.5978V65.2989L34.7011 68H37.4022L44.2509 61.1513V58.4502L43.9133 58.1126L48.7503 53.2756L51.1137 55.639L50.7761 55.9767C50.2167 56.5361 50.2167 57.4431 50.7761 58.0025L52.1266 59.353C52.6861 59.9125 53.593 59.9125 54.1524 59.353L61.5805 51.925C62.1398 51.3656 62.1398 50.4586 61.5805 49.8992ZM56.8446 72.1556C58.8283 74.1414 58.8011 77.3252 56.8565 79.2806C56.8529 79.2846 56.8485 79.2889 56.8446 79.2929L54.6133 81.5241C52.6454 83.4921 49.4436 83.4918 47.476 81.5241C45.508 79.5565 45.508 76.3544 47.476 74.3868L48.708 73.1548C49.0347 72.8281 49.5974 73.0452 49.6142 73.5069C49.6358 74.0954 49.7413 74.6865 49.936 75.2574C50.0019 75.4507 49.9548 75.6646 49.8104 75.809L49.3758 76.2435C48.4453 77.1741 48.4161 78.6893 49.3375 79.6289C50.268 80.5778 51.7974 80.5835 52.735 79.6458L54.9663 77.4149C55.9023 76.4789 55.8984 74.966 54.9663 74.0339C54.8434 73.9112 54.7196 73.8159 54.6229 73.7493C54.5545 73.7024 54.498 73.6401 54.458 73.5674C54.4179 73.4947 54.3954 73.4137 54.3922 73.3308C54.3791 72.9799 54.5034 72.6184 54.7807 72.3411L55.4797 71.6421C55.663 71.4587 55.9506 71.4362 56.1632 71.5846C56.4066 71.7546 56.6346 71.9456 56.8446 72.1556ZM61.524 67.4759C59.5564 65.5082 56.3546 65.5079 54.3867 67.4759L52.1554 69.7071C52.1515 69.7111 52.1471 69.7154 52.1435 69.7194C50.1989 71.6748 50.1717 74.8586 52.1554 76.8444C52.3654 77.0544 52.5934 77.2454 52.8368 77.4154C53.0494 77.5637 53.337 77.5412 53.5203 77.3579L54.2193 76.6588C54.4966 76.3816 54.6209 76.02 54.6077 75.6692C54.6046 75.5863 54.582 75.5052 54.542 75.4326C54.5019 75.3599 54.4455 75.2976 54.3771 75.2506C54.2804 75.1841 54.1566 75.0888 54.0337 74.9661C53.1016 74.034 53.0977 72.5211 54.0337 71.585L56.265 69.3541C57.2026 68.4165 58.732 68.4221 59.6625 69.3711C60.5839 70.3107 60.5547 71.8259 59.6241 72.7564L59.1896 73.191C59.0452 73.3354 58.998 73.5492 59.064 73.7425C59.2587 74.3134 59.3642 74.9046 59.3857 75.493C59.4026 75.9548 59.9653 76.1719 60.292 75.8452L61.524 74.6132C63.492 72.6456 63.492 69.4435 61.524 67.4759Z" fill="black"/>
</svg>
