<svg width="199" height="232" viewBox="0 0 199 232" fill="none" xmlns="http://www.w3.org/2000/svg">
<path d="M54.3889 1.09096V8.62696L61.9409 1.09096H62.7729L58.1169 5.73096L62.7569 12.227H62.0529L57.7009 6.14696L54.3889 9.45896V12.227H53.7969V1.09096H54.3889Z" fill="white"/>
<path d="M65.9607 1.09096H73.8007V1.68296H66.5527V6.19496H72.8567V6.78696H66.5527V11.635H73.8007V12.227H65.9607V1.09096Z" fill="white"/>
<path d="M77.8044 1.09096H85.6444V1.68296H78.3964V6.19496H84.7004V6.78696H78.3964V11.635H85.6444V12.227H77.8044V1.09096Z" fill="white"/>
<path d="M90.3842 12.227H89.7922V1.09096H94.2722C95.0188 1.09096 95.7068 1.25096 96.3362 1.57096C96.9762 1.89096 97.4828 2.34429 97.8562 2.93096C98.2295 3.51763 98.4162 4.19496 98.4162 4.96296C98.4162 5.69896 98.2242 6.37629 97.8402 6.99496C97.4668 7.61363 96.9548 8.08829 96.3042 8.41896C95.7388 8.70696 95.0615 8.85096 94.2722 8.85096H90.3842V12.227ZM90.3842 8.25896H94.2722C94.9548 8.25896 95.5148 8.15229 95.9522 7.93896C96.5175 7.67229 96.9708 7.27229 97.3122 6.73896C97.6535 6.20563 97.8242 5.61363 97.8242 4.96296C97.8242 4.32296 97.6535 3.73629 97.3122 3.20296C96.9708 2.66963 96.5122 2.26963 95.9362 2.00296C95.4988 1.78963 94.9442 1.68296 94.2722 1.68296H90.3842V8.25896Z" fill="white"/>
<path d="M101.492 1.09096H109.332V1.68296H102.084V6.19496H108.388V6.78696H102.084V11.635H109.332V12.227H101.492V1.09096Z" fill="white"/>
<path d="M119.592 1.45896C120.232 1.75763 120.733 2.20029 121.096 2.78696C121.469 3.37363 121.656 4.02429 121.656 4.73896C121.656 5.57096 121.4 6.31763 120.888 6.97896C120.386 7.62963 119.741 8.06163 118.952 8.27496L121.784 12.227H121.08L118.344 8.38696L117.832 8.40296H113.816V12.227H113.224V1.09096H117.464C117.933 1.09096 118.333 1.12296 118.664 1.18696C119.005 1.24029 119.314 1.33096 119.592 1.45896ZM117.992 7.81096C118.546 7.81096 119.058 7.67229 119.528 7.39496C119.997 7.11763 120.37 6.74429 120.648 6.27496C120.925 5.80563 121.064 5.29363 121.064 4.73896C121.064 4.12029 120.898 3.56029 120.568 3.05896C120.248 2.55763 119.8 2.18429 119.224 1.93896C118.808 1.76829 118.221 1.68296 117.464 1.68296H113.816V7.81096H117.992Z" fill="white"/>
<path d="M129.259 6.89896C128.353 6.71763 127.611 6.52029 127.035 6.30696C126.47 6.08296 126.022 5.78429 125.691 5.41096C125.371 5.02696 125.211 4.53629 125.211 3.93896C125.211 3.32029 125.371 2.77629 125.691 2.30696C126.022 1.83763 126.481 1.47496 127.067 1.21896C127.665 0.962961 128.353 0.834961 129.131 0.834961C129.878 0.834961 130.561 0.994961 131.179 1.31496C131.809 1.62429 132.305 2.06163 132.667 2.62696C133.03 3.19229 133.211 3.83763 133.211 4.56296H132.619C132.619 3.93363 132.465 3.37896 132.155 2.89896C131.846 2.41896 131.425 2.05096 130.891 1.79496C130.358 1.52829 129.766 1.39496 129.115 1.39496C128.539 1.39496 128.001 1.48563 127.499 1.66696C126.998 1.84829 126.587 2.12563 126.267 2.49896C125.958 2.87229 125.803 3.34163 125.803 3.90696C125.803 4.41896 125.953 4.82963 126.251 5.13896C126.55 5.43763 126.939 5.66696 127.419 5.82696C127.899 5.98696 128.571 6.15763 129.435 6.33896C130.31 6.52029 130.987 6.69629 131.467 6.86696C131.958 7.02696 132.369 7.29896 132.699 7.68296C133.041 8.06696 133.211 8.60563 133.211 9.29896C133.211 9.99229 133.025 10.579 132.651 11.059C132.289 11.5283 131.803 11.8803 131.195 12.115C130.587 12.3496 129.926 12.467 129.211 12.467C128.326 12.467 127.547 12.3016 126.875 11.971C126.203 11.6403 125.686 11.1763 125.323 10.579C124.971 9.97096 124.795 9.27763 124.795 8.49896H125.387C125.387 9.18163 125.537 9.77896 125.835 10.291C126.145 10.803 126.587 11.203 127.163 11.491C127.739 11.7683 128.422 11.907 129.211 11.907C130.193 11.907 131.003 11.6723 131.643 11.203C132.294 10.7336 132.619 10.0936 132.619 9.28296C132.619 8.72829 132.481 8.30163 132.203 8.00296C131.926 7.70429 131.574 7.49096 131.147 7.36296C130.731 7.22429 130.102 7.06963 129.259 6.89896Z" fill="white"/>
<path d="M16.3918 17.091C17.2025 17.091 17.9491 17.2936 18.6318 17.699C19.3251 18.1043 19.8745 18.6536 20.2798 19.347C20.6851 20.0296 20.8878 20.7763 20.8878 21.587V23.731C20.8878 24.5416 20.6851 25.2936 20.2798 25.987C19.8745 26.6696 19.3251 27.2136 18.6318 27.619C17.9491 28.0243 17.2025 28.227 16.3918 28.227H12.2798V17.091H16.3918ZM20.2958 21.587C20.2958 20.883 20.1198 20.2323 19.7678 19.635C19.4158 19.0376 18.9358 18.563 18.3278 18.211C17.7305 17.859 17.0798 17.683 16.3758 17.683H12.8718V27.635H16.3758C17.0798 27.635 17.7305 27.459 18.3278 27.107C18.9358 26.755 19.4158 26.2803 19.7678 25.683C20.1198 25.0856 20.2958 24.435 20.2958 23.731V21.587Z" fill="white"/>
<path d="M24.5075 17.091H32.3475V17.683H25.0995V22.195H31.4035V22.787H25.0995V27.635H32.3475V28.227H24.5075V17.091Z" fill="white"/>
<path d="M37.0873 28.227H36.4953V17.091H40.9753C41.722 17.091 42.41 17.251 43.0393 17.571C43.6793 17.891 44.186 18.3443 44.5593 18.931C44.9326 19.5176 45.1193 20.195 45.1193 20.963C45.1193 21.699 44.9273 22.3763 44.5433 22.995C44.17 23.6136 43.658 24.0883 43.0073 24.419C42.442 24.707 41.7646 24.851 40.9753 24.851H37.0873V28.227ZM37.0873 24.259H40.9753C41.658 24.259 42.218 24.1523 42.6553 23.939C43.2206 23.6723 43.674 23.2723 44.0153 22.739C44.3566 22.2056 44.5273 21.6136 44.5273 20.963C44.5273 20.323 44.3566 19.7363 44.0153 19.203C43.674 18.6696 43.2153 18.2696 42.6393 18.003C42.202 17.7896 41.6473 17.683 40.9753 17.683H37.0873V24.259Z" fill="white"/>
<path d="M52.035 16.851C52.867 16.851 53.635 17.059 54.339 17.475C55.043 17.8803 55.5977 18.435 56.003 19.139C56.419 19.843 56.627 20.611 56.627 21.443V23.875C56.627 24.707 56.419 25.475 56.003 26.179C55.5977 26.883 55.043 27.443 54.339 27.859C53.635 28.2643 52.867 28.467 52.035 28.467C51.203 28.467 50.435 28.2643 49.731 27.859C49.027 27.443 48.467 26.883 48.051 26.179C47.6457 25.475 47.443 24.707 47.443 23.875V21.443C47.443 20.611 47.6457 19.843 48.051 19.139C48.467 18.435 49.027 17.8803 49.731 17.475C50.435 17.059 51.203 16.851 52.035 16.851ZM48.035 23.875C48.035 24.6003 48.211 25.2723 48.563 25.891C48.9257 26.499 49.411 26.9843 50.019 27.347C50.6377 27.699 51.3097 27.875 52.035 27.875C52.7604 27.875 53.427 27.699 54.035 27.347C54.6537 26.9843 55.139 26.499 55.491 25.891C55.8537 25.2723 56.035 24.6003 56.035 23.875V21.443C56.035 20.7176 55.8537 20.051 55.491 19.443C55.139 18.8243 54.6537 18.339 54.035 17.987C53.427 17.6243 52.7604 17.443 52.035 17.443C51.3097 17.443 50.6377 17.6243 50.019 17.987C49.411 18.339 48.9257 18.8243 48.563 19.443C48.211 20.051 48.035 20.7176 48.035 21.443V23.875Z" fill="white"/>
<path d="M64.1188 22.899C63.2121 22.7176 62.4708 22.5203 61.8948 22.307C61.3295 22.083 60.8815 21.7843 60.5508 21.411C60.2308 21.027 60.0708 20.5363 60.0708 19.939C60.0708 19.3203 60.2308 18.7763 60.5508 18.307C60.8815 17.8376 61.3401 17.475 61.9268 17.219C62.5241 16.963 63.2121 16.835 63.9908 16.835C64.7375 16.835 65.4201 16.995 66.0388 17.315C66.6681 17.6243 67.1641 18.0616 67.5268 18.627C67.8895 19.1923 68.0708 19.8376 68.0708 20.563H67.4788C67.4788 19.9336 67.3241 19.379 67.0148 18.899C66.7055 18.419 66.2841 18.051 65.7508 17.795C65.2175 17.5283 64.6255 17.395 63.9748 17.395C63.3988 17.395 62.8601 17.4856 62.3588 17.667C61.8575 17.8483 61.4468 18.1256 61.1268 18.499C60.8175 18.8723 60.6628 19.3416 60.6628 19.907C60.6628 20.419 60.8121 20.8296 61.1108 21.139C61.4095 21.4376 61.7988 21.667 62.2788 21.827C62.7588 21.987 63.4308 22.1576 64.2948 22.339C65.1695 22.5203 65.8468 22.6963 66.3268 22.867C66.8175 23.027 67.2281 23.299 67.5588 23.683C67.9001 24.067 68.0708 24.6056 68.0708 25.299C68.0708 25.9923 67.8841 26.579 67.5108 27.059C67.1481 27.5283 66.6628 27.8803 66.0548 28.115C65.4468 28.3496 64.7855 28.467 64.0708 28.467C63.1855 28.467 62.4068 28.3016 61.7348 27.971C61.0628 27.6403 60.5455 27.1763 60.1828 26.579C59.8308 25.971 59.6548 25.2776 59.6548 24.499H60.2468C60.2468 25.1816 60.3961 25.779 60.6948 26.291C61.0041 26.803 61.4468 27.203 62.0228 27.491C62.5988 27.7683 63.2815 27.907 64.0708 27.907C65.0521 27.907 65.8628 27.6723 66.5028 27.203C67.1535 26.7336 67.4788 26.0936 67.4788 25.283C67.4788 24.7283 67.3401 24.3016 67.0628 24.003C66.7855 23.7043 66.4335 23.491 66.0068 23.363C65.5908 23.2243 64.9615 23.0696 64.1188 22.899Z" fill="white"/>
<path d="M79.3385 17.091V17.683H76.0105V27.635H79.3385V28.227H72.1225V27.635H75.4345V17.683H72.1225V17.091H79.3385Z" fill="white"/>
<path d="M92.0623 17.091V17.683H87.8543V28.227H87.2783V17.683H83.0703V17.091H92.0623Z" fill="white"/>
<path d="M110.95 17.091H111.574L116.15 28.227H115.51L114.006 24.547H108.518L106.998 28.227H106.374L110.95 17.091ZM108.758 23.971H113.766L111.254 17.859L108.758 23.971Z" fill="white"/>
<path d="M135.181 22.899C134.275 22.7176 133.533 22.5203 132.957 22.307C132.392 22.083 131.944 21.7843 131.613 21.411C131.293 21.027 131.133 20.5363 131.133 19.939C131.133 19.3203 131.293 18.7763 131.613 18.307C131.944 17.8376 132.403 17.475 132.989 17.219C133.587 16.963 134.275 16.835 135.053 16.835C135.8 16.835 136.483 16.995 137.101 17.315C137.731 17.6243 138.227 18.0616 138.589 18.627C138.952 19.1923 139.133 19.8376 139.133 20.563H138.541C138.541 19.9336 138.387 19.379 138.077 18.899C137.768 18.419 137.347 18.051 136.813 17.795C136.28 17.5283 135.688 17.395 135.037 17.395C134.461 17.395 133.923 17.4856 133.421 17.667C132.92 17.8483 132.509 18.1256 132.189 18.499C131.88 18.8723 131.725 19.3416 131.725 19.907C131.725 20.419 131.875 20.8296 132.173 21.139C132.472 21.4376 132.861 21.667 133.341 21.827C133.821 21.987 134.493 22.1576 135.357 22.339C136.232 22.5203 136.909 22.6963 137.389 22.867C137.88 23.027 138.291 23.299 138.621 23.683C138.963 24.067 139.133 24.6056 139.133 25.299C139.133 25.9923 138.947 26.579 138.573 27.059C138.211 27.5283 137.725 27.8803 137.117 28.115C136.509 28.3496 135.848 28.467 135.133 28.467C134.248 28.467 133.469 28.3016 132.797 27.971C132.125 27.6403 131.608 27.1763 131.245 26.579C130.893 25.971 130.717 25.2776 130.717 24.499H131.309C131.309 25.1816 131.459 25.779 131.757 26.291C132.067 26.803 132.509 27.203 133.085 27.491C133.661 27.7683 134.344 27.907 135.133 27.907C136.115 27.907 136.925 27.6723 137.565 27.203C138.216 26.7336 138.541 26.0936 138.541 25.283C138.541 24.7283 138.403 24.3016 138.125 24.003C137.848 23.7043 137.496 23.491 137.069 23.363C136.653 23.2243 136.024 23.0696 135.181 22.899Z" fill="white"/>
<path d="M151.281 17.091V17.683H147.073V28.227H146.497V17.683H142.289V17.091H151.281Z" fill="white"/>
<path d="M158.325 17.091H158.949L163.525 28.227H162.885L161.381 24.547H155.893L154.373 28.227H153.749L158.325 17.091ZM156.133 23.971H161.141L158.629 17.859L156.133 23.971Z" fill="white"/>
<path d="M166.905 17.091V24.627L174.457 17.091H175.289L170.633 21.731L175.273 28.227H174.569L170.217 22.147L166.905 25.459V28.227H166.313V17.091H166.905Z" fill="white"/>
<path d="M178.476 17.091H186.316V17.683H179.068V22.195H185.372V22.787H179.068V27.635H186.316V28.227H178.476V17.091Z" fill="white"/>
<path d="M41.2981 178.134H157.298L99.2981 52.4671L41.2981 178.134ZM99.2981 68.0208L147.219 171.594H51.5542L99.2981 68.0208Z" fill="url(#paint0_linear_226_55)"/>
<path d="M75.7621 154.531C74.8554 154.35 74.1141 154.152 73.5381 153.939C72.9728 153.715 72.5248 153.416 72.1941 153.043C71.8741 152.659 71.7141 152.168 71.7141 151.571C71.7141 150.952 71.8741 150.408 72.1941 149.939C72.5248 149.47 72.9834 149.107 73.5701 148.851C74.1674 148.595 74.8554 148.467 75.6341 148.467C76.3808 148.467 77.0634 148.627 77.6821 148.947C78.3114 149.256 78.8074 149.694 79.1701 150.259C79.5328 150.824 79.7141 151.47 79.7141 152.195H79.1221C79.1221 151.566 78.9674 151.011 78.6581 150.531C78.3488 150.051 77.9274 149.683 77.3941 149.427C76.8608 149.16 76.2688 149.027 75.6181 149.027C75.0421 149.027 74.5034 149.118 74.0021 149.299C73.5008 149.48 73.0901 149.758 72.7701 150.131C72.4608 150.504 72.3061 150.974 72.3061 151.539C72.3061 152.051 72.4554 152.462 72.7541 152.771C73.0528 153.07 73.4421 153.299 73.9221 153.459C74.4021 153.619 75.0741 153.79 75.9381 153.971C76.8128 154.152 77.4901 154.328 77.9701 154.499C78.4608 154.659 78.8714 154.931 79.2021 155.315C79.5434 155.699 79.7141 156.238 79.7141 156.931C79.7141 157.624 79.5274 158.211 79.1541 158.691C78.7914 159.16 78.3061 159.512 77.6981 159.747C77.0901 159.982 76.4288 160.099 75.7141 160.099C74.8288 160.099 74.0501 159.934 73.3781 159.603C72.7061 159.272 72.1888 158.808 71.8261 158.211C71.4741 157.603 71.2981 156.91 71.2981 156.131H71.8901C71.8901 156.814 72.0394 157.411 72.3381 157.923C72.6474 158.435 73.0901 158.835 73.6661 159.123C74.2421 159.4 74.9248 159.539 75.7141 159.539C76.6954 159.539 77.5061 159.304 78.1461 158.835C78.7968 158.366 79.1221 157.726 79.1221 156.915C79.1221 156.36 78.9834 155.934 78.7061 155.635C78.4288 155.336 78.0768 155.123 77.6501 154.995C77.2341 154.856 76.6048 154.702 75.7621 154.531Z" fill="white"/>
<path d="M91.8618 148.723V149.315H87.6538V159.859H87.0778V149.315H82.8698V148.723H91.8618Z" fill="white"/>
<path d="M98.9056 148.723H99.5296L104.106 159.859H103.466L101.962 156.179H96.4736L94.9536 159.859H94.3296L98.9056 148.723ZM96.7136 155.603H101.722L99.2096 149.491L96.7136 155.603Z" fill="white"/>
<path d="M107.485 148.723V156.259L115.037 148.723H115.869L111.213 153.363L115.853 159.859H115.149L110.797 153.779L107.485 157.091V159.859H106.893V148.723H107.485Z" fill="white"/>
<path d="M119.057 148.723H126.897V149.315H119.649V153.827H125.953V154.419H119.649V159.267H126.897V159.859H119.057V148.723Z" fill="white"/>
<path d="M12.0077 213.526V202.39H12.5998V207.654H19.9918V202.39H20.5837V213.526H19.9918V208.246H12.5998V213.526H12.0077Z" fill="white"/>
<path d="M28.1395 202.15C28.9715 202.15 29.7395 202.358 30.4435 202.774C31.1475 203.179 31.7022 203.734 32.1075 204.438C32.5235 205.142 32.7315 205.91 32.7315 206.742V209.174C32.7315 210.006 32.5235 210.774 32.1075 211.478C31.7022 212.182 31.1475 212.742 30.4435 213.158C29.7395 213.563 28.9715 213.766 28.1395 213.766C27.3075 213.766 26.5395 213.563 25.8355 213.158C25.1315 212.742 24.5715 212.182 24.1555 211.478C23.7502 210.774 23.5475 210.006 23.5475 209.174V206.742C23.5475 205.91 23.7502 205.142 24.1555 204.438C24.5715 203.734 25.1315 203.179 25.8355 202.774C26.5395 202.358 27.3075 202.15 28.1395 202.15ZM24.1395 209.174C24.1395 209.899 24.3155 210.571 24.6675 211.19C25.0302 211.798 25.5155 212.283 26.1235 212.646C26.7422 212.998 27.4142 213.174 28.1395 213.174C28.8648 213.174 29.5315 212.998 30.1395 212.646C30.7582 212.283 31.2435 211.798 31.5955 211.19C31.9582 210.571 32.1395 209.899 32.1395 209.174V206.742C32.1395 206.016 31.9582 205.35 31.5955 204.742C31.2435 204.123 30.7582 203.638 30.1395 203.286C29.5315 202.923 28.8648 202.742 28.1395 202.742C27.4142 202.742 26.7422 202.923 26.1235 203.286C25.5155 203.638 25.0302 204.123 24.6675 204.742C24.3155 205.35 24.1395 206.016 24.1395 206.742V209.174Z" fill="white"/>
<path d="M35.6313 213.526V202.39H36.2553L44.0313 209.942V202.39H44.6233V213.526H44.0313V210.774L36.2233 203.158V213.526H35.6313Z" fill="white"/>
<path d="M47.987 202.39H55.827V202.982H48.579V207.494H54.883V208.086H48.579V212.934H55.827V213.526H47.987V202.39Z" fill="white"/>
<path d="M63.9108 208.198C63.0041 208.016 62.2628 207.819 61.6868 207.606C61.1214 207.382 60.6734 207.083 60.3428 206.71C60.0228 206.326 59.8628 205.835 59.8628 205.238C59.8628 204.619 60.0228 204.075 60.3428 203.606C60.6734 203.136 61.1321 202.774 61.7188 202.518C62.3161 202.262 63.0041 202.134 63.7827 202.134C64.5294 202.134 65.2121 202.294 65.8307 202.614C66.4601 202.923 66.9561 203.36 67.3187 203.926C67.6814 204.491 67.8627 205.136 67.8627 205.862H67.2708C67.2708 205.232 67.1161 204.678 66.8067 204.198C66.4974 203.718 66.0761 203.35 65.5427 203.094C65.0094 202.827 64.4174 202.694 63.7668 202.694C63.1908 202.694 62.6521 202.784 62.1508 202.966C61.6494 203.147 61.2388 203.424 60.9188 203.798C60.6094 204.171 60.4548 204.64 60.4548 205.206C60.4548 205.718 60.6041 206.128 60.9028 206.438C61.2014 206.736 61.5908 206.966 62.0708 207.126C62.5508 207.286 63.2228 207.456 64.0868 207.638C64.9614 207.819 65.6387 207.995 66.1187 208.166C66.6094 208.326 67.0201 208.598 67.3507 208.982C67.6921 209.366 67.8627 209.904 67.8627 210.598C67.8627 211.291 67.6761 211.878 67.3027 212.358C66.9401 212.827 66.4548 213.179 65.8467 213.414C65.2387 213.648 64.5774 213.766 63.8628 213.766C62.9774 213.766 62.1988 213.6 61.5268 213.27C60.8548 212.939 60.3374 212.475 59.9748 211.878C59.6227 211.27 59.4468 210.576 59.4468 209.798H60.0388C60.0388 210.48 60.1881 211.078 60.4868 211.59C60.7961 212.102 61.2388 212.502 61.8148 212.79C62.3908 213.067 63.0734 213.206 63.8628 213.206C64.8441 213.206 65.6547 212.971 66.2947 212.502C66.9454 212.032 67.2708 211.392 67.2708 210.582C67.2708 210.027 67.1321 209.6 66.8548 209.302C66.5774 209.003 66.2254 208.79 65.7988 208.662C65.3828 208.523 64.7534 208.368 63.9108 208.198Z" fill="white"/>
<path d="M80.0105 202.39V202.982H75.8025V213.526H75.2265V202.982H71.0185V202.39H80.0105Z" fill="white"/>
<path d="M95.634 202.39V209.926L103.186 202.39H104.018L99.362 207.03L104.002 213.526H103.298L98.946 207.446L95.634 210.758V213.526H95.042V202.39H95.634Z" fill="white"/>
<path d="M107.206 202.39H115.046V202.982H107.798V207.494H114.102V208.086H107.798V212.934H115.046V213.526H107.206V202.39Z" fill="white"/>
<path d="M119.049 202.39H126.889V202.982H119.641V207.494H125.945V208.086H119.641V212.934H126.889V213.526H119.049V202.39Z" fill="white"/>
<path d="M131.629 213.526H131.037V202.39H135.517C136.264 202.39 136.952 202.55 137.581 202.87C138.221 203.19 138.728 203.643 139.101 204.23C139.475 204.816 139.661 205.494 139.661 206.262C139.661 206.998 139.469 207.675 139.085 208.294C138.712 208.912 138.2 209.387 137.549 209.718C136.984 210.006 136.307 210.15 135.517 210.15H131.629V213.526ZM131.629 209.558H135.517C136.2 209.558 136.76 209.451 137.197 209.238C137.763 208.971 138.216 208.571 138.557 208.038C138.899 207.504 139.069 206.912 139.069 206.262C139.069 205.622 138.899 205.035 138.557 204.502C138.216 203.968 137.757 203.568 137.181 203.302C136.744 203.088 136.189 202.982 135.517 202.982H131.629V209.558Z" fill="white"/>
<path d="M142.737 202.39H150.577V202.982H143.329V207.494H149.633V208.086H143.329V212.934H150.577V213.526H142.737V202.39Z" fill="white"/>
<path d="M160.837 202.758C161.477 203.056 161.978 203.499 162.341 204.086C162.714 204.672 162.901 205.323 162.901 206.038C162.901 206.87 162.645 207.616 162.133 208.278C161.631 208.928 160.986 209.36 160.197 209.574L163.029 213.526H162.325L159.589 209.686L159.077 209.702H155.061V213.526H154.469V202.39H158.709C159.178 202.39 159.578 202.422 159.909 202.486C160.25 202.539 160.559 202.63 160.837 202.758ZM159.237 209.11C159.791 209.11 160.303 208.971 160.773 208.694C161.242 208.416 161.615 208.043 161.893 207.574C162.17 207.104 162.309 206.592 162.309 206.038C162.309 205.419 162.143 204.859 161.813 204.358C161.493 203.856 161.045 203.483 160.469 203.238C160.053 203.067 159.466 202.982 158.709 202.982H155.061V209.11H159.237Z" fill="white"/>
<path d="M170.505 208.198C169.598 208.016 168.857 207.819 168.281 207.606C167.715 207.382 167.267 207.083 166.936 206.71C166.616 206.326 166.456 205.835 166.456 205.238C166.456 204.619 166.616 204.075 166.936 203.606C167.267 203.136 167.726 202.774 168.312 202.518C168.91 202.262 169.598 202.134 170.376 202.134C171.123 202.134 171.806 202.294 172.424 202.614C173.054 202.923 173.55 203.36 173.912 203.926C174.275 204.491 174.456 205.136 174.456 205.862H173.865C173.865 205.232 173.71 204.678 173.4 204.198C173.091 203.718 172.67 203.35 172.137 203.094C171.603 202.827 171.011 202.694 170.361 202.694C169.785 202.694 169.246 202.784 168.744 202.966C168.243 203.147 167.833 203.424 167.512 203.798C167.203 204.171 167.048 204.64 167.048 205.206C167.048 205.718 167.198 206.128 167.496 206.438C167.795 206.736 168.185 206.966 168.665 207.126C169.145 207.286 169.816 207.456 170.68 207.638C171.555 207.819 172.232 207.995 172.712 208.166C173.203 208.326 173.614 208.598 173.945 208.982C174.286 209.366 174.456 209.904 174.456 210.598C174.456 211.291 174.27 211.878 173.896 212.358C173.534 212.827 173.049 213.179 172.441 213.414C171.833 213.648 171.171 213.766 170.456 213.766C169.571 213.766 168.792 213.6 168.12 213.27C167.449 212.939 166.931 212.475 166.568 211.878C166.216 211.27 166.04 210.576 166.04 209.798H166.632C166.632 210.48 166.782 211.078 167.08 211.59C167.39 212.102 167.832 212.502 168.408 212.79C168.984 213.067 169.667 213.206 170.456 213.206C171.438 213.206 172.249 212.971 172.889 212.502C173.539 212.032 173.865 211.392 173.865 210.582C173.865 210.027 173.726 209.6 173.449 209.302C173.171 209.003 172.819 208.79 172.393 208.662C171.977 208.523 171.347 208.368 170.505 208.198Z" fill="white"/>
<path d="M6.868 218.758C7.508 219.056 8.00933 219.499 8.372 220.086C8.74533 220.672 8.932 221.323 8.932 222.038C8.932 222.87 8.676 223.616 8.164 224.278C7.66267 224.928 7.01733 225.36 6.228 225.574L9.06 229.526H8.356L5.62 225.686L5.108 225.702H1.092V229.526H0.5V218.39H4.74C5.20933 218.39 5.60933 218.422 5.94 218.486C6.28133 218.539 6.59067 218.63 6.868 218.758ZM5.268 225.11C5.82267 225.11 6.33467 224.971 6.804 224.694C7.27333 224.416 7.64667 224.043 7.924 223.574C8.20133 223.104 8.34 222.592 8.34 222.038C8.34 221.419 8.17467 220.859 7.844 220.358C7.524 219.856 7.076 219.483 6.5 219.238C6.084 219.067 5.49733 218.982 4.74 218.982H1.092V225.11H5.268Z" fill="white"/>
<path d="M12.4557 218.39H20.2957V218.982H13.0478V223.494H19.3518V224.086H13.0478V228.934H20.2957V229.526H12.4557V218.39Z" fill="white"/>
<path d="M24.3155 225.27C24.3155 225.974 24.4915 226.624 24.8435 227.222C25.2062 227.819 25.6862 228.294 26.2835 228.646C26.8915 228.998 27.5475 229.174 28.2515 229.174C28.9768 229.174 29.6328 229.03 30.2195 228.742C30.8062 228.454 31.2648 228.054 31.5955 227.542C31.9368 227.03 32.1128 226.454 32.1235 225.814H32.6995C32.6995 226.55 32.5022 227.222 32.1075 227.83C31.7235 228.427 31.1902 228.902 30.5075 229.254C29.8355 229.595 29.0835 229.766 28.2515 229.766C27.4408 229.766 26.6888 229.563 25.9955 229.158C25.3022 228.752 24.7528 228.208 24.3475 227.526C23.9422 226.832 23.7395 226.08 23.7395 225.27V222.646C23.7395 221.835 23.9368 221.088 24.3315 220.406C24.7368 219.712 25.2808 219.163 25.9635 218.758C26.6568 218.352 27.4088 218.15 28.2195 218.15C29.0408 218.15 29.7875 218.326 30.4595 218.678C31.1422 219.019 31.6808 219.494 32.0755 220.102C32.4702 220.699 32.6675 221.366 32.6675 222.102H32.0915C32.0808 221.462 31.9048 220.886 31.5635 220.374C31.2222 219.862 30.7582 219.462 30.1715 219.174C29.5955 218.886 28.9448 218.742 28.2195 218.742C27.5155 218.742 26.8648 218.918 26.2675 219.27C25.6702 219.622 25.1955 220.096 24.8435 220.694C24.4915 221.291 24.3155 221.942 24.3155 222.646V225.27Z" fill="white"/>
<path d="M36.1433 218.39H43.9832V218.982H36.7353V223.494H43.0393V224.086H36.7353V228.934H43.9832V229.526H36.1433V218.39Z" fill="white"/>
<path d="M55.443 218.39V218.982H52.115V228.934H55.443V229.526H48.227V228.934H51.539V218.982H48.227V218.39H55.443Z" fill="white"/>
<path d="M59.3988 218.39L63.6548 228.742L67.9108 218.39H68.5347L63.9588 229.526H63.3348L58.7588 218.39H59.3988Z" fill="white"/>
<path d="M71.6745 218.39H79.5145V218.982H72.2665V223.494H78.5705V224.086H72.2665V228.934H79.5145V229.526H71.6745V218.39Z" fill="white"/>
<path d="M102.818 218.39V218.982H99.49V228.934H102.818V229.526H95.602V228.934H98.914V218.982H95.602V218.39H102.818Z" fill="white"/>
<path d="M106.694 229.526V218.39H107.318L115.094 225.942V218.39H115.686V229.526H115.094V226.774L107.286 219.158V229.526H106.694Z" fill="white"/>
<path d="M119.065 225.27C119.065 225.974 119.242 226.624 119.593 227.222C119.956 227.819 120.436 228.294 121.034 228.646C121.642 228.998 122.297 229.174 123.001 229.174C123.727 229.174 124.383 229.03 124.969 228.742C125.556 228.454 126.015 228.054 126.346 227.542C126.687 227.03 126.863 226.454 126.874 225.814H127.449C127.449 226.55 127.252 227.222 126.857 227.83C126.473 228.427 125.94 228.902 125.257 229.254C124.586 229.595 123.833 229.766 123.001 229.766C122.191 229.766 121.439 229.563 120.745 229.158C120.052 228.752 119.503 228.208 119.097 227.526C118.692 226.832 118.489 226.08 118.489 225.27V222.646C118.489 221.835 118.687 221.088 119.081 220.406C119.487 219.712 120.031 219.163 120.714 218.758C121.407 218.352 122.159 218.15 122.969 218.15C123.791 218.15 124.537 218.326 125.209 218.678C125.892 219.019 126.431 219.494 126.826 220.102C127.22 220.699 127.417 221.366 127.417 222.102H126.841C126.831 221.462 126.655 220.886 126.313 220.374C125.972 219.862 125.508 219.462 124.922 219.174C124.346 218.886 123.695 218.742 122.969 218.742C122.265 218.742 121.615 218.918 121.018 219.27C120.42 219.622 119.945 220.096 119.593 220.694C119.242 221.291 119.065 221.942 119.065 222.646V225.27Z" fill="white"/>
<path d="M130.893 218.39H138.733V218.982H131.485V223.494H137.789V224.086H131.485V228.934H138.733V229.526H130.893V218.39Z" fill="white"/>
<path d="M151.073 218.39V218.982H146.865V229.526H146.289V218.982H142.081V218.39H151.073Z" fill="white"/>
<path d="M162.037 218.39V218.982H158.709V228.934H162.037V229.526H154.821V228.934H158.133V218.982H154.821V218.39H162.037Z" fill="white"/>
<path d="M165.992 218.39L170.249 228.742L174.505 218.39H175.128L170.553 229.526H169.928L165.352 218.39H165.992Z" fill="white"/>
<path d="M178.268 218.39H186.108V218.982H178.86V223.494H185.164V224.086H178.86V228.934H186.108V229.526H178.268V218.39Z" fill="white"/>
<path d="M193.744 224.118C192.517 223.851 191.6 223.51 190.992 223.094C190.395 222.678 190.096 222.059 190.096 221.238C190.096 220.331 190.427 219.6 191.088 219.046C191.76 218.48 192.645 218.176 193.744 218.134V216.47H194.336V218.134C195.04 218.187 195.675 218.374 196.24 218.694C196.816 219.014 197.269 219.451 197.6 220.006C197.931 220.55 198.096 221.168 198.096 221.862H197.504C197.504 221.264 197.365 220.736 197.088 220.278C196.811 219.819 196.432 219.456 195.952 219.19C195.472 218.912 194.933 218.752 194.336 218.71V223.638C195.211 223.819 195.888 223.995 196.368 224.166C196.848 224.326 197.253 224.598 197.584 224.982C197.925 225.366 198.096 225.904 198.096 226.598C198.096 227.259 197.92 227.824 197.568 228.294C197.227 228.752 196.773 229.104 196.208 229.35C195.643 229.584 195.019 229.718 194.336 229.75V231.254H193.744V229.75C192.923 229.707 192.203 229.515 191.584 229.174C190.965 228.832 190.491 228.374 190.16 227.798C189.84 227.211 189.68 226.544 189.68 225.798H190.272C190.261 226.779 190.565 227.574 191.184 228.182C191.803 228.79 192.656 229.126 193.744 229.19V224.118ZM193.744 218.694C192.891 218.736 192.165 218.971 191.568 219.398C190.981 219.814 190.688 220.416 190.688 221.206C190.688 221.675 190.811 222.059 191.056 222.358C191.312 222.646 191.653 222.875 192.08 223.046C192.507 223.206 193.061 223.36 193.744 223.51V218.694ZM194.336 229.19C195.253 229.147 196.011 228.902 196.608 228.454C197.205 227.995 197.504 227.382 197.504 226.614C197.504 226.07 197.371 225.648 197.104 225.35C196.848 225.04 196.512 224.816 196.096 224.678C195.691 224.539 195.104 224.39 194.336 224.23V229.19Z" fill="white"/>
<defs>
<linearGradient id="paint0_linear_226_55" x1="99.2981" y1="178.134" x2="99.2981" y2="52.4671" gradientUnits="userSpaceOnUse">
<stop stop-color="#FAD3F1"/>
<stop offset="1" stop-color="#69C3FC"/>
</linearGradient>
</defs>
</svg>
