<svg width="210" height="232" viewBox="0 0 210 232" fill="none" xmlns="http://www.w3.org/2000/svg">
<path d="M60.3108 1.09096V8.62696L67.8628 1.09096H68.6948L64.0388 5.73096L68.6788 12.227H67.9748L63.6228 6.14696L60.3108 9.45896V12.227H59.7188V1.09096H60.3108Z" fill="white"/>
<path d="M71.8825 1.09096H79.7225V1.68296H72.4745V6.19496H78.7785V6.78696H72.4745V11.635H79.7225V12.227H71.8825V1.09096Z" fill="white"/>
<path d="M83.7263 1.09096H91.5663V1.68296H84.3183V6.19496H90.6223V6.78696H84.3183V11.635H91.5663V12.227H83.7263V1.09096Z" fill="white"/>
<path d="M96.306 12.227H95.714V1.09096H100.194C100.941 1.09096 101.629 1.25096 102.258 1.57096C102.898 1.89096 103.405 2.34429 103.778 2.93096C104.151 3.51763 104.338 4.19496 104.338 4.96296C104.338 5.69896 104.146 6.37629 103.762 6.99496C103.389 7.61363 102.877 8.08829 102.226 8.41896C101.661 8.70696 100.983 8.85096 100.194 8.85096H96.306V12.227ZM96.306 8.25896H100.194C100.877 8.25896 101.437 8.15229 101.874 7.93896C102.439 7.67229 102.893 7.27229 103.234 6.73896C103.575 6.20563 103.746 5.61363 103.746 4.96296C103.746 4.32296 103.575 3.73629 103.234 3.20296C102.893 2.66963 102.434 2.26963 101.858 2.00296C101.421 1.78963 100.866 1.68296 100.194 1.68296H96.306V8.25896Z" fill="white"/>
<path d="M107.414 1.09096H115.254V1.68296H108.006V6.19496H114.31V6.78696H108.006V11.635H115.254V12.227H107.414V1.09096Z" fill="white"/>
<path d="M125.514 1.45896C126.154 1.75763 126.655 2.20029 127.018 2.78696C127.391 3.37363 127.578 4.02429 127.578 4.73896C127.578 5.57096 127.322 6.31763 126.81 6.97896C126.308 7.62963 125.663 8.06163 124.874 8.27496L127.706 12.227H127.002L124.266 8.38696L123.754 8.40296H119.738V12.227H119.146V1.09096H123.386C123.855 1.09096 124.255 1.12296 124.586 1.18696C124.927 1.24029 125.236 1.33096 125.514 1.45896ZM123.914 7.81096C124.468 7.81096 124.98 7.67229 125.45 7.39496C125.919 7.11763 126.292 6.74429 126.57 6.27496C126.847 5.80563 126.986 5.29363 126.986 4.73896C126.986 4.12029 126.82 3.56029 126.49 3.05896C126.17 2.55763 125.722 2.18429 125.146 1.93896C124.73 1.76829 124.143 1.68296 123.386 1.68296H119.738V7.81096H123.914Z" fill="white"/>
<path d="M135.181 6.89896C134.275 6.71763 133.533 6.52029 132.957 6.30696C132.392 6.08296 131.944 5.78429 131.613 5.41096C131.293 5.02696 131.133 4.53629 131.133 3.93896C131.133 3.32029 131.293 2.77629 131.613 2.30696C131.944 1.83763 132.403 1.47496 132.989 1.21896C133.587 0.962961 134.275 0.834961 135.053 0.834961C135.8 0.834961 136.483 0.994961 137.101 1.31496C137.731 1.62429 138.227 2.06163 138.589 2.62696C138.952 3.19229 139.133 3.83763 139.133 4.56296H138.541C138.541 3.93363 138.387 3.37896 138.077 2.89896C137.768 2.41896 137.347 2.05096 136.813 1.79496C136.28 1.52829 135.688 1.39496 135.037 1.39496C134.461 1.39496 133.923 1.48563 133.421 1.66696C132.92 1.84829 132.509 2.12563 132.189 2.49896C131.88 2.87229 131.725 3.34163 131.725 3.90696C131.725 4.41896 131.875 4.82963 132.173 5.13896C132.472 5.43763 132.861 5.66696 133.341 5.82696C133.821 5.98696 134.493 6.15763 135.357 6.33896C136.232 6.52029 136.909 6.69629 137.389 6.86696C137.88 7.02696 138.291 7.29896 138.621 7.68296C138.963 8.06696 139.133 8.60563 139.133 9.29896C139.133 9.99229 138.947 10.579 138.573 11.059C138.211 11.5283 137.725 11.8803 137.117 12.115C136.509 12.3496 135.848 12.467 135.133 12.467C134.248 12.467 133.469 12.3016 132.797 11.971C132.125 11.6403 131.608 11.1763 131.245 10.579C130.893 9.97096 130.717 9.27763 130.717 8.49896H131.309C131.309 9.18163 131.459 9.77896 131.757 10.291C132.067 10.803 132.509 11.203 133.085 11.491C133.661 11.7683 134.344 11.907 135.133 11.907C136.115 11.907 136.925 11.6723 137.565 11.203C138.216 10.7336 138.541 10.0936 138.541 9.28296C138.541 8.72829 138.403 8.30163 138.125 8.00296C137.848 7.70429 137.496 7.49096 137.069 7.36296C136.653 7.22429 136.024 7.06963 135.181 6.89896Z" fill="white"/>
<path d="M22.3137 17.091C23.1243 17.091 23.871 17.2936 24.5537 17.699C25.247 18.1043 25.7963 18.6536 26.2017 19.347C26.607 20.0296 26.8097 20.7763 26.8097 21.587V23.731C26.8097 24.5416 26.607 25.2936 26.2017 25.987C25.7963 26.6696 25.247 27.2136 24.5537 27.619C23.871 28.0243 23.1243 28.227 22.3137 28.227H18.2017V17.091H22.3137ZM26.2177 21.587C26.2177 20.883 26.0417 20.2323 25.6897 19.635C25.3377 19.0376 24.8577 18.563 24.2497 18.211C23.6523 17.859 23.0017 17.683 22.2977 17.683H18.7937V27.635H22.2977C23.0017 27.635 23.6523 27.459 24.2497 27.107C24.8577 26.755 25.3377 26.2803 25.6897 25.683C26.0417 25.0856 26.2177 24.435 26.2177 23.731V21.587Z" fill="white"/>
<path d="M30.4294 17.091H38.2694V17.683H31.0214V22.195H37.3254V22.787H31.0214V27.635H38.2694V28.227H30.4294V17.091Z" fill="white"/>
<path d="M43.0092 28.227H42.4172V17.091H46.8972C47.6438 17.091 48.3318 17.251 48.9612 17.571C49.6012 17.891 50.1078 18.3443 50.4812 18.931C50.8545 19.5176 51.0412 20.195 51.0412 20.963C51.0412 21.699 50.8492 22.3763 50.4652 22.995C50.0918 23.6136 49.5798 24.0883 48.9292 24.419C48.3638 24.707 47.6865 24.851 46.8972 24.851H43.0092V28.227ZM43.0092 24.259H46.8972C47.5798 24.259 48.1398 24.1523 48.5772 23.939C49.1425 23.6723 49.5958 23.2723 49.9372 22.739C50.2785 22.2056 50.4492 21.6136 50.4492 20.963C50.4492 20.323 50.2785 19.7363 49.9372 19.203C49.5958 18.6696 49.1372 18.2696 48.5612 18.003C48.1238 17.7896 47.5692 17.683 46.8972 17.683H43.0092V24.259Z" fill="white"/>
<path d="M57.9569 16.851C58.7889 16.851 59.5569 17.059 60.2609 17.475C60.9649 17.8803 61.5196 18.435 61.9249 19.139C62.3409 19.843 62.5489 20.611 62.5489 21.443V23.875C62.5489 24.707 62.3409 25.475 61.9249 26.179C61.5196 26.883 60.9649 27.443 60.2609 27.859C59.5569 28.2643 58.7889 28.467 57.9569 28.467C57.1249 28.467 56.3569 28.2643 55.6529 27.859C54.9489 27.443 54.3889 26.883 53.9729 26.179C53.5676 25.475 53.3649 24.707 53.3649 23.875V21.443C53.3649 20.611 53.5676 19.843 53.9729 19.139C54.3889 18.435 54.9489 17.8803 55.6529 17.475C56.3569 17.059 57.1249 16.851 57.9569 16.851ZM53.9569 23.875C53.9569 24.6003 54.1329 25.2723 54.4849 25.891C54.8476 26.499 55.3329 26.9843 55.9409 27.347C56.5596 27.699 57.2316 27.875 57.9569 27.875C58.6822 27.875 59.3489 27.699 59.9569 27.347C60.5756 26.9843 61.0609 26.499 61.4129 25.891C61.7756 25.2723 61.9569 24.6003 61.9569 23.875V21.443C61.9569 20.7176 61.7756 20.051 61.4129 19.443C61.0609 18.8243 60.5756 18.339 59.9569 17.987C59.3489 17.6243 58.6822 17.443 57.9569 17.443C57.2316 17.443 56.5596 17.6243 55.9409 17.987C55.3329 18.339 54.8476 18.8243 54.4849 19.443C54.1329 20.051 53.9569 20.7176 53.9569 21.443V23.875Z" fill="white"/>
<path d="M70.0407 22.899C69.134 22.7176 68.3927 22.5203 67.8167 22.307C67.2513 22.083 66.8033 21.7843 66.4727 21.411C66.1527 21.027 65.9927 20.5363 65.9927 19.939C65.9927 19.3203 66.1527 18.7763 66.4727 18.307C66.8033 17.8376 67.262 17.475 67.8487 17.219C68.446 16.963 69.134 16.835 69.9127 16.835C70.6593 16.835 71.342 16.995 71.9607 17.315C72.59 17.6243 73.086 18.0616 73.4487 18.627C73.8113 19.1923 73.9927 19.8376 73.9927 20.563H73.4007C73.4007 19.9336 73.246 19.379 72.9367 18.899C72.6273 18.419 72.206 18.051 71.6727 17.795C71.1393 17.5283 70.5473 17.395 69.8967 17.395C69.3207 17.395 68.782 17.4856 68.2807 17.667C67.7793 17.8483 67.3687 18.1256 67.0487 18.499C66.7393 18.8723 66.5847 19.3416 66.5847 19.907C66.5847 20.419 66.734 20.8296 67.0327 21.139C67.3313 21.4376 67.7207 21.667 68.2007 21.827C68.6807 21.987 69.3527 22.1576 70.2167 22.339C71.0913 22.5203 71.7687 22.6963 72.2487 22.867C72.7393 23.027 73.15 23.299 73.4807 23.683C73.822 24.067 73.9927 24.6056 73.9927 25.299C73.9927 25.9923 73.806 26.579 73.4327 27.059C73.07 27.5283 72.5847 27.8803 71.9767 28.115C71.3687 28.3496 70.7073 28.467 69.9927 28.467C69.1073 28.467 68.3287 28.3016 67.6567 27.971C66.9847 27.6403 66.4673 27.1763 66.1047 26.579C65.7527 25.971 65.5767 25.2776 65.5767 24.499H66.1687C66.1687 25.1816 66.318 25.779 66.6167 26.291C66.926 26.803 67.3687 27.203 67.9447 27.491C68.5207 27.7683 69.2033 27.907 69.9927 27.907C70.974 27.907 71.7847 27.6723 72.4247 27.203C73.0753 26.7336 73.4007 26.0936 73.4007 25.283C73.4007 24.7283 73.262 24.3016 72.9847 24.003C72.7073 23.7043 72.3553 23.491 71.9287 23.363C71.5127 23.2243 70.8833 23.0696 70.0407 22.899Z" fill="white"/>
<path d="M85.2604 17.091V17.683H81.9324V27.635H85.2604V28.227H78.0444V27.635H81.3564V17.683H78.0444V17.091H85.2604Z" fill="white"/>
<path d="M97.9842 17.091V17.683H93.7762V28.227H93.2002V17.683H88.9922V17.091H97.9842Z" fill="white"/>
<path d="M116.872 17.091H117.496L122.072 28.227H121.432L119.928 24.547H114.44L112.92 28.227H112.296L116.872 17.091ZM114.68 23.971H119.688L117.176 17.859L114.68 23.971Z" fill="white"/>
<path d="M141.103 22.899C140.196 22.7176 139.455 22.5203 138.879 22.307C138.314 22.083 137.866 21.7843 137.535 21.411C137.215 21.027 137.055 20.5363 137.055 19.939C137.055 19.3203 137.215 18.7763 137.535 18.307C137.866 17.8376 138.324 17.475 138.911 17.219C139.508 16.963 140.196 16.835 140.975 16.835C141.722 16.835 142.404 16.995 143.023 17.315C143.652 17.6243 144.148 18.0616 144.511 18.627C144.874 19.1923 145.055 19.8376 145.055 20.563H144.463C144.463 19.9336 144.308 19.379 143.999 18.899C143.69 18.419 143.268 18.051 142.735 17.795C142.202 17.5283 141.61 17.395 140.959 17.395C140.383 17.395 139.844 17.4856 139.343 17.667C138.842 17.8483 138.431 18.1256 138.111 18.499C137.802 18.8723 137.647 19.3416 137.647 19.907C137.647 20.419 137.796 20.8296 138.095 21.139C138.394 21.4376 138.783 21.667 139.263 21.827C139.743 21.987 140.415 22.1576 141.279 22.339C142.154 22.5203 142.831 22.6963 143.311 22.867C143.802 23.027 144.213 23.299 144.543 23.683C144.884 24.067 145.055 24.6056 145.055 25.299C145.055 25.9923 144.868 26.579 144.495 27.059C144.132 27.5283 143.647 27.8803 143.039 28.115C142.431 28.3496 141.77 28.467 141.055 28.467C140.17 28.467 139.391 28.3016 138.719 27.971C138.047 27.6403 137.53 27.1763 137.167 26.579C136.815 25.971 136.639 25.2776 136.639 24.499H137.231C137.231 25.1816 137.38 25.779 137.679 26.291C137.988 26.803 138.431 27.203 139.007 27.491C139.583 27.7683 140.266 27.907 141.055 27.907C142.036 27.907 142.847 27.6723 143.487 27.203C144.138 26.7336 144.463 26.0936 144.463 25.283C144.463 24.7283 144.325 24.3016 144.047 24.003C143.77 23.7043 143.418 23.491 142.991 23.363C142.575 23.2243 141.946 23.0696 141.103 22.899Z" fill="white"/>
<path d="M157.203 17.091V17.683H152.995V28.227H152.419V17.683H148.211V17.091H157.203Z" fill="white"/>
<path d="M164.247 17.091H164.871L169.447 28.227H168.807L167.303 24.547H161.815L160.295 28.227H159.671L164.247 17.091ZM162.055 23.971H167.063L164.551 17.859L162.055 23.971Z" fill="white"/>
<path d="M172.826 17.091V24.627L180.378 17.091H181.21L176.554 21.731L181.194 28.227H180.49L176.138 22.147L172.826 25.459V28.227H172.234V17.091H172.826Z" fill="white"/>
<path d="M184.398 17.091H192.238V17.683H184.99V22.195H191.294V22.787H184.99V27.635H192.238V28.227H184.398V17.091Z" fill="white"/>
<path d="M47.22 178.134H163.22L105.22 52.4671L47.22 178.134ZM105.22 68.0208L153.141 171.594H57.4761L105.22 68.0208Z" fill="url(#paint0_linear_246_50)"/>
<path d="M81.684 154.531C80.7773 154.35 80.036 154.152 79.46 153.939C78.8946 153.715 78.4466 153.416 78.116 153.043C77.796 152.659 77.636 152.168 77.636 151.571C77.636 150.952 77.796 150.408 78.116 149.939C78.4466 149.47 78.9053 149.107 79.492 148.851C80.0893 148.595 80.7773 148.467 81.556 148.467C82.3026 148.467 82.9853 148.627 83.604 148.947C84.2333 149.256 84.7293 149.694 85.092 150.259C85.4546 150.824 85.636 151.47 85.636 152.195H85.044C85.044 151.566 84.8893 151.011 84.58 150.531C84.2706 150.051 83.8493 149.683 83.316 149.427C82.7826 149.16 82.1906 149.027 81.54 149.027C80.964 149.027 80.4253 149.118 79.924 149.299C79.4226 149.48 79.012 149.758 78.692 150.131C78.3826 150.504 78.228 150.974 78.228 151.539C78.228 152.051 78.3773 152.462 78.676 152.771C78.9746 153.07 79.364 153.299 79.844 153.459C80.324 153.619 80.996 153.79 81.86 153.971C82.7346 154.152 83.412 154.328 83.892 154.499C84.3826 154.659 84.7933 154.931 85.124 155.315C85.4653 155.699 85.636 156.238 85.636 156.931C85.636 157.624 85.4493 158.211 85.076 158.691C84.7133 159.16 84.228 159.512 83.62 159.747C83.012 159.982 82.3506 160.099 81.636 160.099C80.7506 160.099 79.972 159.934 79.3 159.603C78.628 159.272 78.1106 158.808 77.748 158.211C77.396 157.603 77.22 156.91 77.22 156.131H77.812C77.812 156.814 77.9613 157.411 78.26 157.923C78.5693 158.435 79.012 158.835 79.588 159.123C80.164 159.4 80.8466 159.539 81.636 159.539C82.6173 159.539 83.428 159.304 84.068 158.835C84.7186 158.366 85.044 157.726 85.044 156.915C85.044 156.36 84.9053 155.934 84.628 155.635C84.3506 155.336 83.9986 155.123 83.572 154.995C83.156 154.856 82.5266 154.702 81.684 154.531Z" fill="white"/>
<path d="M97.7837 148.723V149.315H93.5757V159.859H92.9997V149.315H88.7917V148.723H97.7837Z" fill="white"/>
<path d="M104.827 148.723H105.451L110.027 159.859H109.387L107.883 156.179H102.395L100.875 159.859H100.251L104.827 148.723ZM102.635 155.603H107.643L105.131 149.491L102.635 155.603Z" fill="white"/>
<path d="M113.407 148.723V156.259L120.959 148.723H121.791L117.135 153.363L121.775 159.859H121.071L116.719 153.779L113.407 157.091V159.859H112.815V148.723H113.407Z" fill="white"/>
<path d="M124.979 148.723H132.819V149.315H125.571V153.827H131.875V154.419H125.571V159.267H132.819V159.859H124.979V148.723Z" fill="white"/>
<path d="M23.8515 213.526V202.39H24.4435V207.654H31.8355V202.39H32.4275V213.526H31.8355V208.246H24.4435V213.526H23.8515Z" fill="white"/>
<path d="M39.9832 202.15C40.8153 202.15 41.5833 202.358 42.2873 202.774C42.9912 203.179 43.5459 203.734 43.9513 204.438C44.3673 205.142 44.5753 205.91 44.5753 206.742V209.174C44.5753 210.006 44.3673 210.774 43.9513 211.478C43.5459 212.182 42.9912 212.742 42.2873 213.158C41.5833 213.563 40.8153 213.766 39.9832 213.766C39.1512 213.766 38.3833 213.563 37.6793 213.158C36.9753 212.742 36.4153 212.182 35.9993 211.478C35.5939 210.774 35.3913 210.006 35.3913 209.174V206.742C35.3913 205.91 35.5939 205.142 35.9993 204.438C36.4153 203.734 36.9753 203.179 37.6793 202.774C38.3833 202.358 39.1512 202.15 39.9832 202.15ZM35.9832 209.174C35.9832 209.899 36.1593 210.571 36.5113 211.19C36.8739 211.798 37.3592 212.283 37.9673 212.646C38.5859 212.998 39.2579 213.174 39.9832 213.174C40.7086 213.174 41.3753 212.998 41.9833 212.646C42.6019 212.283 43.0872 211.798 43.4393 211.19C43.8019 210.571 43.9832 209.899 43.9832 209.174V206.742C43.9832 206.016 43.8019 205.35 43.4393 204.742C43.0872 204.123 42.6019 203.638 41.9833 203.286C41.3753 202.923 40.7086 202.742 39.9832 202.742C39.2579 202.742 38.5859 202.923 37.9673 203.286C37.3592 203.638 36.8739 204.123 36.5113 204.742C36.1593 205.35 35.9832 206.016 35.9832 206.742V209.174Z" fill="white"/>
<path d="M47.475 213.526V202.39H48.099L55.875 209.942V202.39H56.467V213.526H55.875V210.774L48.067 203.158V213.526H47.475Z" fill="white"/>
<path d="M59.8308 202.39H67.6707V202.982H60.4228V207.494H66.7267V208.086H60.4228V212.934H67.6707V213.526H59.8308V202.39Z" fill="white"/>
<path d="M75.7545 208.198C74.8478 208.016 74.1065 207.819 73.5305 207.606C72.9652 207.382 72.5172 207.083 72.1865 206.71C71.8665 206.326 71.7065 205.835 71.7065 205.238C71.7065 204.619 71.8665 204.075 72.1865 203.606C72.5172 203.136 72.9758 202.774 73.5625 202.518C74.1598 202.262 74.8478 202.134 75.6265 202.134C76.3732 202.134 77.0558 202.294 77.6745 202.614C78.3038 202.923 78.7998 203.36 79.1625 203.926C79.5252 204.491 79.7065 205.136 79.7065 205.862H79.1145C79.1145 205.232 78.9598 204.678 78.6505 204.198C78.3412 203.718 77.9198 203.35 77.3865 203.094C76.8532 202.827 76.2612 202.694 75.6105 202.694C75.0345 202.694 74.4958 202.784 73.9945 202.966C73.4932 203.147 73.0825 203.424 72.7625 203.798C72.4532 204.171 72.2985 204.64 72.2985 205.206C72.2985 205.718 72.4478 206.128 72.7465 206.438C73.0452 206.736 73.4345 206.966 73.9145 207.126C74.3945 207.286 75.0665 207.456 75.9305 207.638C76.8052 207.819 77.4825 207.995 77.9625 208.166C78.4532 208.326 78.8638 208.598 79.1945 208.982C79.5358 209.366 79.7065 209.904 79.7065 210.598C79.7065 211.291 79.5198 211.878 79.1465 212.358C78.7838 212.827 78.2985 213.179 77.6905 213.414C77.0825 213.648 76.4212 213.766 75.7065 213.766C74.8212 213.766 74.0425 213.6 73.3705 213.27C72.6985 212.939 72.1812 212.475 71.8185 211.878C71.4665 211.27 71.2905 210.576 71.2905 209.798H71.8825C71.8825 210.48 72.0318 211.078 72.3305 211.59C72.6398 212.102 73.0825 212.502 73.6585 212.79C74.2345 213.067 74.9172 213.206 75.7065 213.206C76.6878 213.206 77.4985 212.971 78.1385 212.502C78.7892 212.032 79.1145 211.392 79.1145 210.582C79.1145 210.027 78.9758 209.6 78.6985 209.302C78.4212 209.003 78.0692 208.79 77.6425 208.662C77.2265 208.523 76.5972 208.368 75.7545 208.198Z" fill="white"/>
<path d="M91.8542 202.39V202.982H87.6462V213.526H87.0703V202.982H82.8623V202.39H91.8542Z" fill="white"/>
<path d="M107.478 202.39V209.926L115.03 202.39H115.862L111.206 207.03L115.846 213.526H115.142L110.79 207.446L107.478 210.758V213.526H106.886V202.39H107.478Z" fill="white"/>
<path d="M119.049 202.39H126.889V202.982H119.641V207.494H125.945V208.086H119.641V212.934H126.889V213.526H119.049V202.39Z" fill="white"/>
<path d="M130.893 202.39H138.733V202.982H131.485V207.494H137.789V208.086H131.485V212.934H138.733V213.526H130.893V202.39Z" fill="white"/>
<path d="M143.473 213.526H142.881V202.39H147.361C148.108 202.39 148.796 202.55 149.425 202.87C150.065 203.19 150.572 203.643 150.945 204.23C151.318 204.816 151.505 205.494 151.505 206.262C151.505 206.998 151.313 207.675 150.929 208.294C150.556 208.912 150.044 209.387 149.393 209.718C148.828 210.006 148.15 210.15 147.361 210.15H143.473V213.526ZM143.473 209.558H147.361C148.044 209.558 148.604 209.451 149.041 209.238C149.606 208.971 150.06 208.571 150.401 208.038C150.742 207.504 150.913 206.912 150.913 206.262C150.913 205.622 150.742 205.035 150.401 204.502C150.06 203.968 149.601 203.568 149.025 203.302C148.588 203.088 148.033 202.982 147.361 202.982H143.473V209.558Z" fill="white"/>
<path d="M154.581 202.39H162.421V202.982H155.173V207.494H161.477V208.086H155.173V212.934H162.421V213.526H154.581V202.39Z" fill="white"/>
<path d="M172.68 202.758C173.32 203.056 173.822 203.499 174.184 204.086C174.558 204.672 174.744 205.323 174.744 206.038C174.744 206.87 174.488 207.616 173.977 208.278C173.475 208.928 172.83 209.36 172.04 209.574L174.872 213.526H174.169L171.432 209.686L170.921 209.702H166.904V213.526H166.312V202.39H170.553C171.022 202.39 171.422 202.422 171.753 202.486C172.094 202.539 172.403 202.63 172.68 202.758ZM171.081 209.11C171.635 209.11 172.147 208.971 172.617 208.694C173.086 208.416 173.459 208.043 173.736 207.574C174.014 207.104 174.152 206.592 174.152 206.038C174.152 205.419 173.987 204.859 173.656 204.358C173.336 203.856 172.889 203.483 172.312 203.238C171.896 203.067 171.31 202.982 170.553 202.982H166.904V209.11H171.081Z" fill="white"/>
<path d="M182.348 208.198C181.442 208.016 180.7 207.819 180.124 207.606C179.559 207.382 179.111 207.083 178.78 206.71C178.46 206.326 178.3 205.835 178.3 205.238C178.3 204.619 178.46 204.075 178.78 203.606C179.111 203.136 179.57 202.774 180.156 202.518C180.754 202.262 181.442 202.134 182.22 202.134C182.967 202.134 183.65 202.294 184.268 202.614C184.898 202.923 185.394 203.36 185.756 203.926C186.119 204.491 186.3 205.136 186.3 205.862H185.708C185.708 205.232 185.554 204.678 185.244 204.198C184.935 203.718 184.514 203.35 183.98 203.094C183.447 202.827 182.855 202.694 182.204 202.694C181.628 202.694 181.09 202.784 180.588 202.966C180.087 203.147 179.676 203.424 179.356 203.798C179.047 204.171 178.892 204.64 178.892 205.206C178.892 205.718 179.042 206.128 179.34 206.438C179.639 206.736 180.028 206.966 180.508 207.126C180.988 207.286 181.66 207.456 182.524 207.638C183.399 207.819 184.076 207.995 184.556 208.166C185.047 208.326 185.458 208.598 185.788 208.982C186.13 209.366 186.3 209.904 186.3 210.598C186.3 211.291 186.114 211.878 185.74 212.358C185.378 212.827 184.892 213.179 184.284 213.414C183.676 213.648 183.015 213.766 182.3 213.766C181.415 213.766 180.636 213.6 179.964 213.27C179.292 212.939 178.775 212.475 178.412 211.878C178.06 211.27 177.884 210.576 177.884 209.798H178.476C178.476 210.48 178.626 211.078 178.924 211.59C179.234 212.102 179.676 212.502 180.252 212.79C180.828 213.067 181.511 213.206 182.3 213.206C183.282 213.206 184.092 212.971 184.732 212.502C185.383 212.032 185.708 211.392 185.708 210.582C185.708 210.027 185.57 209.6 185.292 209.302C185.015 209.003 184.663 208.79 184.236 208.662C183.82 208.523 183.191 208.368 182.348 208.198Z" fill="white"/>
<path d="M6.868 218.758C7.508 219.056 8.00933 219.499 8.372 220.086C8.74533 220.672 8.932 221.323 8.932 222.038C8.932 222.87 8.676 223.616 8.164 224.278C7.66267 224.928 7.01733 225.36 6.228 225.574L9.06 229.526H8.356L5.62 225.686L5.108 225.702H1.092V229.526H0.5V218.39H4.74C5.20933 218.39 5.60933 218.422 5.94 218.486C6.28133 218.539 6.59067 218.63 6.868 218.758ZM5.268 225.11C5.82267 225.11 6.33467 224.971 6.804 224.694C7.27333 224.416 7.64667 224.043 7.924 223.574C8.20133 223.104 8.34 222.592 8.34 222.038C8.34 221.419 8.17467 220.859 7.844 220.358C7.524 219.856 7.076 219.483 6.5 219.238C6.084 219.067 5.49733 218.982 4.74 218.982H1.092V225.11H5.268Z" fill="white"/>
<path d="M12.4557 218.39H20.2957V218.982H13.0478V223.494H19.3518V224.086H13.0478V228.934H20.2957V229.526H12.4557V218.39Z" fill="white"/>
<path d="M24.3155 225.27C24.3155 225.974 24.4915 226.624 24.8435 227.222C25.2062 227.819 25.6862 228.294 26.2835 228.646C26.8915 228.998 27.5475 229.174 28.2515 229.174C28.9768 229.174 29.6328 229.03 30.2195 228.742C30.8062 228.454 31.2648 228.054 31.5955 227.542C31.9368 227.03 32.1128 226.454 32.1235 225.814H32.6995C32.6995 226.55 32.5022 227.222 32.1075 227.83C31.7235 228.427 31.1902 228.902 30.5075 229.254C29.8355 229.595 29.0835 229.766 28.2515 229.766C27.4408 229.766 26.6888 229.563 25.9955 229.158C25.3022 228.752 24.7528 228.208 24.3475 227.526C23.9422 226.832 23.7395 226.08 23.7395 225.27V222.646C23.7395 221.835 23.9368 221.088 24.3315 220.406C24.7368 219.712 25.2808 219.163 25.9635 218.758C26.6568 218.352 27.4088 218.15 28.2195 218.15C29.0408 218.15 29.7875 218.326 30.4595 218.678C31.1422 219.019 31.6808 219.494 32.0755 220.102C32.4702 220.699 32.6675 221.366 32.6675 222.102H32.0915C32.0808 221.462 31.9048 220.886 31.5635 220.374C31.2222 219.862 30.7582 219.462 30.1715 219.174C29.5955 218.886 28.9448 218.742 28.2195 218.742C27.5155 218.742 26.8648 218.918 26.2675 219.27C25.6702 219.622 25.1955 220.096 24.8435 220.694C24.4915 221.291 24.3155 221.942 24.3155 222.646V225.27Z" fill="white"/>
<path d="M36.1433 218.39H43.9832V218.982H36.7353V223.494H43.0393V224.086H36.7353V228.934H43.9832V229.526H36.1433V218.39Z" fill="white"/>
<path d="M55.443 218.39V218.982H52.115V228.934H55.443V229.526H48.227V228.934H51.539V218.982H48.227V218.39H55.443Z" fill="white"/>
<path d="M59.3988 218.39L63.6548 228.742L67.9108 218.39H68.5347L63.9588 229.526H63.3348L58.7588 218.39H59.3988Z" fill="white"/>
<path d="M71.6745 218.39H79.5145V218.982H72.2665V223.494H78.5705V224.086H72.2665V228.934H79.5145V229.526H71.6745V218.39Z" fill="white"/>
<path d="M102.818 218.39V218.982H99.49V228.934H102.818V229.526H95.602V228.934H98.914V218.982H95.602V218.39H102.818Z" fill="white"/>
<path d="M106.694 229.526V218.39H107.318L115.094 225.942V218.39H115.686V229.526H115.094V226.774L107.286 219.158V229.526H106.694Z" fill="white"/>
<path d="M119.065 225.27C119.065 225.974 119.242 226.624 119.593 227.222C119.956 227.819 120.436 228.294 121.034 228.646C121.642 228.998 122.297 229.174 123.001 229.174C123.727 229.174 124.383 229.03 124.969 228.742C125.556 228.454 126.015 228.054 126.346 227.542C126.687 227.03 126.863 226.454 126.874 225.814H127.449C127.449 226.55 127.252 227.222 126.857 227.83C126.473 228.427 125.94 228.902 125.257 229.254C124.586 229.595 123.833 229.766 123.001 229.766C122.191 229.766 121.439 229.563 120.745 229.158C120.052 228.752 119.503 228.208 119.097 227.526C118.692 226.832 118.489 226.08 118.489 225.27V222.646C118.489 221.835 118.687 221.088 119.081 220.406C119.487 219.712 120.031 219.163 120.714 218.758C121.407 218.352 122.159 218.15 122.969 218.15C123.791 218.15 124.537 218.326 125.209 218.678C125.892 219.019 126.431 219.494 126.826 220.102C127.22 220.699 127.417 221.366 127.417 222.102H126.841C126.831 221.462 126.655 220.886 126.313 220.374C125.972 219.862 125.508 219.462 124.922 219.174C124.346 218.886 123.695 218.742 122.969 218.742C122.265 218.742 121.615 218.918 121.018 219.27C120.42 219.622 119.945 220.096 119.593 220.694C119.242 221.291 119.065 221.942 119.065 222.646V225.27Z" fill="white"/>
<path d="M130.893 218.39H138.733V218.982H131.485V223.494H137.789V224.086H131.485V228.934H138.733V229.526H130.893V218.39Z" fill="white"/>
<path d="M142.225 229.526V218.39H142.849L150.625 225.942V218.39H151.217V229.526H150.625V226.774L142.817 219.158V229.526H142.225Z" fill="white"/>
<path d="M162.917 218.39V218.982H158.709V229.526H158.133V218.982H153.925V218.39H162.917Z" fill="white"/>
<path d="M173.88 218.39V218.982H170.553V228.934H173.88V229.526H166.665V228.934H169.977V218.982H166.665V218.39H173.88Z" fill="white"/>
<path d="M177.836 218.39L182.092 228.742L186.348 218.39H186.972L182.396 229.526H181.772L177.196 218.39H177.836Z" fill="white"/>
<path d="M190.112 218.39H197.952V218.982H190.704V223.494H197.008V224.086H190.704V228.934H197.952V229.526H190.112V218.39Z" fill="white"/>
<path d="M205.588 224.118C204.361 223.851 203.444 223.51 202.836 223.094C202.238 222.678 201.94 222.059 201.94 221.238C201.94 220.331 202.27 219.6 202.932 219.046C203.604 218.48 204.489 218.176 205.588 218.134V216.47H206.18V218.134C206.884 218.187 207.518 218.374 208.084 218.694C208.66 219.014 209.113 219.451 209.444 220.006C209.774 220.55 209.94 221.168 209.94 221.862H209.348C209.348 221.264 209.209 220.736 208.932 220.278C208.654 219.819 208.276 219.456 207.796 219.19C207.316 218.912 206.777 218.752 206.18 218.71V223.638C207.054 223.819 207.732 223.995 208.212 224.166C208.692 224.326 209.097 224.598 209.428 224.982C209.769 225.366 209.94 225.904 209.94 226.598C209.94 227.259 209.764 227.824 209.412 228.294C209.07 228.752 208.617 229.104 208.052 229.35C207.486 229.584 206.862 229.718 206.18 229.75V231.254H205.588V229.75C204.766 229.707 204.046 229.515 203.428 229.174C202.809 228.832 202.334 228.374 202.004 227.798C201.684 227.211 201.524 226.544 201.524 225.798H202.116C202.105 226.779 202.409 227.574 203.028 228.182C203.646 228.79 204.5 229.126 205.588 229.19V224.118ZM205.588 218.694C204.734 218.736 204.009 218.971 203.412 219.398C202.825 219.814 202.532 220.416 202.532 221.206C202.532 221.675 202.654 222.059 202.9 222.358C203.156 222.646 203.497 222.875 203.924 223.046C204.35 223.206 204.905 223.36 205.588 223.51V218.694ZM206.18 229.19C207.097 229.147 207.854 228.902 208.452 228.454C209.049 227.995 209.348 227.382 209.348 226.614C209.348 226.07 209.214 225.648 208.948 225.35C208.692 225.04 208.356 224.816 207.94 224.678C207.534 224.539 206.948 224.39 206.18 224.23V229.19Z" fill="white"/>
<defs>
<linearGradient id="paint0_linear_246_50" x1="105.22" y1="178.134" x2="105.22" y2="52.4671" gradientUnits="userSpaceOnUse">
<stop stop-color="#FAD3F1"/>
<stop offset="1" stop-color="#69C3FC"/>
</linearGradient>
</defs>
</svg>
