<svg viewBox="0 0 16 13" fill="none" xmlns="http://www.w3.org/2000/svg">
<path d="M14.5 0H1.5C0.671562 0 0 0.68724 0 1.53502V10.7451C0 11.5929 0.671562 12.2801 1.5 12.2801H14.5C15.3284 12.2801 16 11.5929 16 10.7451V1.53502C16 0.68724 15.3284 0 14.5 0ZM14.5 1.53502V2.83994C13.7993 3.42386 12.6823 4.33182 10.2942 6.24544C9.76787 6.66908 8.72538 7.68682 8 7.67496C7.27475 7.68695 6.23191 6.66892 5.70584 6.24544C3.31813 4.33211 2.20078 3.42395 1.5 2.83994V1.53502H14.5ZM1.5 10.7451V4.80966C2.21606 5.39332 3.23153 6.21234 4.77931 7.45264C5.46234 8.00285 6.6585 9.21746 8 9.21007C9.33491 9.21746 10.5159 8.02047 11.2204 7.45289C12.7682 6.21263 13.7839 5.39338 14.5 4.80969V10.7451H1.5Z" fill="#1B003F"/>
</svg>
