<svg width="139" height="196" viewBox="0 0 139 196" fill="none" xmlns="http://www.w3.org/2000/svg">
<path d="M12.2779 1.06698C12.9179 1.36565 13.4192 1.80832 13.7819 2.39498C14.1552 2.98165 14.3419 3.63232 14.3419 4.34698C14.3419 5.17898 14.0859 5.92565 13.5739 6.58698C13.0725 7.23765 12.4272 7.66965 11.6379 7.88299L14.4699 11.835H13.7659L11.0299 7.99498L10.5179 8.01098H6.50188V11.835H5.90988V0.698984H10.1499C10.6192 0.698984 11.0192 0.730984 11.3499 0.794984C11.6912 0.848317 12.0005 0.938984 12.2779 1.06698ZM10.6779 7.41898C11.2325 7.41898 11.7445 7.28032 12.2139 7.00298C12.6832 6.72565 13.0565 6.35232 13.3339 5.88299C13.6112 5.41365 13.7499 4.90165 13.7499 4.34698C13.7499 3.72832 13.5845 3.16832 13.2539 2.66698C12.9339 2.16565 12.4859 1.79232 11.9099 1.54698C11.4939 1.37632 10.9072 1.29098 10.1499 1.29098H6.50188V7.41898H10.6779Z" fill="white"/>
<path d="M17.2096 0.698984H17.8016V7.57898C17.8016 8.28298 17.9776 8.93365 18.3296 9.53098C18.6816 10.1283 19.1563 10.603 19.7536 10.955C20.351 11.307 21.0016 11.483 21.7056 11.483C22.4096 11.483 23.0603 11.307 23.6576 10.955C24.255 10.603 24.7296 10.1283 25.0816 9.53098C25.4336 8.93365 25.6096 8.28298 25.6096 7.57898V0.698984H26.2016V7.57898C26.2016 8.38965 25.999 9.14165 25.5936 9.83498C25.1883 10.5177 24.639 11.0617 23.9456 11.467C23.263 11.8723 22.5163 12.075 21.7056 12.075C20.895 12.075 20.143 11.8723 19.4496 11.467C18.767 11.0617 18.223 10.5177 17.8176 9.83498C17.4123 9.14165 17.2096 8.38965 17.2096 7.57898V0.698984Z" fill="white"/>
<path d="M29.1974 11.835V0.698984H29.8214L37.5974 8.25099V0.698984H38.1894V11.835H37.5974V9.08298L29.7894 1.46698V11.835H29.1974Z" fill="white"/>
<path d="M41.0411 11.835V0.698984H41.6651L49.4411 8.25099V0.698984H50.0331V11.835H49.4411V9.08298L41.6331 1.46698V11.835H41.0411Z" fill="white"/>
<path d="M60.8529 0.698984V1.29098H57.5249V11.243H60.8529V11.835H53.6369V11.243H56.9489V1.29098H53.6369V0.698984H60.8529Z" fill="white"/>
<path d="M64.7286 11.835V0.698984H65.3526L73.1286 8.25099V0.698984H73.7206V11.835H73.1286V9.08298L65.3206 1.46698V11.835H64.7286Z" fill="white"/>
<path d="M84.8444 9.54698C84.5564 10.283 84.0337 10.891 83.2764 11.371C82.519 11.8403 81.7084 12.075 80.8444 12.075C80.0124 12.075 79.2444 11.867 78.5404 11.451C77.8364 11.035 77.2764 10.4643 76.8604 9.73898C76.455 9.00298 76.2524 8.19765 76.2524 7.32298V5.08298C76.2524 4.22965 76.455 3.45098 76.8604 2.74698C77.2764 2.04298 77.831 1.48832 78.5244 1.08298C79.2284 0.666984 80.0017 0.458984 80.8444 0.458984C81.5377 0.458984 82.1724 0.576318 82.7484 0.810985C83.3244 1.03498 83.815 1.36565 84.2204 1.80298C84.551 2.16565 84.8177 2.57098 85.0204 3.01898C85.2337 3.46698 85.3404 3.92032 85.3404 4.37898H84.7644C84.7537 3.98432 84.6524 3.59498 84.4604 3.21098C84.279 2.82698 84.0444 2.48032 83.7564 2.17098C83.0417 1.42432 82.071 1.05098 80.8444 1.05098C80.1084 1.05098 79.431 1.23232 78.8124 1.59498C78.2044 1.94698 77.7244 2.43232 77.3724 3.05098C77.0204 3.65898 76.8444 4.33632 76.8444 5.08298V7.32298C76.8444 8.10165 77.0204 8.81098 77.3724 9.45098C77.735 10.0803 78.2204 10.5763 78.8284 10.939C79.447 11.3017 80.119 11.483 80.8444 11.483C81.5804 11.483 82.2524 11.307 82.8604 10.955C83.479 10.5923 83.9644 10.107 84.3164 9.49898C84.6684 8.88032 84.8444 8.20832 84.8444 7.48298V6.92298H80.8444V6.33099H85.4364V11.835H84.8444V9.54698Z" fill="white"/>
<path d="M109.108 0.698984V1.29098H104.9V11.835H104.324V1.29098H100.116V0.698984H109.108Z" fill="white"/>
<path d="M112.168 11.835V0.698984H112.76V5.96299H120.152V0.698984H120.744V11.835H120.152V6.55498H112.76V11.835H112.168Z" fill="white"/>
<path d="M124.459 0.698984H132.299V1.29098H125.051V5.80298H131.355V6.39498H125.051V11.243H132.299V11.835H124.459V0.698984Z" fill="white"/>
<path d="M9.86188 16.459C10.6939 16.459 11.4619 16.667 12.1659 17.083C12.8699 17.4883 13.4245 18.043 13.8299 18.747C14.2459 19.451 14.4539 20.219 14.4539 21.051V23.483C14.4539 24.315 14.2459 25.083 13.8299 25.787C13.4245 26.491 12.8699 27.051 12.1659 27.467C11.4619 27.8723 10.6939 28.075 9.86188 28.075C9.02988 28.075 8.26188 27.8723 7.55788 27.467C6.85388 27.051 6.29387 26.491 5.87787 25.787C5.47254 25.083 5.26988 24.315 5.26988 23.483V21.051C5.26988 20.219 5.47254 19.451 5.87787 18.747C6.29387 18.043 6.85388 17.4883 7.55788 17.083C8.26188 16.667 9.02988 16.459 9.86188 16.459ZM5.86188 23.483C5.86188 24.2083 6.03787 24.8803 6.38987 25.499C6.75254 26.107 7.23787 26.5923 7.84588 26.955C8.46454 27.307 9.13654 27.483 9.86188 27.483C10.5872 27.483 11.2539 27.307 11.8619 26.955C12.4805 26.5923 12.9659 26.107 13.3179 25.499C13.6805 24.8803 13.8619 24.2083 13.8619 23.483V21.051C13.8619 20.3256 13.6805 19.659 13.3179 19.051C12.9659 18.4323 12.4805 17.947 11.8619 17.595C11.2539 17.2323 10.5872 17.051 9.86188 17.051C9.13654 17.051 8.46454 17.2323 7.84588 17.595C7.23787 17.947 6.75254 18.4323 6.38987 19.051C6.03787 19.659 5.86188 20.3256 5.86188 21.051V23.483Z" fill="white"/>
<path d="M18.6016 27.835H18.0096V16.699H22.4896C23.2363 16.699 23.9243 16.859 24.5536 17.179C25.1936 17.499 25.7003 17.9523 26.0736 18.539C26.447 19.1256 26.6336 19.803 26.6336 20.571C26.6336 21.307 26.4416 21.9843 26.0576 22.603C25.6843 23.2217 25.1723 23.6963 24.5216 24.027C23.9563 24.315 23.279 24.459 22.4896 24.459H18.6016V27.835ZM18.6016 23.867H22.4896C23.1723 23.867 23.7323 23.7603 24.1696 23.547C24.735 23.2803 25.1883 22.8803 25.5296 22.347C25.871 21.8137 26.0416 21.2217 26.0416 20.571C26.0416 19.931 25.871 19.3443 25.5296 18.811C25.1883 18.2777 24.7296 17.8777 24.1536 17.611C23.7163 17.3977 23.1616 17.291 22.4896 17.291H18.6016V23.867Z" fill="white"/>
<path d="M29.7094 16.699H37.5494V17.291H30.3014V21.803H36.6054V22.395H30.3014V27.243H37.5494V27.835H29.7094V16.699Z" fill="white"/>
<path d="M41.0411 27.835V16.699H41.6651L49.4411 24.251V16.699H50.0331V27.835H49.4411V25.083L41.6331 17.467V27.835H41.0411Z" fill="white"/>
<path d="M54.4849 22.603V22.011H59.9889V22.603H54.4849Z" fill="white"/>
<path d="M69.3206 22.507C68.414 22.3257 67.6726 22.1283 67.0966 21.915C66.5313 21.691 66.0833 21.3923 65.7526 21.019C65.4326 20.635 65.2726 20.1443 65.2726 19.547C65.2726 18.9283 65.4326 18.3843 65.7526 17.915C66.0833 17.4457 66.542 17.083 67.1286 16.827C67.726 16.571 68.414 16.443 69.1926 16.443C69.9393 16.443 70.622 16.603 71.2406 16.923C71.87 17.2323 72.366 17.6697 72.7286 18.235C73.0913 18.8003 73.2726 19.4456 73.2726 20.171H72.6806C72.6806 19.5416 72.526 18.987 72.2166 18.507C71.9073 18.027 71.486 17.659 70.9526 17.403C70.4193 17.1363 69.8273 17.003 69.1766 17.003C68.6006 17.003 68.062 17.0936 67.5606 17.275C67.0593 17.4563 66.6486 17.7337 66.3286 18.107C66.0193 18.4803 65.8646 18.9497 65.8646 19.515C65.8646 20.027 66.014 20.4376 66.3126 20.747C66.6113 21.0456 67.0006 21.275 67.4806 21.435C67.9606 21.595 68.6326 21.7656 69.4966 21.947C70.3713 22.1283 71.0486 22.3043 71.5286 22.475C72.0193 22.635 72.43 22.907 72.7606 23.291C73.102 23.675 73.2726 24.2137 73.2726 24.907C73.2726 25.6003 73.086 26.187 72.7126 26.667C72.35 27.1363 71.8646 27.4883 71.2566 27.723C70.6486 27.9577 69.9873 28.075 69.2726 28.075C68.3873 28.075 67.6086 27.9097 66.9366 27.579C66.2646 27.2483 65.7473 26.7843 65.3846 26.187C65.0326 25.579 64.8566 24.8857 64.8566 24.107H65.4486C65.4486 24.7896 65.598 25.387 65.8966 25.899C66.206 26.411 66.6486 26.811 67.2246 27.099C67.8006 27.3763 68.4833 27.515 69.2726 27.515C70.254 27.515 71.0646 27.2803 71.7046 26.811C72.3553 26.3417 72.6806 25.7017 72.6806 24.891C72.6806 24.3363 72.542 23.9097 72.2646 23.611C71.9873 23.3123 71.6353 23.099 71.2086 22.971C70.7926 22.8323 70.1633 22.6777 69.3206 22.507Z" fill="white"/>
<path d="M80.9244 16.459C81.7564 16.459 82.5244 16.667 83.2284 17.083C83.9324 17.4883 84.487 18.043 84.8924 18.747C85.3084 19.451 85.5164 20.219 85.5164 21.051V23.483C85.5164 24.315 85.3084 25.083 84.8924 25.787C84.487 26.491 83.9324 27.051 83.2284 27.467C82.5244 27.8723 81.7564 28.075 80.9244 28.075C80.0924 28.075 79.3244 27.8723 78.6204 27.467C77.9164 27.051 77.3564 26.491 76.9404 25.787C76.535 25.083 76.3324 24.315 76.3324 23.483V21.051C76.3324 20.219 76.535 19.451 76.9404 18.747C77.3564 18.043 77.9164 17.4883 78.6204 17.083C79.3244 16.667 80.0924 16.459 80.9244 16.459ZM76.9244 23.483C76.9244 24.2083 77.1004 24.8803 77.4524 25.499C77.815 26.107 78.3004 26.5923 78.9084 26.955C79.527 27.307 80.199 27.483 80.9244 27.483C81.6497 27.483 82.3164 27.307 82.9244 26.955C83.543 26.5923 84.0284 26.107 84.3804 25.499C84.743 24.8803 84.9244 24.2083 84.9244 23.483V21.051C84.9244 20.3256 84.743 19.659 84.3804 19.051C84.0284 18.4323 83.543 17.947 82.9244 17.595C82.3164 17.2323 81.6497 17.051 80.9244 17.051C80.199 17.051 79.527 17.2323 78.9084 17.595C78.3004 17.947 77.815 18.4323 77.4524 19.051C77.1004 19.659 76.9244 20.3256 76.9244 21.051V23.483Z" fill="white"/>
<path d="M88.2721 16.699H88.8641V23.579C88.8641 24.283 89.0401 24.9336 89.3921 25.531C89.7441 26.1283 90.2188 26.603 90.8161 26.955C91.4135 27.307 92.0641 27.483 92.7681 27.483C93.4721 27.483 94.1228 27.307 94.7201 26.955C95.3175 26.603 95.7921 26.1283 96.1441 25.531C96.4961 24.9336 96.6721 24.283 96.6721 23.579V16.699H97.2641V23.579C97.2641 24.3897 97.0615 25.1417 96.6561 25.835C96.2508 26.5177 95.7015 27.0617 95.0081 27.467C94.3255 27.8723 93.5788 28.075 92.7681 28.075C91.9575 28.075 91.2055 27.8723 90.5121 27.467C89.8295 27.0617 89.2855 26.5177 88.8801 25.835C88.4748 25.1417 88.2721 24.3897 88.2721 23.579V16.699Z" fill="white"/>
<path d="M107.028 17.067C107.668 17.3656 108.169 17.8083 108.532 18.395C108.905 18.9817 109.092 19.6323 109.092 20.347C109.092 21.179 108.836 21.9256 108.324 22.587C107.823 23.2376 107.177 23.6697 106.388 23.883L109.22 27.835H108.516L105.78 23.995L105.268 24.011H101.252V27.835H100.66V16.699H104.9C105.369 16.699 105.769 16.731 106.1 16.795C106.441 16.8483 106.751 16.939 107.028 17.067ZM105.428 23.419C105.983 23.419 106.495 23.2803 106.964 23.003C107.433 22.7257 107.807 22.3523 108.084 21.883C108.361 21.4137 108.5 20.9017 108.5 20.347C108.5 19.7283 108.335 19.1683 108.004 18.667C107.684 18.1657 107.236 17.7923 106.66 17.547C106.244 17.3763 105.657 17.291 104.9 17.291H101.252V23.419H105.428Z" fill="white"/>
<path d="M112.632 23.579C112.632 24.283 112.808 24.9336 113.16 25.531C113.522 26.1283 114.002 26.603 114.6 26.955C115.208 27.307 115.864 27.483 116.568 27.483C117.293 27.483 117.949 27.339 118.536 27.051C119.122 26.763 119.581 26.363 119.912 25.851C120.253 25.339 120.429 24.763 120.44 24.123H121.016C121.016 24.859 120.818 25.531 120.424 26.139C120.04 26.7363 119.506 27.211 118.824 27.563C118.152 27.9043 117.4 28.075 116.568 28.075C115.757 28.075 115.005 27.8723 114.312 27.467C113.618 27.0617 113.069 26.5177 112.664 25.835C112.258 25.1417 112.056 24.3897 112.056 23.579V20.955C112.056 20.1443 112.253 19.3977 112.648 18.715C113.053 18.0217 113.597 17.4723 114.28 17.067C114.973 16.6616 115.725 16.459 116.536 16.459C117.357 16.459 118.104 16.635 118.776 16.987C119.458 17.3283 119.997 17.803 120.392 18.411C120.786 19.0083 120.984 19.675 120.984 20.411H120.408C120.397 19.771 120.221 19.195 119.88 18.683C119.538 18.171 119.074 17.771 118.488 17.483C117.912 17.195 117.261 17.051 116.536 17.051C115.832 17.051 115.181 17.227 114.584 17.579C113.986 17.931 113.512 18.4056 113.16 19.003C112.808 19.6003 112.632 20.251 112.632 20.955V23.579Z" fill="white"/>
<path d="M124.459 16.699H132.299V17.291H125.051V21.803H131.355V22.395H125.051V27.243H132.299V27.835H124.459V16.699Z" fill="white"/>
<path d="M0.5 43.835V32.699H1.092V43.243H8.852V43.835H0.5Z" fill="white"/>
<path d="M19.3997 32.699V33.291H16.0718V43.243H19.3997V43.835H12.1838V43.243H15.4958V33.291H12.1838V32.699H19.3997Z" fill="white"/>
<path d="M31.5475 41.547C31.2595 42.283 30.7368 42.891 29.9795 43.371C29.2222 43.8403 28.4115 44.075 27.5475 44.075C26.7155 44.075 25.9475 43.867 25.2435 43.451C24.5395 43.035 23.9795 42.4643 23.5635 41.739C23.1582 41.003 22.9555 40.1977 22.9555 39.323V37.083C22.9555 36.2297 23.1582 35.451 23.5635 34.747C23.9795 34.043 24.5342 33.4883 25.2275 33.083C25.9315 32.667 26.7048 32.459 27.5475 32.459C28.2408 32.459 28.8755 32.5763 29.4515 32.811C30.0275 33.035 30.5182 33.3657 30.9235 33.803C31.2542 34.1656 31.5208 34.571 31.7235 35.019C31.9368 35.467 32.0435 35.9203 32.0435 36.379H31.4675C31.4568 35.9843 31.3555 35.595 31.1635 35.211C30.9822 34.827 30.7475 34.4803 30.4595 34.171C29.7448 33.4243 28.7742 33.051 27.5475 33.051C26.8115 33.051 26.1342 33.2323 25.5155 33.595C24.9075 33.947 24.4275 34.4323 24.0755 35.051C23.7235 35.659 23.5475 36.3363 23.5475 37.083V39.323C23.5475 40.1017 23.7235 40.811 24.0755 41.451C24.4382 42.0803 24.9235 42.5763 25.5315 42.939C26.1502 43.3017 26.8222 43.483 27.5475 43.483C28.2835 43.483 28.9555 43.307 29.5635 42.955C30.1822 42.5923 30.6675 42.107 31.0195 41.499C31.3715 40.8803 31.5475 40.2083 31.5475 39.483V38.923H27.5475V38.331H32.1395V43.835H31.5475V41.547Z" fill="white"/>
<path d="M35.1833 43.835V32.699H35.7752V37.963H43.1673V32.699H43.7593V43.835H43.1673V38.555H35.7752V43.835H35.1833Z" fill="white"/>
<path d="M55.811 32.699V33.291H51.603V43.835H51.027V33.291H46.819V32.699H55.811Z" fill="white"/>
<path d="M71.1785 39.579C71.1785 40.283 71.3545 40.9337 71.7065 41.531C72.0692 42.1283 72.5492 42.603 73.1465 42.955C73.7545 43.307 74.4105 43.483 75.1145 43.483C75.8398 43.483 76.4958 43.339 77.0825 43.051C77.6692 42.763 78.1278 42.363 78.4585 41.851C78.7998 41.339 78.9758 40.763 78.9865 40.123H79.5625C79.5625 40.859 79.3652 41.531 78.9705 42.139C78.5865 42.7363 78.0532 43.211 77.3705 43.563C76.6985 43.9043 75.9465 44.075 75.1145 44.075C74.3038 44.075 73.5518 43.8723 72.8585 43.467C72.1652 43.0616 71.6158 42.5177 71.2105 41.835C70.8052 41.1417 70.6025 40.3896 70.6025 39.579V36.955C70.6025 36.1443 70.7998 35.3976 71.1945 34.715C71.5998 34.0216 72.1438 33.4723 72.8265 33.067C73.5198 32.6616 74.2718 32.459 75.0825 32.459C75.9038 32.459 76.6505 32.635 77.3225 32.987C78.0052 33.3283 78.5438 33.803 78.9385 34.411C79.3332 35.0083 79.5305 35.675 79.5305 36.411H78.9545C78.9438 35.771 78.7678 35.195 78.4265 34.683C78.0852 34.171 77.6212 33.771 77.0345 33.483C76.4585 33.195 75.8078 33.051 75.0825 33.051C74.3785 33.051 73.7278 33.227 73.1305 33.579C72.5332 33.931 72.0585 34.4057 71.7065 35.003C71.3545 35.6003 71.1785 36.251 71.1785 36.955V39.579Z" fill="white"/>
<path d="M83.4062 43.835V32.699H83.9982V43.243H91.7582V43.835H83.4062Z" fill="white"/>
<path d="M102.306 32.699V33.291H98.978V43.243H102.306V43.835H95.09V43.243H98.402V33.291H95.09V32.699H102.306Z" fill="white"/>
<path d="M106.694 32.699H114.534V33.291H107.286V37.803H113.59V38.395H107.286V43.243H114.534V43.835H106.694V32.699Z" fill="white"/>
<path d="M118.025 43.835V32.699H118.649L126.425 40.251V32.699H127.017V43.835H126.425V41.083L118.618 33.467V43.835H118.025Z" fill="white"/>
<path d="M138.717 32.699V33.291H134.509V43.835H133.933V33.291H129.725V32.699H138.717Z" fill="white"/>
<path d="M11.5 69.835H127.5L69.5 195.502L11.5 69.835ZM69.5 179.948L117.421 76.3746H21.7561L69.5 179.948Z" fill="url(#paint0_linear_244_38)"/>
<path d="M53.8824 93.699L58.1384 104.051L62.3944 93.699H63.0184L58.4424 104.835H57.8184L53.2424 93.699H53.8824Z" fill="white"/>
<path d="M66.1582 93.699H73.9982V94.291H66.7502V98.803H73.0542V99.395H66.7502V104.243H73.9982V104.835H66.1582V93.699Z" fill="white"/>
<path d="M81.5379 93.699H82.1619L86.7379 104.835H86.0979L84.5939 101.155H79.1059L77.5859 104.835H76.9619L81.5379 93.699ZM79.3459 100.579H84.3539L81.8419 94.467L79.3459 100.579Z" fill="white"/>
<defs>
<linearGradient id="paint0_linear_244_38" x1="69.5" y1="69.835" x2="69.5" y2="195.502" gradientUnits="userSpaceOnUse">
<stop stop-color="#FAD3F1"/>
<stop offset="1" stop-color="#69C3FC"/>
</linearGradient>
</defs>
</svg>
