<svg width="140" height="196" viewBox="0 0 140 196" fill="none" xmlns="http://www.w3.org/2000/svg">
<path d="M13.1955 1.06698C13.8355 1.36565 14.3368 1.80832 14.6995 2.39498C15.0728 2.98165 15.2595 3.63232 15.2595 4.34698C15.2595 5.17898 15.0035 5.92565 14.4915 6.58698C13.9902 7.23765 13.3448 7.66965 12.5555 7.88299L15.3875 11.835H14.6835L11.9475 7.99498L11.4355 8.01098H7.4195V11.835H6.8275V0.698984H11.0675C11.5368 0.698984 11.9368 0.730984 12.2675 0.794984C12.6088 0.848317 12.9182 0.938984 13.1955 1.06698ZM11.5955 7.41898C12.1502 7.41898 12.6622 7.28032 13.1315 7.00298C13.6008 6.72565 13.9742 6.35232 14.2515 5.88299C14.5288 5.41365 14.6675 4.90165 14.6675 4.34698C14.6675 3.72832 14.5022 3.16832 14.1715 2.66698C13.8515 2.16565 13.4035 1.79232 12.8275 1.54698C12.4115 1.37632 11.8248 1.29098 11.0675 1.29098H7.4195V7.41898H11.5955Z" fill="white"/>
<path d="M18.1273 0.698984H18.7192V7.57898C18.7192 8.28298 18.8953 8.93365 19.2472 9.53098C19.5992 10.1283 20.0739 10.603 20.6712 10.955C21.2686 11.307 21.9192 11.483 22.6232 11.483C23.3272 11.483 23.9779 11.307 24.5752 10.955C25.1726 10.603 25.6473 10.1283 25.9993 9.53098C26.3513 8.93365 26.5273 8.28298 26.5273 7.57898V0.698984H27.1193V7.57898C27.1193 8.38965 26.9166 9.14165 26.5112 9.83498C26.1059 10.5177 25.5566 11.0617 24.8633 11.467C24.1806 11.8723 23.4339 12.075 22.6232 12.075C21.8126 12.075 21.0606 11.8723 20.3672 11.467C19.6846 11.0617 19.1406 10.5177 18.7352 9.83498C18.3299 9.14165 18.1273 8.38965 18.1273 7.57898V0.698984Z" fill="white"/>
<path d="M30.115 11.835V0.698984H30.739L38.515 8.25099V0.698984H39.107V11.835H38.515V9.08298L30.707 1.46698V11.835H30.115Z" fill="white"/>
<path d="M41.9588 11.835V0.698984H42.5828L50.3588 8.25099V0.698984H50.9508V11.835H50.3588V9.08298L42.5508 1.46698V11.835H41.9588Z" fill="white"/>
<path d="M61.7705 0.698984V1.29098H58.4425V11.243H61.7705V11.835H54.5545V11.243H57.8665V1.29098H54.5545V0.698984H61.7705Z" fill="white"/>
<path d="M65.6462 11.835V0.698984H66.2702L74.0462 8.25099V0.698984H74.6382V11.835H74.0462V9.08298L66.2383 1.46698V11.835H65.6462Z" fill="white"/>
<path d="M85.762 9.54698C85.474 10.283 84.9513 10.891 84.194 11.371C83.4367 11.8403 82.626 12.075 81.762 12.075C80.93 12.075 80.162 11.867 79.458 11.451C78.754 11.035 78.194 10.4643 77.778 9.73898C77.3727 9.00298 77.17 8.19765 77.17 7.32298V5.08298C77.17 4.22965 77.3727 3.45098 77.778 2.74698C78.194 2.04298 78.7487 1.48832 79.442 1.08298C80.146 0.666984 80.9193 0.458984 81.762 0.458984C82.4553 0.458984 83.09 0.576318 83.666 0.810985C84.242 1.03498 84.7327 1.36565 85.138 1.80298C85.4687 2.16565 85.7353 2.57098 85.938 3.01898C86.1513 3.46698 86.258 3.92032 86.258 4.37898H85.682C85.6713 3.98432 85.57 3.59498 85.378 3.21098C85.1967 2.82698 84.962 2.48032 84.674 2.17098C83.9593 1.42432 82.9887 1.05098 81.762 1.05098C81.026 1.05098 80.3487 1.23232 79.73 1.59498C79.122 1.94698 78.642 2.43232 78.29 3.05098C77.938 3.65898 77.762 4.33632 77.762 5.08298V7.32298C77.762 8.10165 77.938 8.81098 78.29 9.45098C78.6527 10.0803 79.138 10.5763 79.746 10.939C80.3647 11.3017 81.0367 11.483 81.762 11.483C82.498 11.483 83.17 11.307 83.778 10.955C84.3967 10.5923 84.882 10.107 85.234 9.49898C85.586 8.88032 85.762 8.20832 85.762 7.48298V6.92298H81.762V6.33099H86.354V11.835H85.762V9.54698Z" fill="white"/>
<path d="M110.025 0.698984V1.29098H105.817V11.835H105.242V1.29098H101.034V0.698984H110.025Z" fill="white"/>
<path d="M113.085 11.835V0.698984H113.677V5.96299H121.069V0.698984H121.661V11.835H121.069V6.55498H113.677V11.835H113.085Z" fill="white"/>
<path d="M125.377 0.698984H133.217V1.29098H125.969V5.80298H132.273V6.39498H125.969V11.243H133.217V11.835H125.377V0.698984Z" fill="white"/>
<path d="M4.85763 16.459C5.68963 16.459 6.45762 16.667 7.16162 17.083C7.86563 17.4883 8.42029 18.043 8.82563 18.747C9.24162 19.451 9.44963 20.219 9.44963 21.051V23.483C9.44963 24.315 9.24162 25.083 8.82563 25.787C8.42029 26.491 7.86563 27.051 7.16162 27.467C6.45762 27.8723 5.68963 28.075 4.85763 28.075C4.02563 28.075 3.25763 27.8723 2.55363 27.467C1.84963 27.051 1.28963 26.491 0.873625 25.787C0.468292 25.083 0.265625 24.315 0.265625 23.483V21.051C0.265625 20.219 0.468292 19.451 0.873625 18.747C1.28963 18.043 1.84963 17.4883 2.55363 17.083C3.25763 16.667 4.02563 16.459 4.85763 16.459ZM0.857625 23.483C0.857625 24.2083 1.03363 24.8803 1.38563 25.499C1.74829 26.107 2.23363 26.5923 2.84163 26.955C3.46029 27.307 4.13229 27.483 4.85763 27.483C5.58296 27.483 6.24962 27.307 6.85763 26.955C7.47629 26.5923 7.96163 26.107 8.31363 25.499C8.67629 24.8803 8.85763 24.2083 8.85763 23.483V21.051C8.85763 20.3256 8.67629 19.659 8.31363 19.051C7.96163 18.4323 7.47629 17.947 6.85763 17.595C6.24962 17.2323 5.58296 17.051 4.85763 17.051C4.13229 17.051 3.46029 17.2323 2.84163 17.595C2.23363 17.947 1.74829 18.4323 1.38563 19.051C1.03363 19.659 0.857625 20.3256 0.857625 21.051V23.483Z" fill="white"/>
<path d="M13.5974 27.835H13.0054V16.699H17.4854C18.232 16.699 18.92 16.859 19.5494 17.179C20.1894 17.499 20.696 17.9523 21.0694 18.539C21.4427 19.1256 21.6294 19.803 21.6294 20.571C21.6294 21.307 21.4374 21.9843 21.0534 22.603C20.68 23.2217 20.168 23.6963 19.5174 24.027C18.952 24.315 18.2747 24.459 17.4854 24.459H13.5974V27.835ZM13.5974 23.867H17.4854C18.168 23.867 18.728 23.7603 19.1654 23.547C19.7307 23.2803 20.184 22.8803 20.5254 22.347C20.8667 21.8137 21.0374 21.2217 21.0374 20.571C21.0374 19.931 20.8667 19.3443 20.5254 18.811C20.184 18.2777 19.7254 17.8777 19.1494 17.611C18.712 17.3977 18.1574 17.291 17.4854 17.291H13.5974V23.867Z" fill="white"/>
<path d="M24.7051 16.699H32.5451V17.291H25.2971V21.803H31.6011V22.395H25.2971V27.243H32.5451V27.835H24.7051V16.699Z" fill="white"/>
<path d="M36.0369 27.835V16.699H36.6609L44.4369 24.251V16.699H45.0289V27.835H44.4369V25.083L36.6289 17.467V27.835H36.0369Z" fill="white"/>
<path d="M49.4806 22.603V22.011H54.9846V22.603H49.4806Z" fill="white"/>
<path d="M64.3164 22.507C63.4097 22.3257 62.6684 22.1283 62.0924 21.915C61.527 21.691 61.079 21.3923 60.7484 21.019C60.4284 20.635 60.2684 20.1443 60.2684 19.547C60.2684 18.9283 60.4284 18.3843 60.7484 17.915C61.079 17.4457 61.5377 17.083 62.1244 16.827C62.7217 16.571 63.4097 16.443 64.1884 16.443C64.935 16.443 65.6177 16.603 66.2364 16.923C66.8657 17.2323 67.3617 17.6697 67.7244 18.235C68.087 18.8003 68.2684 19.4456 68.2684 20.171H67.6764C67.6764 19.5416 67.5217 18.987 67.2124 18.507C66.903 18.027 66.4817 17.659 65.9484 17.403C65.415 17.1363 64.823 17.003 64.1724 17.003C63.5964 17.003 63.0577 17.0936 62.5564 17.275C62.055 17.4563 61.6444 17.7337 61.3244 18.107C61.015 18.4803 60.8604 18.9497 60.8604 19.515C60.8604 20.027 61.0097 20.4376 61.3084 20.747C61.607 21.0456 61.9964 21.275 62.4764 21.435C62.9564 21.595 63.6284 21.7656 64.4924 21.947C65.367 22.1283 66.0444 22.3043 66.5244 22.475C67.015 22.635 67.4257 22.907 67.7564 23.291C68.0977 23.675 68.2684 24.2137 68.2684 24.907C68.2684 25.6003 68.0817 26.187 67.7084 26.667C67.3457 27.1363 66.8604 27.4883 66.2524 27.723C65.6444 27.9577 64.983 28.075 64.2684 28.075C63.383 28.075 62.6044 27.9097 61.9324 27.579C61.2604 27.2483 60.743 26.7843 60.3804 26.187C60.0284 25.579 59.8524 24.8857 59.8524 24.107H60.4444C60.4444 24.7896 60.5937 25.387 60.8924 25.899C61.2017 26.411 61.6444 26.811 62.2204 27.099C62.7964 27.3763 63.479 27.515 64.2684 27.515C65.2497 27.515 66.0604 27.2803 66.7004 26.811C67.351 26.3417 67.6764 25.7017 67.6764 24.891C67.6764 24.3363 67.5377 23.9097 67.2604 23.611C66.983 23.3123 66.631 23.099 66.2044 22.971C65.7884 22.8323 65.159 22.6777 64.3164 22.507Z" fill="white"/>
<path d="M75.9201 16.459C76.7521 16.459 77.5201 16.667 78.2241 17.083C78.9281 17.4883 79.4828 18.043 79.8881 18.747C80.3041 19.451 80.5121 20.219 80.5121 21.051V23.483C80.5121 24.315 80.3041 25.083 79.8881 25.787C79.4828 26.491 78.9281 27.051 78.2241 27.467C77.5201 27.8723 76.7521 28.075 75.9201 28.075C75.0881 28.075 74.3201 27.8723 73.6161 27.467C72.9121 27.051 72.3521 26.491 71.9361 25.787C71.5308 25.083 71.3281 24.315 71.3281 23.483V21.051C71.3281 20.219 71.5308 19.451 71.9361 18.747C72.3521 18.043 72.9121 17.4883 73.6161 17.083C74.3201 16.667 75.0881 16.459 75.9201 16.459ZM71.9201 23.483C71.9201 24.2083 72.0961 24.8803 72.4481 25.499C72.8108 26.107 73.2961 26.5923 73.9041 26.955C74.5228 27.307 75.1948 27.483 75.9201 27.483C76.6455 27.483 77.3121 27.307 77.9201 26.955C78.5388 26.5923 79.0241 26.107 79.3761 25.499C79.7388 24.8803 79.9201 24.2083 79.9201 23.483V21.051C79.9201 20.3256 79.7388 19.659 79.3761 19.051C79.0241 18.4323 78.5388 17.947 77.9201 17.595C77.3121 17.2323 76.6455 17.051 75.9201 17.051C75.1948 17.051 74.5228 17.2323 73.9041 17.595C73.2961 17.947 72.8108 18.4323 72.4481 19.051C72.0961 19.659 71.9201 20.3256 71.9201 21.051V23.483Z" fill="white"/>
<path d="M83.2679 16.699H83.8599V23.579C83.8599 24.283 84.0359 24.9336 84.3879 25.531C84.7399 26.1283 85.2145 26.603 85.8119 26.955C86.4092 27.307 87.0599 27.483 87.7639 27.483C88.4679 27.483 89.1185 27.307 89.7159 26.955C90.3132 26.603 90.7879 26.1283 91.1399 25.531C91.4919 24.9336 91.6679 24.283 91.6679 23.579V16.699H92.2599V23.579C92.2599 24.3897 92.0572 25.1417 91.6519 25.835C91.2465 26.5177 90.6972 27.0617 90.0039 27.467C89.3212 27.8723 88.5745 28.075 87.7639 28.075C86.9532 28.075 86.2012 27.8723 85.5079 27.467C84.8252 27.0617 84.2812 26.5177 83.8759 25.835C83.4705 25.1417 83.2679 24.3897 83.2679 23.579V16.699Z" fill="white"/>
<path d="M102.024 17.067C102.664 17.3656 103.165 17.8083 103.528 18.395C103.901 18.9817 104.088 19.6323 104.088 20.347C104.088 21.179 103.832 21.9256 103.32 22.587C102.818 23.2376 102.173 23.6697 101.384 23.883L104.216 27.835H103.512L100.776 23.995L100.264 24.011H96.2476V27.835H95.6556V16.699H99.8956C100.365 16.699 100.765 16.731 101.096 16.795C101.437 16.8483 101.746 16.939 102.024 17.067ZM100.424 23.419C100.978 23.419 101.49 23.2803 101.96 23.003C102.429 22.7257 102.802 22.3523 103.08 21.883C103.357 21.4137 103.496 20.9017 103.496 20.347C103.496 19.7283 103.33 19.1683 103 18.667C102.68 18.1657 102.232 17.7923 101.656 17.547C101.24 17.3763 100.653 17.291 99.8956 17.291H96.2476V23.419H100.424Z" fill="white"/>
<path d="M107.627 23.579C107.627 24.283 107.803 24.9336 108.155 25.531C108.518 26.1283 108.998 26.603 109.595 26.955C110.203 27.307 110.859 27.483 111.563 27.483C112.289 27.483 112.945 27.339 113.531 27.051C114.118 26.763 114.577 26.363 114.907 25.851C115.249 25.339 115.425 24.763 115.435 24.123H116.011C116.011 24.859 115.814 25.531 115.419 26.139C115.035 26.7363 114.502 27.211 113.819 27.563C113.147 27.9043 112.395 28.075 111.563 28.075C110.753 28.075 110.001 27.8723 109.307 27.467C108.614 27.0617 108.065 26.5177 107.659 25.835C107.254 25.1417 107.051 24.3897 107.051 23.579V20.955C107.051 20.1443 107.249 19.3977 107.643 18.715C108.049 18.0217 108.593 17.4723 109.275 17.067C109.969 16.6616 110.721 16.459 111.531 16.459C112.353 16.459 113.099 16.635 113.771 16.987C114.454 17.3283 114.993 17.803 115.387 18.411C115.782 19.0083 115.979 19.675 115.979 20.411H115.403C115.393 19.771 115.217 19.195 114.875 18.683C114.534 18.171 114.07 17.771 113.483 17.483C112.907 17.195 112.257 17.051 111.531 17.051C110.827 17.051 110.177 17.227 109.579 17.579C108.982 17.931 108.507 18.4056 108.155 19.003C107.803 19.6003 107.627 20.251 107.627 20.955V23.579Z" fill="white"/>
<path d="M119.455 16.699H127.295V17.291H120.047V21.803H126.351V22.395H120.047V27.243H127.295V27.835H119.455V16.699Z" fill="white"/>
<path d="M1.41762 43.835V32.699H2.00962V43.243H9.76963V43.835H1.41762Z" fill="white"/>
<path d="M20.3174 32.699V33.291H16.9894V43.243H20.3174V43.835H13.1014V43.243H16.4134V33.291H13.1014V32.699H20.3174Z" fill="white"/>
<path d="M32.4651 41.547C32.1771 42.283 31.6545 42.891 30.8971 43.371C30.1398 43.8403 29.3291 44.075 28.4651 44.075C27.6331 44.075 26.8651 43.867 26.1611 43.451C25.4571 43.035 24.8971 42.4643 24.4811 41.739C24.0758 41.003 23.8731 40.1977 23.8731 39.323V37.083C23.8731 36.2297 24.0758 35.451 24.4811 34.747C24.8971 34.043 25.4518 33.4883 26.1451 33.083C26.8491 32.667 27.6225 32.459 28.4651 32.459C29.1585 32.459 29.7931 32.5763 30.3691 32.811C30.9451 33.035 31.4358 33.3657 31.8411 33.803C32.1718 34.1656 32.4385 34.571 32.6411 35.019C32.8545 35.467 32.9611 35.9203 32.9611 36.379H32.3851C32.3745 35.9843 32.2731 35.595 32.0811 35.211C31.8998 34.827 31.6651 34.4803 31.3771 34.171C30.6625 33.4243 29.6918 33.051 28.4651 33.051C27.7291 33.051 27.0518 33.2323 26.4331 33.595C25.8251 33.947 25.3451 34.4323 24.9931 35.051C24.6411 35.659 24.4651 36.3363 24.4651 37.083V39.323C24.4651 40.1017 24.6411 40.811 24.9931 41.451C25.3558 42.0803 25.8411 42.5763 26.4491 42.939C27.0678 43.3017 27.7398 43.483 28.4651 43.483C29.2011 43.483 29.8731 43.307 30.4811 42.955C31.0998 42.5923 31.5851 42.107 31.9371 41.499C32.2891 40.8803 32.4651 40.2083 32.4651 39.483V38.923H28.4651V38.331H33.0571V43.835H32.4651V41.547Z" fill="white"/>
<path d="M36.1009 43.835V32.699H36.6929V37.963H44.0849V32.699H44.6769V43.835H44.0849V38.555H36.6929V43.835H36.1009Z" fill="white"/>
<path d="M56.7286 32.699V33.291H52.5206V43.835H51.9446V33.291H47.7366V32.699H56.7286Z" fill="white"/>
<path d="M72.0961 39.579C72.0961 40.283 72.2721 40.9337 72.6241 41.531C72.9868 42.1283 73.4668 42.603 74.0641 42.955C74.6721 43.307 75.3281 43.483 76.0321 43.483C76.7575 43.483 77.4135 43.339 78.0001 43.051C78.5868 42.763 79.0455 42.363 79.3761 41.851C79.7175 41.339 79.8935 40.763 79.9041 40.123H80.4801C80.4801 40.859 80.2828 41.531 79.8881 42.139C79.5041 42.7363 78.9708 43.211 78.2881 43.563C77.6161 43.9043 76.8641 44.075 76.0321 44.075C75.2215 44.075 74.4695 43.8723 73.7761 43.467C73.0828 43.0616 72.5335 42.5177 72.1281 41.835C71.7228 41.1417 71.5201 40.3896 71.5201 39.579V36.955C71.5201 36.1443 71.7175 35.3976 72.1121 34.715C72.5175 34.0216 73.0615 33.4723 73.7441 33.067C74.4375 32.6616 75.1895 32.459 76.0001 32.459C76.8215 32.459 77.5681 32.635 78.2401 32.987C78.9228 33.3283 79.4615 33.803 79.8561 34.411C80.2508 35.0083 80.4481 35.675 80.4481 36.411H79.8721C79.8615 35.771 79.6855 35.195 79.3441 34.683C79.0028 34.171 78.5388 33.771 77.9521 33.483C77.3761 33.195 76.7255 33.051 76.0001 33.051C75.2961 33.051 74.6455 33.227 74.0481 33.579C73.4508 33.931 72.9761 34.4057 72.6241 35.003C72.2721 35.6003 72.0961 36.251 72.0961 36.955V39.579Z" fill="white"/>
<path d="M84.3239 43.835V32.699H84.9159V43.243H92.6759V43.835H84.3239Z" fill="white"/>
<path d="M103.224 32.699V33.291H99.8956V43.243H103.224V43.835H96.0076V43.243H99.3196V33.291H96.0076V32.699H103.224Z" fill="white"/>
<path d="M107.611 32.699H115.451V33.291H108.203V37.803H114.507V38.395H108.203V43.243H115.451V43.835H107.611V32.699Z" fill="white"/>
<path d="M118.943 43.835V32.699H119.567L127.343 40.251V32.699H127.935V43.835H127.343V41.083L119.535 33.467V43.835H118.943Z" fill="white"/>
<path d="M139.635 32.699V33.291H135.427V43.835H134.851V33.291H130.643V32.699H139.635Z" fill="white"/>
<path d="M12.0002 69.835H128L70.0002 195.502L12.0002 69.835ZM70.0002 179.948L117.921 76.3746H22.2563L70.0002 179.948Z" fill="url(#paint0_linear_226_43)"/>
<path d="M54.3827 93.699L58.6387 104.051L62.8947 93.699H63.5187L58.9427 104.835H58.3187L53.7427 93.699H54.3827Z" fill="white"/>
<path d="M66.6584 93.699H74.4984V94.291H67.2504V98.803H73.5544V99.395H67.2504V104.243H74.4984V104.835H66.6584V93.699Z" fill="white"/>
<path d="M82.0382 93.699H82.6622L87.2382 104.835H86.5982L85.0942 101.155H79.6062L78.0862 104.835H77.4622L82.0382 93.699ZM79.8462 100.579H84.8542L82.3422 94.467L79.8462 100.579Z" fill="white"/>
<defs>
<linearGradient id="paint0_linear_226_43" x1="70.0002" y1="69.835" x2="70.0002" y2="195.502" gradientUnits="userSpaceOnUse">
<stop stop-color="#FAD3F1"/>
<stop offset="1" stop-color="#69C3FC"/>
</linearGradient>
</defs>
</svg>
