<svg width="97" height="96" viewBox="0 0 97 96" fill="none" xmlns="http://www.w3.org/2000/svg">
<path d="M4.44043 0H93.0558L48.7481 96L4.44043 0ZM48.7481 84.1181L85.356 4.99578H12.2753L48.7481 84.1181Z" fill="black"/>
<path d="M55.4047 28.625H54.3869V25.5312C54.3869 21.9305 51.4944 19 47.9404 19C44.3864 19 41.494 21.9305 41.494 25.5312V28.625H40.4761C39.3523 28.625 38.4404 29.5488 38.4404 30.6875V38.9375C38.4404 40.0762 39.3523 41 40.4761 41H55.4047C56.5286 41 57.4404 40.0762 57.4404 38.9375V30.6875C57.4404 29.5488 56.5286 28.625 55.4047 28.625ZM50.994 28.625H44.8869V25.5312C44.8869 23.8254 46.2567 22.4375 47.9404 22.4375C49.6241 22.4375 50.994 23.8254 50.994 25.5312V28.625Z" fill="black"/>
</svg>
