<svg width="194" height="206" viewBox="0 0 194 206" fill="none" xmlns="http://www.w3.org/2000/svg">
<path d="M55.7605 89.4695H138.281L97.0209 178.867L55.7605 89.4695ZM97.0209 167.802L131.111 94.1217H63.0565L97.0209 167.802Z" fill="url(#paint0_linear_226_85)"/>
<path d="M85.8374 106.487L88.865 113.851L91.8927 106.487H92.3366L89.0813 114.409H88.6374L85.3821 106.487H85.8374Z" fill="white"/>
<path d="M94.5702 106.487H100.147V106.908H94.9913V110.118H99.4759V110.539H94.9913V113.988H100.147V114.409H94.5702V106.487Z" fill="white"/>
<path d="M105.511 106.487H105.955L109.21 114.409H108.755L107.685 111.791H103.781L102.7 114.409H102.256L105.511 106.487ZM103.952 111.381H107.514L105.727 107.033L103.952 111.381Z" fill="white"/>
<path d="M97.0208 178.867L14.5 178.867L55.7604 89.4697L97.0208 178.867ZM55.7604 100.534L21.6703 174.215L89.7247 174.215L55.7604 100.534Z" fill="url(#paint1_linear_226_85)"/>
<path d="M60.3079 150.616L56.1079 150.616L56.1079 154.792L55.2439 154.792L55.2439 150.616L51.0439 150.616L51.0439 149.728L55.2439 149.728L55.2439 145.552L56.1079 145.552L56.1079 149.728L60.3079 149.728L60.3079 150.616Z" fill="white"/>
<path d="M179.542 178.867L97.021 178.867L138.281 89.4697L179.542 178.867ZM138.281 100.534L104.191 174.215L172.246 174.215L138.281 100.534Z" fill="url(#paint2_linear_226_85)"/>
<path d="M142.829 150.616L138.629 150.616L138.629 154.792L137.765 154.792L137.765 150.616L133.565 150.616L133.565 149.728L137.765 149.728L137.765 145.552L138.629 145.552L138.629 149.728L142.829 149.728L142.829 150.616Z" fill="white"/>
<path d="M138.281 90.2324L55.7607 90.2324L97.0211 0.834942L138.281 90.2324ZM97.0211 11.8996L62.931 85.5802L130.985 85.5802L97.0211 11.8996Z" fill="url(#paint3_linear_226_85)"/>
<path d="M101.568 61.9813L97.3684 61.9813L97.3684 66.1573L96.5044 66.1573L96.5044 61.9813L92.3044 61.9813L92.3044 61.0933L96.5044 61.0933L96.5044 56.9173L97.3684 56.9173L97.3684 61.0933L101.568 61.0933L101.568 61.9813Z" fill="white"/>
<path d="M10.1348 126.523L5.93477 126.523L5.93476 130.699L5.07077 130.699L5.07077 126.523L0.870765 126.523L0.870765 125.635L5.07077 125.635L5.07077 121.459L5.93477 121.459L5.93477 125.635L10.1348 125.635L10.1348 126.523Z" fill="white"/>
<path d="M193.135 126.523L188.935 126.523L188.935 130.699L188.071 130.699L188.071 126.523L183.871 126.523L183.871 125.635L188.071 125.635L188.071 121.459L188.935 121.459L188.935 125.635L193.135 125.635L193.135 126.523Z" fill="white"/>
<path d="M102.135 201.523L97.9348 201.523L97.9348 205.699L97.0708 205.699L97.0708 201.523L92.8708 201.523L92.8708 200.635L97.0708 200.635L97.0708 196.459L97.9348 196.459L97.9348 200.635L102.135 200.635L102.135 201.523Z" fill="white"/>
<path d="M152.135 39.523L147.935 39.523L147.935 43.699L147.071 43.699L147.071 39.523L142.871 39.523L142.871 38.635L147.071 38.635L147.071 34.459L147.935 34.459L147.935 38.635L152.135 38.635L152.135 39.523Z" fill="white"/>
<path d="M51.1348 39.523L46.9348 39.523L46.9348 43.699L46.0708 43.699L46.0708 39.523L41.8708 39.523L41.8708 38.635L46.0708 38.635L46.0708 34.459L46.9348 34.459L46.9348 38.635L51.1348 38.635L51.1348 39.523Z" fill="white"/>
<defs>
<linearGradient id="paint0_linear_226_85" x1="97.0209" y1="89.4695" x2="97.0209" y2="178.867" gradientUnits="userSpaceOnUse">
<stop stop-color="#FAD3F1"/>
<stop offset="1" stop-color="#69C3FC"/>
</linearGradient>
<linearGradient id="paint1_linear_226_85" x1="55.7604" y1="178.867" x2="55.7604" y2="89.4697" gradientUnits="userSpaceOnUse">
<stop stop-color="#FAD3F1"/>
<stop offset="1" stop-color="#69C3FC"/>
</linearGradient>
<linearGradient id="paint2_linear_226_85" x1="138.281" y1="178.867" x2="138.281" y2="89.4697" gradientUnits="userSpaceOnUse">
<stop stop-color="#FAD3F1"/>
<stop offset="1" stop-color="#69C3FC"/>
</linearGradient>
<linearGradient id="paint3_linear_226_85" x1="97.0211" y1="90.2324" x2="97.0211" y2="0.834942" gradientUnits="userSpaceOnUse">
<stop stop-color="#FAD3F1"/>
<stop offset="1" stop-color="#69C3FC"/>
</linearGradient>
</defs>
</svg>
