<svg width="210" height="232" viewBox="0 0 210 232" fill="none" xmlns="http://www.w3.org/2000/svg">
<path d="M47.763 1.09096L52.019 11.443L56.275 1.09096H56.899L52.323 12.227H51.699L47.123 1.09096H47.763Z" fill="white"/>
<path d="M63.5748 1.09096H64.1988L68.7748 12.227H68.1348L66.6308 8.54696H61.1428L59.6228 12.227H58.9988L63.5748 1.09096ZM61.3828 7.97096H66.3908L63.8788 1.85896L61.3828 7.97096Z" fill="white"/>
<path d="M72.2825 12.227V1.09096H72.8745V11.635H80.6345V12.227H72.2825Z" fill="white"/>
<path d="M91.1823 1.09096V1.68296H87.8543V11.635H91.1823V12.227H83.9663V11.635H87.2783V1.68296H83.9663V1.09096H91.1823Z" fill="white"/>
<path d="M99.298 1.09096C100.109 1.09096 100.855 1.29363 101.538 1.69896C102.231 2.10429 102.781 2.65363 103.186 3.34696C103.591 4.02963 103.794 4.77629 103.794 5.58696V7.73096C103.794 8.54163 103.591 9.29363 103.186 9.98696C102.781 10.6696 102.231 11.2136 101.538 11.619C100.855 12.0243 100.109 12.227 99.298 12.227H95.186V1.09096H99.298ZM103.202 5.58696C103.202 4.88296 103.026 4.23229 102.674 3.63496C102.322 3.03763 101.842 2.56296 101.234 2.21096C100.637 1.85896 99.986 1.68296 99.282 1.68296H95.778V11.635H99.282C99.986 11.635 100.637 11.459 101.234 11.107C101.842 10.755 102.322 10.2803 102.674 9.68296C103.026 9.08563 103.202 8.43496 103.202 7.73096V5.58696Z" fill="white"/>
<path d="M110.95 1.09096H111.574L116.15 12.227H115.51L114.006 8.54696H108.518L106.998 12.227H106.374L110.95 1.09096ZM108.758 7.97096H113.766L111.254 1.85896L108.758 7.97096Z" fill="white"/>
<path d="M127.594 1.09096V1.68296H123.386V12.227H122.81V1.68296H118.602V1.09096H127.594Z" fill="white"/>
<path d="M134.941 0.850961C135.773 0.850961 136.541 1.05896 137.245 1.47496C137.949 1.88029 138.504 2.43496 138.909 3.13896C139.325 3.84296 139.533 4.61096 139.533 5.44296V7.87496C139.533 8.70696 139.325 9.47496 138.909 10.179C138.504 10.883 137.949 11.443 137.245 11.859C136.541 12.2643 135.773 12.467 134.941 12.467C134.109 12.467 133.341 12.2643 132.637 11.859C131.933 11.443 131.373 10.883 130.957 10.179C130.552 9.47496 130.349 8.70696 130.349 7.87496V5.44296C130.349 4.61096 130.552 3.84296 130.957 3.13896C131.373 2.43496 131.933 1.88029 132.637 1.47496C133.341 1.05896 134.109 0.850961 134.941 0.850961ZM130.941 7.87496C130.941 8.60029 131.117 9.27229 131.469 9.89096C131.832 10.499 132.317 10.9843 132.925 11.347C133.544 11.699 134.216 11.875 134.941 11.875C135.667 11.875 136.333 11.699 136.941 11.347C137.56 10.9843 138.045 10.499 138.397 9.89096C138.76 9.27229 138.941 8.60029 138.941 7.87496V5.44296C138.941 4.71763 138.76 4.05096 138.397 3.44296C138.045 2.82429 137.56 2.33896 136.941 1.98696C136.333 1.62429 135.667 1.44296 134.941 1.44296C134.216 1.44296 133.544 1.62429 132.925 1.98696C132.317 2.33896 131.832 2.82429 131.469 3.44296C131.117 4.05096 130.941 4.71763 130.941 5.44296V7.87496Z" fill="white"/>
<path d="M149.201 1.45896C149.841 1.75763 150.342 2.20029 150.705 2.78696C151.078 3.37363 151.265 4.02429 151.265 4.73896C151.265 5.57096 151.009 6.31763 150.497 6.97896C149.996 7.62963 149.35 8.06163 148.561 8.27496L151.393 12.227H150.689L147.953 8.38696L147.441 8.40296H143.425V12.227H142.833V1.09096H147.073C147.542 1.09096 147.942 1.12296 148.273 1.18696C148.614 1.24029 148.924 1.33096 149.201 1.45896ZM147.601 7.81096C148.156 7.81096 148.668 7.67229 149.137 7.39496C149.606 7.11763 149.98 6.74429 150.257 6.27496C150.534 5.80563 150.673 5.29363 150.673 4.73896C150.673 4.12029 150.508 3.56029 150.177 3.05896C149.857 2.55763 149.409 2.18429 148.833 1.93896C148.417 1.76829 147.83 1.68296 147.073 1.68296H143.425V7.81096H147.601Z" fill="white"/>
<path d="M158.869 6.89896C157.962 6.71763 157.221 6.52029 156.645 6.30696C156.079 6.08296 155.631 5.78429 155.301 5.41096C154.981 5.02696 154.821 4.53629 154.821 3.93896C154.821 3.32029 154.981 2.77629 155.301 2.30696C155.631 1.83763 156.09 1.47496 156.677 1.21896C157.274 0.962961 157.962 0.834961 158.741 0.834961C159.487 0.834961 160.17 0.994961 160.789 1.31496C161.418 1.62429 161.914 2.06163 162.277 2.62696C162.639 3.19229 162.821 3.83763 162.821 4.56296H162.229C162.229 3.93363 162.074 3.37896 161.765 2.89896C161.455 2.41896 161.034 2.05096 160.501 1.79496C159.967 1.52829 159.375 1.39496 158.725 1.39496C158.149 1.39496 157.61 1.48563 157.109 1.66696C156.607 1.84829 156.197 2.12563 155.877 2.49896C155.567 2.87229 155.413 3.34163 155.413 3.90696C155.413 4.41896 155.562 4.82963 155.861 5.13896C156.159 5.43763 156.549 5.66696 157.029 5.82696C157.509 5.98696 158.181 6.15763 159.045 6.33896C159.919 6.52029 160.597 6.69629 161.077 6.86696C161.567 7.02696 161.978 7.29896 162.309 7.68296C162.65 8.06696 162.821 8.60563 162.821 9.29896C162.821 9.99229 162.634 10.579 162.261 11.059C161.898 11.5283 161.413 11.8803 160.805 12.115C160.197 12.3496 159.535 12.467 158.821 12.467C157.935 12.467 157.157 12.3016 156.485 11.971C155.813 11.6403 155.295 11.1763 154.933 10.579C154.581 9.97096 154.405 9.27763 154.405 8.49896H154.997C154.997 9.18163 155.146 9.77896 155.445 10.291C155.754 10.803 156.197 11.203 156.773 11.491C157.349 11.7683 158.031 11.907 158.821 11.907C159.802 11.907 160.613 11.6723 161.253 11.203C161.903 10.7336 162.229 10.0936 162.229 9.28296C162.229 8.72829 162.09 8.30163 161.813 8.00296C161.535 7.70429 161.183 7.49096 160.757 7.36296C160.341 7.22429 159.711 7.06963 158.869 6.89896Z" fill="white"/>
<path d="M22.3137 17.091C23.1243 17.091 23.871 17.2936 24.5537 17.699C25.247 18.1043 25.7963 18.6536 26.2017 19.347C26.607 20.0296 26.8097 20.7763 26.8097 21.587V23.731C26.8097 24.5416 26.607 25.2936 26.2017 25.987C25.7963 26.6696 25.247 27.2136 24.5537 27.619C23.871 28.0243 23.1243 28.227 22.3137 28.227H18.2017V17.091H22.3137ZM26.2177 21.587C26.2177 20.883 26.0417 20.2323 25.6897 19.635C25.3377 19.0376 24.8577 18.563 24.2497 18.211C23.6523 17.859 23.0017 17.683 22.2977 17.683H18.7937V27.635H22.2977C23.0017 27.635 23.6523 27.459 24.2497 27.107C24.8577 26.755 25.3377 26.2803 25.6897 25.683C26.0417 25.0856 26.2177 24.435 26.2177 23.731V21.587Z" fill="white"/>
<path d="M30.4294 17.091H38.2694V17.683H31.0214V22.195H37.3254V22.787H31.0214V27.635H38.2694V28.227H30.4294V17.091Z" fill="white"/>
<path d="M43.0092 28.227H42.4172V17.091H46.8972C47.6438 17.091 48.3318 17.251 48.9612 17.571C49.6012 17.891 50.1078 18.3443 50.4812 18.931C50.8545 19.5176 51.0412 20.195 51.0412 20.963C51.0412 21.699 50.8492 22.3763 50.4652 22.995C50.0918 23.6136 49.5798 24.0883 48.9292 24.419C48.3638 24.707 47.6865 24.851 46.8972 24.851H43.0092V28.227ZM43.0092 24.259H46.8972C47.5798 24.259 48.1398 24.1523 48.5772 23.939C49.1425 23.6723 49.5958 23.2723 49.9372 22.739C50.2785 22.2056 50.4492 21.6136 50.4492 20.963C50.4492 20.323 50.2785 19.7363 49.9372 19.203C49.5958 18.6696 49.1372 18.2696 48.5612 18.003C48.1238 17.7896 47.5692 17.683 46.8972 17.683H43.0092V24.259Z" fill="white"/>
<path d="M57.9569 16.851C58.7889 16.851 59.5569 17.059 60.2609 17.475C60.9649 17.8803 61.5196 18.435 61.9249 19.139C62.3409 19.843 62.5489 20.611 62.5489 21.443V23.875C62.5489 24.707 62.3409 25.475 61.9249 26.179C61.5196 26.883 60.9649 27.443 60.2609 27.859C59.5569 28.2643 58.7889 28.467 57.9569 28.467C57.1249 28.467 56.3569 28.2643 55.6529 27.859C54.9489 27.443 54.3889 26.883 53.9729 26.179C53.5676 25.475 53.3649 24.707 53.3649 23.875V21.443C53.3649 20.611 53.5676 19.843 53.9729 19.139C54.3889 18.435 54.9489 17.8803 55.6529 17.475C56.3569 17.059 57.1249 16.851 57.9569 16.851ZM53.9569 23.875C53.9569 24.6003 54.1329 25.2723 54.4849 25.891C54.8476 26.499 55.3329 26.9843 55.9409 27.347C56.5596 27.699 57.2316 27.875 57.9569 27.875C58.6822 27.875 59.3489 27.699 59.9569 27.347C60.5756 26.9843 61.0609 26.499 61.4129 25.891C61.7756 25.2723 61.9569 24.6003 61.9569 23.875V21.443C61.9569 20.7176 61.7756 20.051 61.4129 19.443C61.0609 18.8243 60.5756 18.339 59.9569 17.987C59.3489 17.6243 58.6822 17.443 57.9569 17.443C57.2316 17.443 56.5596 17.6243 55.9409 17.987C55.3329 18.339 54.8476 18.8243 54.4849 19.443C54.1329 20.051 53.9569 20.7176 53.9569 21.443V23.875Z" fill="white"/>
<path d="M70.0407 22.899C69.134 22.7176 68.3927 22.5203 67.8167 22.307C67.2513 22.083 66.8033 21.7843 66.4727 21.411C66.1527 21.027 65.9927 20.5363 65.9927 19.939C65.9927 19.3203 66.1527 18.7763 66.4727 18.307C66.8033 17.8376 67.262 17.475 67.8487 17.219C68.446 16.963 69.134 16.835 69.9127 16.835C70.6593 16.835 71.342 16.995 71.9607 17.315C72.59 17.6243 73.086 18.0616 73.4487 18.627C73.8113 19.1923 73.9927 19.8376 73.9927 20.563H73.4007C73.4007 19.9336 73.246 19.379 72.9367 18.899C72.6273 18.419 72.206 18.051 71.6727 17.795C71.1393 17.5283 70.5473 17.395 69.8967 17.395C69.3207 17.395 68.782 17.4856 68.2807 17.667C67.7793 17.8483 67.3687 18.1256 67.0487 18.499C66.7393 18.8723 66.5847 19.3416 66.5847 19.907C66.5847 20.419 66.734 20.8296 67.0327 21.139C67.3313 21.4376 67.7207 21.667 68.2007 21.827C68.6807 21.987 69.3527 22.1576 70.2167 22.339C71.0913 22.5203 71.7687 22.6963 72.2487 22.867C72.7393 23.027 73.15 23.299 73.4807 23.683C73.822 24.067 73.9927 24.6056 73.9927 25.299C73.9927 25.9923 73.806 26.579 73.4327 27.059C73.07 27.5283 72.5847 27.8803 71.9767 28.115C71.3687 28.3496 70.7073 28.467 69.9927 28.467C69.1073 28.467 68.3287 28.3016 67.6567 27.971C66.9847 27.6403 66.4673 27.1763 66.1047 26.579C65.7527 25.971 65.5767 25.2776 65.5767 24.499H66.1687C66.1687 25.1816 66.318 25.779 66.6167 26.291C66.926 26.803 67.3687 27.203 67.9447 27.491C68.5207 27.7683 69.2033 27.907 69.9927 27.907C70.974 27.907 71.7847 27.6723 72.4247 27.203C73.0753 26.7336 73.4007 26.0936 73.4007 25.283C73.4007 24.7283 73.262 24.3016 72.9847 24.003C72.7073 23.7043 72.3553 23.491 71.9287 23.363C71.5127 23.2243 70.8833 23.0696 70.0407 22.899Z" fill="white"/>
<path d="M85.2604 17.091V17.683H81.9324V27.635H85.2604V28.227H78.0444V27.635H81.3564V17.683H78.0444V17.091H85.2604Z" fill="white"/>
<path d="M97.9842 17.091V17.683H93.7762V28.227H93.2002V17.683H88.9922V17.091H97.9842Z" fill="white"/>
<path d="M116.872 17.091H117.496L122.072 28.227H121.432L119.928 24.547H114.44L112.92 28.227H112.296L116.872 17.091ZM114.68 23.971H119.688L117.176 17.859L114.68 23.971Z" fill="white"/>
<path d="M141.103 22.899C140.196 22.7176 139.455 22.5203 138.879 22.307C138.314 22.083 137.866 21.7843 137.535 21.411C137.215 21.027 137.055 20.5363 137.055 19.939C137.055 19.3203 137.215 18.7763 137.535 18.307C137.866 17.8376 138.324 17.475 138.911 17.219C139.508 16.963 140.196 16.835 140.975 16.835C141.722 16.835 142.404 16.995 143.023 17.315C143.652 17.6243 144.148 18.0616 144.511 18.627C144.874 19.1923 145.055 19.8376 145.055 20.563H144.463C144.463 19.9336 144.308 19.379 143.999 18.899C143.69 18.419 143.268 18.051 142.735 17.795C142.202 17.5283 141.61 17.395 140.959 17.395C140.383 17.395 139.844 17.4856 139.343 17.667C138.842 17.8483 138.431 18.1256 138.111 18.499C137.802 18.8723 137.647 19.3416 137.647 19.907C137.647 20.419 137.796 20.8296 138.095 21.139C138.394 21.4376 138.783 21.667 139.263 21.827C139.743 21.987 140.415 22.1576 141.279 22.339C142.154 22.5203 142.831 22.6963 143.311 22.867C143.802 23.027 144.213 23.299 144.543 23.683C144.884 24.067 145.055 24.6056 145.055 25.299C145.055 25.9923 144.868 26.579 144.495 27.059C144.132 27.5283 143.647 27.8803 143.039 28.115C142.431 28.3496 141.77 28.467 141.055 28.467C140.17 28.467 139.391 28.3016 138.719 27.971C138.047 27.6403 137.53 27.1763 137.167 26.579C136.815 25.971 136.639 25.2776 136.639 24.499H137.231C137.231 25.1816 137.38 25.779 137.679 26.291C137.988 26.803 138.431 27.203 139.007 27.491C139.583 27.7683 140.266 27.907 141.055 27.907C142.036 27.907 142.847 27.6723 143.487 27.203C144.138 26.7336 144.463 26.0936 144.463 25.283C144.463 24.7283 144.325 24.3016 144.047 24.003C143.77 23.7043 143.418 23.491 142.991 23.363C142.575 23.2243 141.946 23.0696 141.103 22.899Z" fill="white"/>
<path d="M157.203 17.091V17.683H152.995V28.227H152.419V17.683H148.211V17.091H157.203Z" fill="white"/>
<path d="M164.247 17.091H164.871L169.447 28.227H168.807L167.303 24.547H161.815L160.295 28.227H159.671L164.247 17.091ZM162.055 23.971H167.063L164.551 17.859L162.055 23.971Z" fill="white"/>
<path d="M172.826 17.091V24.627L180.378 17.091H181.21L176.554 21.731L181.194 28.227H180.49L176.138 22.147L172.826 25.459V28.227H172.234V17.091H172.826Z" fill="white"/>
<path d="M184.398 17.091H192.238V17.683H184.99V22.195H191.294V22.787H184.99V27.635H192.238V28.227H184.398V17.091Z" fill="white"/>
<path d="M47.22 178.134H163.22L105.22 52.4671L47.22 178.134ZM105.22 68.0208L153.141 171.594H57.4761L105.22 68.0208Z" fill="url(#paint0_linear_421_83)"/>
<path d="M81.684 154.531C80.7773 154.349 80.036 154.152 79.46 153.939C78.8946 153.715 78.4466 153.416 78.116 153.043C77.796 152.659 77.636 152.168 77.636 151.571C77.636 150.952 77.796 150.408 78.116 149.939C78.4466 149.469 78.9053 149.107 79.492 148.851C80.0893 148.595 80.7773 148.467 81.556 148.467C82.3026 148.467 82.9853 148.627 83.604 148.947C84.2333 149.256 84.7293 149.693 85.092 150.259C85.4546 150.824 85.636 151.469 85.636 152.195H85.044C85.044 151.565 84.8893 151.011 84.58 150.531C84.2706 150.051 83.8493 149.683 83.316 149.427C82.7826 149.16 82.1906 149.027 81.54 149.027C80.964 149.027 80.4253 149.117 79.924 149.299C79.4226 149.48 79.012 149.757 78.692 150.131C78.3826 150.504 78.228 150.973 78.228 151.539C78.228 152.051 78.3773 152.461 78.676 152.771C78.9746 153.069 79.364 153.299 79.844 153.459C80.324 153.619 80.996 153.789 81.86 153.971C82.7346 154.152 83.412 154.328 83.892 154.499C84.3826 154.659 84.7933 154.931 85.124 155.315C85.4653 155.699 85.636 156.237 85.636 156.931C85.636 157.624 85.4493 158.211 85.076 158.691C84.7133 159.16 84.228 159.512 83.62 159.747C83.012 159.981 82.3506 160.099 81.636 160.099C80.7506 160.099 79.972 159.933 79.3 159.603C78.628 159.272 78.1106 158.808 77.748 158.211C77.396 157.603 77.22 156.909 77.22 156.131H77.812C77.812 156.813 77.9613 157.411 78.26 157.923C78.5693 158.435 79.012 158.835 79.588 159.123C80.164 159.4 80.8466 159.539 81.636 159.539C82.6173 159.539 83.428 159.304 84.068 158.835C84.7186 158.365 85.044 157.725 85.044 156.915C85.044 156.36 84.9053 155.933 84.628 155.635C84.3506 155.336 83.9986 155.123 83.572 154.995C83.156 154.856 82.5266 154.701 81.684 154.531Z" fill="white"/>
<path d="M97.7837 148.723V149.315H93.5757V159.859H92.9997V149.315H88.7917V148.723H97.7837Z" fill="white"/>
<path d="M104.827 148.723H105.451L110.027 159.859H109.387L107.883 156.179H102.395L100.875 159.859H100.251L104.827 148.723ZM102.635 155.603H107.643L105.131 149.491L102.635 155.603Z" fill="white"/>
<path d="M113.407 148.723V156.259L120.959 148.723H121.791L117.135 153.363L121.775 159.859H121.071L116.719 153.779L113.407 157.091V159.859H112.815V148.723H113.407Z" fill="white"/>
<path d="M124.979 148.723H132.819V149.315H125.571V153.827H131.875V154.419H125.571V159.267H132.819V159.859H124.979V148.723Z" fill="white"/>
<path d="M6.08588 213.526V202.39H6.67788V207.654H14.0699V202.39H14.6619V213.526H14.0699V208.246H6.67788V213.526H6.08588Z" fill="white"/>
<path d="M22.2176 202.15C23.0496 202.15 23.8176 202.358 24.5216 202.774C25.2256 203.179 25.7803 203.734 26.1856 204.438C26.6016 205.142 26.8096 205.91 26.8096 206.742V209.174C26.8096 210.006 26.6016 210.774 26.1856 211.478C25.7803 212.182 25.2256 212.742 24.5216 213.158C23.8176 213.563 23.0496 213.766 22.2176 213.766C21.3856 213.766 20.6176 213.563 19.9136 213.158C19.2096 212.742 18.6496 212.182 18.2336 211.478C17.8283 210.774 17.6256 210.006 17.6256 209.174V206.742C17.6256 205.91 17.8283 205.142 18.2336 204.438C18.6496 203.734 19.2096 203.179 19.9136 202.774C20.6176 202.358 21.3856 202.15 22.2176 202.15ZM18.2176 209.174C18.2176 209.899 18.3936 210.571 18.7456 211.19C19.1083 211.798 19.5936 212.283 20.2016 212.646C20.8203 212.998 21.4923 213.174 22.2176 213.174C22.943 213.174 23.6096 212.998 24.2176 212.646C24.8363 212.283 25.3216 211.798 25.6736 211.19C26.0363 210.571 26.2176 209.899 26.2176 209.174V206.742C26.2176 206.016 26.0363 205.35 25.6736 204.742C25.3216 204.123 24.8363 203.638 24.2176 203.286C23.6096 202.923 22.943 202.742 22.2176 202.742C21.4923 202.742 20.8203 202.923 20.2016 203.286C19.5936 203.638 19.1083 204.123 18.7456 204.742C18.3936 205.35 18.2176 206.016 18.2176 206.742V209.174Z" fill="white"/>
<path d="M29.7094 213.526V202.39H30.3334L38.1094 209.942V202.39H38.7014V213.526H38.1094V210.774L30.3014 203.158V213.526H29.7094Z" fill="white"/>
<path d="M42.0651 202.39H49.9051V202.982H42.6571V207.494H48.9611V208.086H42.6571V212.934H49.9051V213.526H42.0651V202.39Z" fill="white"/>
<path d="M57.9889 208.198C57.0822 208.016 56.3409 207.819 55.7649 207.606C55.1995 207.382 54.7515 207.083 54.4209 206.71C54.1009 206.326 53.9409 205.835 53.9409 205.238C53.9409 204.619 54.1009 204.075 54.4209 203.606C54.7515 203.136 55.2102 202.774 55.7969 202.518C56.3942 202.262 57.0822 202.134 57.8609 202.134C58.6075 202.134 59.2902 202.294 59.9089 202.614C60.5382 202.923 61.0342 203.36 61.3969 203.926C61.7595 204.491 61.9409 205.136 61.9409 205.862H61.3489C61.3489 205.232 61.1942 204.678 60.8849 204.198C60.5755 203.718 60.1542 203.35 59.6209 203.094C59.0875 202.827 58.4955 202.694 57.8449 202.694C57.2689 202.694 56.7302 202.784 56.2289 202.966C55.7275 203.147 55.3169 203.424 54.9969 203.798C54.6875 204.171 54.5329 204.64 54.5329 205.206C54.5329 205.718 54.6822 206.128 54.9809 206.438C55.2795 206.736 55.6689 206.966 56.1489 207.126C56.6289 207.286 57.3009 207.456 58.1649 207.638C59.0395 207.819 59.7169 207.995 60.1969 208.166C60.6875 208.326 61.0982 208.598 61.4289 208.982C61.7702 209.366 61.9409 209.904 61.9409 210.598C61.9409 211.291 61.7542 211.878 61.3809 212.358C61.0182 212.827 60.5329 213.179 59.9249 213.414C59.3169 213.648 58.6555 213.766 57.9409 213.766C57.0555 213.766 56.2769 213.6 55.6049 213.27C54.9329 212.939 54.4155 212.475 54.0529 211.878C53.7009 211.27 53.5249 210.576 53.5249 209.798H54.1169C54.1169 210.48 54.2662 211.078 54.5649 211.59C54.8742 212.102 55.3169 212.502 55.8929 212.79C56.4689 213.067 57.1515 213.206 57.9409 213.206C58.9222 213.206 59.7329 212.971 60.3729 212.502C61.0235 212.032 61.3489 211.392 61.3489 210.582C61.3489 210.027 61.2102 209.6 60.9329 209.302C60.6555 209.003 60.3035 208.79 59.8769 208.662C59.4609 208.523 58.8315 208.368 57.9889 208.198Z" fill="white"/>
<path d="M74.0886 202.39V202.982H69.8806V213.526H69.3046V202.982H65.0966V202.39H74.0886Z" fill="white"/>
<path d="M89.0081 202.39L93.2641 212.742L97.5201 202.39H98.1441L93.5681 213.526H92.9441L88.3681 202.39H89.0081Z" fill="white"/>
<path d="M104.82 202.39H105.444L110.02 213.526H109.38L107.876 209.846H102.388L100.868 213.526H100.244L104.82 202.39ZM102.628 209.27H107.636L105.124 203.158L102.628 209.27Z" fill="white"/>
<path d="M113.528 213.526V202.39H114.12V212.934H121.88V213.526H113.528Z" fill="white"/>
<path d="M132.427 202.39V202.982H129.099V212.934H132.427V213.526H125.211V212.934H128.523V202.982H125.211V202.39H132.427Z" fill="white"/>
<path d="M140.543 202.39C141.354 202.39 142.1 202.592 142.783 202.998C143.476 203.403 144.026 203.952 144.431 204.646C144.836 205.328 145.039 206.075 145.039 206.886V209.03C145.039 209.84 144.836 210.592 144.431 211.286C144.026 211.968 143.476 212.512 142.783 212.918C142.1 213.323 141.354 213.526 140.543 213.526H136.431V202.39H140.543ZM144.447 206.886C144.447 206.182 144.271 205.531 143.919 204.934C143.567 204.336 143.087 203.862 142.479 203.51C141.882 203.158 141.231 202.982 140.527 202.982H137.023V212.934H140.527C141.231 212.934 141.882 212.758 142.479 212.406C143.087 212.054 143.567 211.579 143.919 210.982C144.271 210.384 144.447 209.734 144.447 209.03V206.886Z" fill="white"/>
<path d="M152.195 202.39H152.819L157.395 213.526H156.755L155.251 209.846H149.763L148.243 213.526H147.619L152.195 202.39ZM150.003 209.27H155.011L152.499 203.158L150.003 209.27Z" fill="white"/>
<path d="M168.839 202.39V202.982H164.631V213.526H164.055V202.982H159.847V202.39H168.839Z" fill="white"/>
<path d="M176.186 202.15C177.018 202.15 177.786 202.358 178.49 202.774C179.194 203.179 179.749 203.734 180.154 204.438C180.57 205.142 180.778 205.91 180.778 206.742V209.174C180.778 210.006 180.57 210.774 180.154 211.478C179.749 212.182 179.194 212.742 178.49 213.158C177.786 213.563 177.018 213.766 176.186 213.766C175.354 213.766 174.586 213.563 173.882 213.158C173.178 212.742 172.618 212.182 172.202 211.478C171.797 210.774 171.594 210.006 171.594 209.174V206.742C171.594 205.91 171.797 205.142 172.202 204.438C172.618 203.734 173.178 203.179 173.882 202.774C174.586 202.358 175.354 202.15 176.186 202.15ZM172.186 209.174C172.186 209.899 172.362 210.571 172.714 211.19C173.077 211.798 173.562 212.283 174.17 212.646C174.789 212.998 175.461 213.174 176.186 213.174C176.912 213.174 177.578 212.998 178.186 212.646C178.805 212.283 179.29 211.798 179.642 211.19C180.005 210.571 180.186 209.899 180.186 209.174V206.742C180.186 206.016 180.005 205.35 179.642 204.742C179.29 204.123 178.805 203.638 178.186 203.286C177.578 202.923 176.912 202.742 176.186 202.742C175.461 202.742 174.789 202.923 174.17 203.286C173.562 203.638 173.077 204.123 172.714 204.742C172.362 205.35 172.186 206.016 172.186 206.742V209.174Z" fill="white"/>
<path d="M190.446 202.758C191.086 203.056 191.587 203.499 191.95 204.086C192.323 204.672 192.51 205.323 192.51 206.038C192.51 206.87 192.254 207.616 191.742 208.278C191.241 208.928 190.595 209.36 189.806 209.574L192.638 213.526H191.934L189.198 209.686L188.686 209.702H184.67V213.526H184.078V202.39H188.318C188.787 202.39 189.187 202.422 189.518 202.486C189.859 202.539 190.169 202.63 190.446 202.758ZM188.846 209.11C189.401 209.11 189.913 208.971 190.382 208.694C190.851 208.416 191.225 208.043 191.502 207.574C191.779 207.104 191.918 206.592 191.918 206.038C191.918 205.419 191.753 204.859 191.422 204.358C191.102 203.856 190.654 203.483 190.078 203.238C189.662 203.067 189.075 202.982 188.318 202.982H184.67V209.11H188.846Z" fill="white"/>
<path d="M200.114 208.198C199.207 208.016 198.466 207.819 197.89 207.606C197.325 207.382 196.877 207.083 196.546 206.71C196.226 206.326 196.066 205.835 196.066 205.238C196.066 204.619 196.226 204.075 196.546 203.606C196.877 203.136 197.335 202.774 197.922 202.518C198.519 202.262 199.207 202.134 199.986 202.134C200.733 202.134 201.415 202.294 202.034 202.614C202.663 202.923 203.159 203.36 203.522 203.926C203.885 204.491 204.066 205.136 204.066 205.862H203.474C203.474 205.232 203.319 204.678 203.01 204.198C202.701 203.718 202.279 203.35 201.746 203.094C201.213 202.827 200.621 202.694 199.97 202.694C199.394 202.694 198.855 202.784 198.354 202.966C197.853 203.147 197.442 203.424 197.122 203.798C196.813 204.171 196.658 204.64 196.658 205.206C196.658 205.718 196.807 206.128 197.106 206.438C197.405 206.736 197.794 206.966 198.274 207.126C198.754 207.286 199.426 207.456 200.29 207.638C201.165 207.819 201.842 207.995 202.322 208.166C202.813 208.326 203.223 208.598 203.554 208.982C203.895 209.366 204.066 209.904 204.066 210.598C204.066 211.291 203.879 211.878 203.506 212.358C203.143 212.827 202.658 213.179 202.05 213.414C201.442 213.648 200.781 213.766 200.066 213.766C199.181 213.766 198.402 213.6 197.73 213.27C197.058 212.939 196.541 212.475 196.178 211.878C195.826 211.27 195.65 210.576 195.65 209.798H196.242C196.242 210.48 196.391 211.078 196.69 211.59C196.999 212.102 197.442 212.502 198.018 212.79C198.594 213.067 199.277 213.206 200.066 213.206C201.047 213.206 201.858 212.971 202.498 212.502C203.149 212.032 203.474 211.392 203.474 210.582C203.474 210.027 203.335 209.6 203.058 209.302C202.781 209.003 202.429 208.79 202.002 208.662C201.586 208.523 200.957 208.368 200.114 208.198Z" fill="white"/>
<path d="M6.868 218.758C7.508 219.056 8.00933 219.499 8.372 220.086C8.74533 220.672 8.932 221.323 8.932 222.038C8.932 222.87 8.676 223.616 8.164 224.278C7.66267 224.928 7.01733 225.36 6.228 225.574L9.06 229.526H8.356L5.62 225.686L5.108 225.702H1.092V229.526H0.5V218.39H4.74C5.20933 218.39 5.60933 218.422 5.94 218.486C6.28133 218.539 6.59067 218.63 6.868 218.758ZM5.268 225.11C5.82267 225.11 6.33467 224.971 6.804 224.694C7.27333 224.416 7.64667 224.043 7.924 223.574C8.20133 223.104 8.34 222.592 8.34 222.038C8.34 221.419 8.17467 220.859 7.844 220.358C7.524 219.856 7.076 219.483 6.5 219.238C6.084 219.067 5.49733 218.982 4.74 218.982H1.092V225.11H5.268Z" fill="white"/>
<path d="M12.4557 218.39H20.2957V218.982H13.0478V223.494H19.3518V224.086H13.0478V228.934H20.2957V229.526H12.4557V218.39Z" fill="white"/>
<path d="M24.3155 225.27C24.3155 225.974 24.4915 226.624 24.8435 227.222C25.2062 227.819 25.6862 228.294 26.2835 228.646C26.8915 228.998 27.5475 229.174 28.2515 229.174C28.9768 229.174 29.6328 229.03 30.2195 228.742C30.8062 228.454 31.2648 228.054 31.5955 227.542C31.9368 227.03 32.1128 226.454 32.1235 225.814H32.6995C32.6995 226.55 32.5022 227.222 32.1075 227.83C31.7235 228.427 31.1902 228.902 30.5075 229.254C29.8355 229.595 29.0835 229.766 28.2515 229.766C27.4408 229.766 26.6888 229.563 25.9955 229.158C25.3022 228.752 24.7528 228.208 24.3475 227.526C23.9422 226.832 23.7395 226.08 23.7395 225.27V222.646C23.7395 221.835 23.9368 221.088 24.3315 220.406C24.7368 219.712 25.2808 219.163 25.9635 218.758C26.6568 218.352 27.4088 218.15 28.2195 218.15C29.0408 218.15 29.7875 218.326 30.4595 218.678C31.1422 219.019 31.6808 219.494 32.0755 220.102C32.4702 220.699 32.6675 221.366 32.6675 222.102H32.0915C32.0808 221.462 31.9048 220.886 31.5635 220.374C31.2222 219.862 30.7582 219.462 30.1715 219.174C29.5955 218.886 28.9448 218.742 28.2195 218.742C27.5155 218.742 26.8648 218.918 26.2675 219.27C25.6702 219.622 25.1955 220.096 24.8435 220.694C24.4915 221.291 24.3155 221.942 24.3155 222.646V225.27Z" fill="white"/>
<path d="M36.1433 218.39H43.9832V218.982H36.7353V223.494H43.0393V224.086H36.7353V228.934H43.9832V229.526H36.1433V218.39Z" fill="white"/>
<path d="M55.443 218.39V218.982H52.115V228.934H55.443V229.526H48.227V228.934H51.539V218.982H48.227V218.39H55.443Z" fill="white"/>
<path d="M59.3988 218.39L63.6548 228.742L67.9108 218.39H68.5347L63.9588 229.526H63.3348L58.7588 218.39H59.3988Z" fill="white"/>
<path d="M71.6745 218.39H79.5145V218.982H72.2665V223.494H78.5705V224.086H72.2665V228.934H79.5145V229.526H71.6745V218.39Z" fill="white"/>
<path d="M102.818 218.39V218.982H99.49V228.934H102.818V229.526H95.602V228.934H98.914V218.982H95.602V218.39H102.818Z" fill="white"/>
<path d="M106.694 229.526V218.39H107.318L115.094 225.942V218.39H115.686V229.526H115.094V226.774L107.286 219.158V229.526H106.694Z" fill="white"/>
<path d="M119.065 225.27C119.065 225.974 119.242 226.624 119.593 227.222C119.956 227.819 120.436 228.294 121.034 228.646C121.642 228.998 122.297 229.174 123.001 229.174C123.727 229.174 124.383 229.03 124.969 228.742C125.556 228.454 126.015 228.054 126.346 227.542C126.687 227.03 126.863 226.454 126.874 225.814H127.449C127.449 226.55 127.252 227.222 126.857 227.83C126.473 228.427 125.94 228.902 125.257 229.254C124.586 229.595 123.833 229.766 123.001 229.766C122.191 229.766 121.439 229.563 120.745 229.158C120.052 228.752 119.503 228.208 119.097 227.526C118.692 226.832 118.489 226.08 118.489 225.27V222.646C118.489 221.835 118.687 221.088 119.081 220.406C119.487 219.712 120.031 219.163 120.714 218.758C121.407 218.352 122.159 218.15 122.969 218.15C123.791 218.15 124.537 218.326 125.209 218.678C125.892 219.019 126.431 219.494 126.826 220.102C127.22 220.699 127.417 221.366 127.417 222.102H126.841C126.831 221.462 126.655 220.886 126.313 220.374C125.972 219.862 125.508 219.462 124.922 219.174C124.346 218.886 123.695 218.742 122.969 218.742C122.265 218.742 121.615 218.918 121.018 219.27C120.42 219.622 119.945 220.096 119.593 220.694C119.242 221.291 119.065 221.942 119.065 222.646V225.27Z" fill="white"/>
<path d="M130.893 218.39H138.733V218.982H131.485V223.494H137.789V224.086H131.485V228.934H138.733V229.526H130.893V218.39Z" fill="white"/>
<path d="M142.225 229.526V218.39H142.849L150.625 225.942V218.39H151.217V229.526H150.625V226.774L142.817 219.158V229.526H142.225Z" fill="white"/>
<path d="M162.917 218.39V218.982H158.709V229.526H158.133V218.982H153.925V218.39H162.917Z" fill="white"/>
<path d="M173.88 218.39V218.982H170.553V228.934H173.88V229.526H166.665V228.934H169.977V218.982H166.665V218.39H173.88Z" fill="white"/>
<path d="M177.836 218.39L182.092 228.742L186.348 218.39H186.972L182.396 229.526H181.772L177.196 218.39H177.836Z" fill="white"/>
<path d="M190.112 218.39H197.952V218.982H190.704V223.494H197.008V224.086H190.704V228.934H197.952V229.526H190.112V218.39Z" fill="white"/>
<path d="M205.588 224.118C204.361 223.851 203.444 223.51 202.836 223.094C202.238 222.678 201.94 222.059 201.94 221.238C201.94 220.331 202.27 219.6 202.932 219.046C203.604 218.48 204.489 218.176 205.588 218.134V216.47H206.18V218.134C206.884 218.187 207.518 218.374 208.084 218.694C208.66 219.014 209.113 219.451 209.444 220.006C209.774 220.55 209.94 221.168 209.94 221.862H209.348C209.348 221.264 209.209 220.736 208.932 220.278C208.654 219.819 208.276 219.456 207.796 219.19C207.316 218.912 206.777 218.752 206.18 218.71V223.638C207.054 223.819 207.732 223.995 208.212 224.166C208.692 224.326 209.097 224.598 209.428 224.982C209.769 225.366 209.94 225.904 209.94 226.598C209.94 227.259 209.764 227.824 209.412 228.294C209.07 228.752 208.617 229.104 208.052 229.35C207.486 229.584 206.862 229.718 206.18 229.75V231.254H205.588V229.75C204.766 229.707 204.046 229.515 203.428 229.174C202.809 228.832 202.334 228.374 202.004 227.798C201.684 227.211 201.524 226.544 201.524 225.798H202.116C202.105 226.779 202.409 227.574 203.028 228.182C203.646 228.79 204.5 229.126 205.588 229.19V224.118ZM205.588 218.694C204.734 218.736 204.009 218.971 203.412 219.398C202.825 219.814 202.532 220.416 202.532 221.206C202.532 221.675 202.654 222.059 202.9 222.358C203.156 222.646 203.497 222.875 203.924 223.046C204.35 223.206 204.905 223.36 205.588 223.51V218.694ZM206.18 229.19C207.097 229.147 207.854 228.902 208.452 228.454C209.049 227.995 209.348 227.382 209.348 226.614C209.348 226.07 209.214 225.648 208.948 225.35C208.692 225.04 208.356 224.816 207.94 224.678C207.534 224.539 206.948 224.39 206.18 224.23V229.19Z" fill="white"/>
<defs>
<linearGradient id="paint0_linear_421_83" x1="105.22" y1="178.134" x2="105.22" y2="52.4671" gradientUnits="userSpaceOnUse">
<stop stop-color="#FAD3F1"/>
<stop offset="1" stop-color="#69C3FC"/>
</linearGradient>
</defs>
</svg>
