<?xml version="1.0" encoding="UTF-8" standalone="no"?>
<!-- Created with Inkscape (http://www.inkscape.org/) -->

<svg
   viewBox="0 0 380.47849 334.16876"
   version="1.1"
   id="svg1561"
   inkscape:version="1.1.2 (0a00cf5339, 2022-02-04)"
   sodipodi:docname="static-full.svg"
   xmlns:inkscape="http://www.inkscape.org/namespaces/inkscape"
   xmlns:sodipodi="http://sodipodi.sourceforge.net/DTD/sodipodi-0.dtd"
   xmlns="http://www.w3.org/2000/svg"
   xmlns:svg="http://www.w3.org/2000/svg">
  <sodipodi:namedview
     id="namedview1563"
     pagecolor="#ffffff"
     bordercolor="#666666"
     borderopacity="1.0"
     inkscape:pageshadow="2"
     inkscape:pageopacity="0.0"
     inkscape:pagecheckerboard="0"
     inkscape:document-units="mm"
     showgrid="false"
     fit-margin-top="0"
     fit-margin-left="0"
     fit-margin-right="-2"
     fit-margin-bottom="0"
     inkscape:zoom="0.64765011"
     inkscape:cx="849.99599"
     inkscape:cy="704.08387"
     inkscape:window-width="2183"
     inkscape:window-height="1335"
     inkscape:window-x="0"
     inkscape:window-y="0"
     inkscape:window-maximized="1"
     inkscape:current-layer="layer1" />
  <defs
     id="defs1558">
    <filter
       id="filter0_d_0_1"
       x="742.63098"
       y="814.76703"
       width="702.95697"
       height="370.29199"
       filterUnits="userSpaceOnUse"
       color-interpolation-filters="sRGB">
      <feFlood
         flood-opacity="0"
         result="BackgroundImageFix"
         id="feFlood1662" />
      <feColorMatrix
         in="SourceAlpha"
         type="matrix"
         values="0 0 0 0 0 0 0 0 0 0 0 0 0 0 0 0 0 0 127 0"
         result="hardAlpha"
         id="feColorMatrix1664" />
      <feOffset
         id="feOffset1666" />
      <feGaussianBlur
         stdDeviation="4"
         id="feGaussianBlur1668" />
      <feComposite
         in2="hardAlpha"
         operator="out"
         id="feComposite1670" />
      <feColorMatrix
         type="matrix"
         values="0 0 0 0 1 0 0 0 0 1 0 0 0 0 1 0 0 0 1 0"
         id="feColorMatrix1672" />
      <feBlend
         mode="normal"
         in2="BackgroundImageFix"
         result="effect1_dropShadow_0_1"
         id="feBlend1674" />
      <feBlend
         mode="normal"
         in="SourceGraphic"
         in2="effect1_dropShadow_0_1"
         result="shape"
         id="feBlend1676" />
    </filter>
    <filter
       id="filter1_d_0_1"
       x="742.64801"
       y="814.77002"
       width="702.93903"
       height="336.84698"
       filterUnits="userSpaceOnUse"
       color-interpolation-filters="sRGB">
      <feFlood
         flood-opacity="0"
         result="BackgroundImageFix"
         id="feFlood1679" />
      <feColorMatrix
         in="SourceAlpha"
         type="matrix"
         values="0 0 0 0 0 0 0 0 0 0 0 0 0 0 0 0 0 0 127 0"
         result="hardAlpha"
         id="feColorMatrix1681" />
      <feOffset
         id="feOffset1683" />
      <feGaussianBlur
         stdDeviation="4"
         id="feGaussianBlur1685" />
      <feComposite
         in2="hardAlpha"
         operator="out"
         id="feComposite1687" />
      <feColorMatrix
         type="matrix"
         values="0 0 0 0 1 0 0 0 0 1 0 0 0 0 1 0 0 0 1 0"
         id="feColorMatrix1689" />
      <feBlend
         mode="normal"
         in2="BackgroundImageFix"
         result="effect1_dropShadow_0_1"
         id="feBlend1691" />
      <feBlend
         mode="normal"
         in="SourceGraphic"
         in2="effect1_dropShadow_0_1"
         result="shape"
         id="feBlend1693" />
    </filter>
    <filter
       id="filter2_d_0_1"
       x="742.65997"
       y="814.77301"
       width="702.92798"
       height="316.142"
       filterUnits="userSpaceOnUse"
       color-interpolation-filters="sRGB">
      <feFlood
         flood-opacity="0"
         result="BackgroundImageFix"
         id="feFlood1696" />
      <feColorMatrix
         in="SourceAlpha"
         type="matrix"
         values="0 0 0 0 0 0 0 0 0 0 0 0 0 0 0 0 0 0 127 0"
         result="hardAlpha"
         id="feColorMatrix1698" />
      <feOffset
         id="feOffset1700" />
      <feGaussianBlur
         stdDeviation="4"
         id="feGaussianBlur1702" />
      <feComposite
         in2="hardAlpha"
         operator="out"
         id="feComposite1704" />
      <feColorMatrix
         type="matrix"
         values="0 0 0 0 1 0 0 0 0 1 0 0 0 0 1 0 0 0 1 0"
         id="feColorMatrix1706" />
      <feBlend
         mode="normal"
         in2="BackgroundImageFix"
         result="effect1_dropShadow_0_1"
         id="feBlend1708" />
      <feBlend
         mode="normal"
         in="SourceGraphic"
         in2="effect1_dropShadow_0_1"
         result="shape"
         id="feBlend1710" />
    </filter>
    <linearGradient
       id="paint0_linear_0_1"
       x1="754"
       y1="-2.3012101e-06"
       x2="754"
       y2="436.39899"
       gradientUnits="userSpaceOnUse"
       gradientTransform="matrix(0.26458333,0,0,0.26458333,-261.09756,-37.989464)">
      <stop
         stop-color="#C1F0FF"
         id="stop1713" />
      <stop
         offset="1"
         stop-color="#4C7FF2"
         id="stop1715" />
    </linearGradient>
    <linearGradient
       id="paint1_linear_0_1"
       x1="684"
       y1="88.080597"
       x2="684"
       y2="344.81601"
       gradientUnits="userSpaceOnUse"
       gradientTransform="matrix(0.26458333,0,0,0.26458333,-261.09756,-37.989464)">
      <stop
         stop-color="white"
         id="stop1718" />
      <stop
         offset="1"
         stop-color="#B0C9FF"
         id="stop1720" />
    </linearGradient>
    <linearGradient
       id="paint2_linear_0_1"
       x1="719"
       y1="28.0256"
       x2="719"
       y2="574.02502"
       gradientUnits="userSpaceOnUse"
       gradientTransform="matrix(0.26458333,0,0,0.26458333,-261.09756,-37.989464)">
      <stop
         stop-color="#58CAFE"
         id="stop1723" />
      <stop
         offset="1"
         stop-color="#4C7FF2"
         id="stop1725" />
    </linearGradient>
    <linearGradient
       id="paint3_linear_0_1"
       x1="798.25"
       y1="88.080597"
       x2="798.83899"
       y2="681.40002"
       gradientUnits="userSpaceOnUse"
       gradientTransform="matrix(0.26458333,0,0,0.26458333,-261.09756,-37.989464)">
      <stop
         stop-color="#71A9EA"
         id="stop1728" />
      <stop
         offset="1"
         stop-color="#1B003F"
         id="stop1730" />
    </linearGradient>
    <linearGradient
       id="paint4_linear_0_1"
       x1="775.78497"
       y1="117.107"
       x2="776.35602"
       y2="710.427"
       gradientUnits="userSpaceOnUse"
       gradientTransform="matrix(0.26458333,0,0,0.26458333,-261.09756,-37.989464)">
      <stop
         stop-color="#71A9EA"
         id="stop1733" />
      <stop
         offset="0.421875"
         stop-color="#1B003F"
         id="stop1735" />
    </linearGradient>
    <linearGradient
       id="paint5_linear_0_1"
       x1="818.789"
       y1="216"
       x2="819.284"
       y2="1009.5"
       gradientUnits="userSpaceOnUse"
       gradientTransform="matrix(0.26458333,0,0,0.26458333,-261.09756,-37.989464)">
      <stop
         stop-color="#1B003F"
         id="stop1738" />
      <stop
         offset="0.932292"
         stop-color="#414B8B"
         id="stop1740" />
    </linearGradient>
    <linearGradient
       id="paint6_linear_0_1"
       x1="720"
       y1="787.22302"
       x2="720"
       y2="997.89697"
       gradientUnits="userSpaceOnUse"
       gradientTransform="matrix(0.26458333,0,0,0.26458333,-261.09756,-37.989464)">
      <stop
         stop-color="#4A5C9C"
         id="stop1743" />
      <stop
         offset="1"
         stop-color="#1B003F"
         id="stop1745" />
    </linearGradient>
    <linearGradient
       id="paint7_linear_0_1"
       x1="1065.04"
       y1="1001.49"
       x2="798.242"
       y2="1116.51"
       gradientUnits="userSpaceOnUse"
       gradientTransform="matrix(0.26458333,0,0,0.26458333,-261.09756,-37.989464)">
      <stop
         stop-color="#322D6D"
         id="stop1748" />
      <stop
         offset="1"
         stop-color="#343271"
         stop-opacity="0.07"
         id="stop1750" />
    </linearGradient>
    <linearGradient
       id="paint8_linear_0_1"
       x1="746.06"
       y1="808"
       x2="746.06"
       y2="823.12903"
       gradientUnits="userSpaceOnUse"
       gradientTransform="matrix(0.26458333,0,0,0.26458333,-261.09756,-37.989464)">
      <stop
         stop-color="#200A4A"
         id="stop1753" />
      <stop
         offset="1"
         stop-color="#3B4080"
         id="stop1755" />
    </linearGradient>
    <linearGradient
       id="paint9_linear_0_1"
       x1="1094"
       y1="981.97998"
       x2="1404.73"
       y2="1185.12"
       gradientUnits="userSpaceOnUse">
      <stop
         stop-color="#70C1FC"
         id="stop1758" />
      <stop
         offset="1"
         stop-color="white"
         id="stop1760" />
    </linearGradient>
    <linearGradient
       id="paint10_linear_0_1"
       x1="1196.3"
       y1="1017.41"
       x2="1415.0699"
       y2="1157.96"
       gradientUnits="userSpaceOnUse">
      <stop
         stop-color="#FAD3F1"
         id="stop1763" />
      <stop
         offset="1"
         stop-color="white"
         id="stop1765" />
    </linearGradient>
    <linearGradient
       id="paint11_linear_0_1"
       x1="1231.05"
       y1="1028.96"
       x2="1421.4399"
       y2="1137.34"
       gradientUnits="userSpaceOnUse">
      <stop
         stop-color="#70C1FC"
         id="stop1768" />
      <stop
         offset="1"
         stop-color="white"
         id="stop1770" />
    </linearGradient>
    <linearGradient
       id="paint12_linear_0_1"
       x1="1218.02"
       y1="1032.54"
       x2="1404.96"
       y2="1211.04"
       gradientUnits="userSpaceOnUse"
       gradientTransform="matrix(0.26458333,0,0,0.26458333,-261.09756,-37.989464)">
      <stop
         stop-color="#FFDDF7"
         id="stop1773" />
      <stop
         offset="1"
         stop-color="white"
         id="stop1775" />
    </linearGradient>
    <linearGradient
       id="paint13_linear_0_1"
       x1="1116.6801"
       y1="969.23999"
       x2="1411.05"
       y2="1139.3101"
       gradientUnits="userSpaceOnUse"
       gradientTransform="matrix(0.26458333,0,0,0.26458333,-261.09756,-37.989464)">
      <stop
         stop-color="#C1F0FF"
         id="stop1778" />
      <stop
         offset="1"
         stop-color="white"
         id="stop1780" />
    </linearGradient>
  </defs>
  <g
     inkscape:label="Capa 1"
     inkscape:groupmode="layer"
     id="layer1"
     transform="translate(261.09756,37.989464)">
    <path
       d="m -234.63314,-9.7660954 -17.204,26.1929564 V 221.67209 H 119.90244 V -9.6531184 L 116.58986,-16.872671 99.915811,16.426861 70.801061,-30.07067 44.996251,22.518363 33.084711,3.2289146 21.572691,16.426861 -14.423339,-37.989464 -41.287809,7.6958756 -66.431959,-30.07067 -85.885709,3.2289146 -104.81004,-30.07067 l -20.64464,33.2995846 -22.8944,-41.2183786 -7.41098,15.837588 -11.91021,-15.837588 -28.05563,41.2183786 -6.35238,-6.903508 -16.54201,26.1929564 z"
       fill="url(#paint0_linear_0_1)"
       fill-opacity="0.8"
       id="path1622"
       style="fill:url(#paint0_linear_0_1);stroke-width:0.264583" />
    <path
       d="M 92.909651,13.538669 110.11286,39.731626 V 219.15644 l -371.21042,2.38336 V 13.783938 l 2.78228,-7.3519774 16.67457,33.2996654 29.1143,-46.4976114 25.80587,52.5888484 11.91022,-19.289448 11.51361,13.198211 35.99577,-54.416431 26.86447,45.685445 25.144141,-37.7666254 19.45376,33.2994004 18.92432,-33.2994004 20.64464,33.2994004 22.8933401,-41.21822 7.4109799,15.8375346 11.91154,-15.8375346 28.05642,41.21822 6.35,-6.903508 16.54439,26.192956 z"
       fill="url(#paint1_linear_0_1)"
       fill-opacity="0.8"
       id="path1624"
       style="fill:url(#paint1_linear_0_1);stroke-width:0.264583" />
    <path
       d="m -243.89366,-2.3508834 -17.2039,26.1929564 V 204.65436 h 381 V 23.842073 l -12.573,-33.2996644 -16.674039,33.2996644 -29.11475,-46.497636 -25.80481,52.588874 -11.91155,-19.289448 -11.51202,13.19821 -35.99603,-54.416431 -26.86447,45.685446 -25.14415,-37.766651 -19.45375,33.299426 -18.924321,-33.299426 -20.64465,33.299426 -22.89439,-41.218221 -7.41098,15.837589 -11.91022,-15.837589 -28.05562,41.218221 -6.35238,-6.9035084 -16.54202,26.1929564 z"
       fill="url(#paint2_linear_0_1)"
       fill-opacity="0.8"
       id="path1626"
       style="fill:url(#paint2_linear_0_1);stroke-width:0.264583" />
    <path
       d="m -222.86527,13.543696 -38.23229,32.290015 V 205.25285 h 381 V 64.517266 13.543696 L 111.56806,39.741151 82.463901,-6.7646624 56.667021,45.833711 44.760771,26.540823 33.251401,39.741151 -2.7319389,-14.684805 -29.587139,31.008578 l -25.13542,-37.7732404 -19.44688,33.3054854 -18.9177,-33.3054854 -20.637501,33.3054854 -22.88646,-41.225628 -7.40834,15.8404446 -11.90625,-15.8404446 -28.04583,41.225628 -6.35,-6.904831 -16.53646,26.197719 z"
       fill="url(#paint3_linear_0_1)"
       id="path1628"
       style="fill:url(#paint3_linear_0_1);stroke-width:0.264583" />
    <path
       d="m -240.59235,20.801746 -20.50521,17.886892 V 205.25311 h 381 V 72.197326 21.066594 L 110.79019,47.421211 80.754691,0.91539759 54.132311,53.513771 41.845061,34.220884 29.967921,47.421211 -7.1671489,-7.0049044 -34.881459,38.688638 -60.820939,0.91539759 -80.889849,34.220884 -100.41266,0.91539759 -121.7103,34.220884 l -23.61856,-41.2257884 -7.6454,15.84034 -12.28698,-15.84034 -28.94304,41.2257884 -6.5532,-6.904831 -17.06536,26.197718 z"
       fill="url(#paint4_linear_0_1)"
       id="path1630"
       style="fill:url(#paint4_linear_0_1);stroke-width:0.264583" />
    <path
       d="m -221.88155,31.748882 -39.21601,34.333394 V 217.56735 h 381 V 85.947986 73.256446 59.604215 L 91.303631,10.155707 64.842651,66.082276 52.629481,45.568598 40.823771,59.604215 3.9170411,1.7342836 -23.630309,50.319192 -49.412369,10.155707 -69.359839,45.568598 -88.764119,10.155707 -109.93264,45.568598 -133.40806,1.7342836 -141.00689,18.57713 -153.21953,1.7342836 -181.98714,45.568598 -188.50039,38.22694 -205.4623,66.082276 Z"
       fill="url(#paint5_linear_0_1)"
       id="path1632"
       style="fill:url(#paint5_linear_0_1);stroke-width:0.264583" />
    <path
       d="m 119.90244,192.40494 c 0,6.98209 0,103.77435 0,103.77435 h -381 c 0,0 0,-100.71444 0,-103.77435 0,-6.98209 85.28976,-12.64232 190.500001,-12.64232 105.21156,0 190.499999,5.66023 190.499999,12.64232 z"
       fill="url(#paint6_linear_0_1)"
       id="path1634"
       style="fill:url(#paint6_linear_0_1);stroke-width:0.264583" />
    <path
       fill-rule="evenodd"
       clip-rule="evenodd"
       d="m 0.3888311,180.95828 c -0.002,-0.17463 0.16801,-0.31724 0.37967,-0.31883 0.2114,-0.002 0.38444,0.13864 0.38629,0.313 l -0.38285,0.003 z m 0.38311,-0.003 c -0.38311,0.003 -0.38311,0.003 -0.38311,0.003 v 2.6e-4 0.001 0.004 l 2.6e-4,0.0153 5.3e-4,0.0611 c 5.3e-4,0.054 0.001,0.13414 0.002,0.23839 0.001,0.20849 0.002,0.51355 0.002,0.89905 -8e-4,0.77153 -0.007,1.86584 -0.0294,3.15674 -0.045,2.5826 -0.15478,5.94863 -0.41328,9.08897 -0.0648,0.79005 -0.37703,1.60893 -1.33297,2.50428 -0.96732,0.90594 -2.60271,1.89839 -5.33585,3.00329 -0.18997,0.0767 -0.26855,0.26617 -0.17542,0.4228 0.0931,0.1569 0.32253,0.22146 0.5125,0.14473 2.7768,-1.12263 4.5122,-2.159 5.57344,-3.15304 1.07263,-1.00462 1.44675,-1.95686 1.52268,-2.8792 0.25982,-3.15648 0.36962,-6.53494 0.41487,-9.12257 0.0225,-1.29434 0.0288,-2.39156 0.0294,-3.16547 5.3e-4,-0.38682 -5.3e-4,-0.69294 -0.002,-0.90249 -5.3e-4,-0.10478 -0.001,-0.18521 -0.002,-0.23972 l -5.3e-4,-0.0619 v -0.0156 l -2.7e-4,-0.004 v -10e-4 -2.6e-4 c 0,-2.7e-4 0,-2.7e-4 -0.38285,0.003 z m -20.5441001,24.2115 c 0.19632,-0.0654 0.41936,0.013 0.49847,0.17489 0.0791,0.16192 -0.0159,0.34607 -0.21193,0.41116 -3.00699,1.00012 -5.76818,1.83197 -7.77742,2.41379 -1.00463,0.29104 -1.82192,0.51938 -2.38787,0.67548 -0.2831,0.0778 -0.5035,0.13759 -0.65325,0.1778 -0.0749,0.0204 -0.1323,0.0357 -0.17093,0.0458 l -0.0436,0.0116 -0.0114,0.003 -0.001,2.7e-4 -10e-4,5.3e-4 h -8e-4 -2.6e-4 l -37.0078,9.99013 c -0.20109,0.0542 -0.41725,-0.0362 -0.48313,-0.20187 -0.0659,-0.1659 0.0439,-0.34449 0.245,-0.39873 l 37.00992,-9.99067 0.003,-7.9e-4 0.11669,0.3011 c -0.11669,-0.3011 -0.11669,-0.3011 -0.11669,-0.3011 v 0 h 5.3e-4 l 0.003,-7.9e-4 0.0109,-0.003 0.0426,-0.0114 c 0.0378,-0.0101 0.0944,-0.0251 0.16854,-0.045 0.14843,-0.04 0.36697,-0.0995 0.64849,-0.17674 0.56277,-0.15505 1.3761,-0.38259 2.37675,-0.67231 2.00157,-0.57944 4.75139,-1.40811 7.74462,-2.40347 z m 41.99043,-23.79001 c -0.21166,0.001 -0.381,0.14393 -0.381,0.31855 l 0.38365,-0.003 c -0.38365,0.003 -0.38365,0.003 -0.38365,0.003 v 2.7e-4 0.002 0.005 0.022 l 0.003,0.0871 c 0,0.0767 0,0.19023 0,0.33787 0.003,0.29501 0.003,0.72549 0.003,1.26788 0,1.08453 -0.008,2.61514 -0.037,4.39923 -0.0582,3.56949 -0.20108,8.14943 -0.53446,12.20152 -0.0847,1.0377 -0.49741,2.11297 -1.74889,3.28348 -1.26206,1.1811 -3.38667,2.46724 -6.9215,3.89494 -0.1905,0.0767 -0.26988,0.2659 -0.17727,0.4228 0.0926,0.15663 0.32279,0.22146 0.51329,0.14473 3.57981,-1.44516 5.80496,-2.77548 7.16227,-4.04442 1.3679,-1.27979 1.8415,-2.48841 1.93675,-3.65866 0.33602,-4.06877 0.47625,-8.6622 0.53446,-12.23592 0.0291,-1.78726 0.0397,-3.32079 0.0397,-4.40743 0,-0.54319 0,-0.97499 -0.003,-1.2708 0,-0.14816 -0.003,-0.2622 -0.003,-0.33919 v -0.0876 -0.0222 -0.006 -0.001 -2.6e-4 c 0,-2.7e-4 0,-2.7e-4 -0.38364,0.002 l 0.38364,-0.003 c -0.003,-0.17436 -0.17462,-0.31485 -0.38629,-0.31326 z m -25.9802299,32.75012 c -0.0791,-0.16192 -0.30215,-0.24024 -0.49847,-0.17515 -3.86662,1.28455 -7.4181301,2.35347 -10.0033701,3.10118 -1.29249,0.37385 -2.34315,0.66754 -3.07022,0.8673 -0.36354,0.10001 -0.64612,0.17674 -0.83794,0.22834 -0.0958,0.0257 -0.1688,0.0452 -0.21775,0.0582 l -0.0553,0.0148 -0.014,0.004 -0.003,7.9e-4 -8e-4,2.7e-4 v 0 c -2.6e-4,0 -2.6e-4,0 0.11642,0.30083 l -0.11668,-0.30083 -0.002,5.2e-4 -47.78164,12.88336 c -0.20108,0.0556 -0.31088,0.23283 -0.245,0.39952 0.0656,0.16669 0.28178,0.25665 0.48286,0.20108 l 47.77952,-12.88256 h 2.7e-4 l 0.001,-2.6e-4 10e-4,-2.7e-4 0.002,-7.9e-4 0.0146,-0.004 0.0564,-0.0151 c 0.0497,-0.0132 0.12356,-0.0328 0.22014,-0.0587 0.19314,-0.0521 0.4773,-0.12912 0.84269,-0.2294 0.73052,-0.20108 1.78462,-0.49556 3.08134,-0.87048 2.59292,-0.75009 6.1560601,-1.82245 10.0359101,-3.1115 0.19632,-0.0651 0.29131,-0.24923 0.21246,-0.41116 z M 44.186631,182.64333 c 0,-0.17463 0.16933,-0.31724 0.381,-0.31856 0.21166,-0.002 0.38364,0.1389 0.38629,0.31326 l -0.38365,0.003 z m 0.38364,-0.003 c 0.38365,-0.003 0.38365,-0.003 0.38365,-0.002 v 5.3e-4 0.002 0.007 0.0281 0.0537 0.0561 c 0.003,0.0968 0.003,0.23997 0.003,0.42598 0.003,0.37174 0.005,0.91387 0.005,1.59649 -0.003,1.36472 -0.0132,3.29089 -0.0503,5.53614 -0.0714,4.48919 -0.24871,10.25843 -0.6694,15.36806 -0.11906,1.45309 -0.70644,2.9546 -2.40506,4.54819 -1.6854,1.58327 -4.46352,3.24882 -8.94027,5.06254 -0.1905,0.0767 -0.42069,0.0122 -0.5133,-0.14446 -0.0926,-0.15664 -0.0159,-0.34608 0.17463,-0.42307 4.43442,-1.79573 7.112,-3.41736 8.70479,-4.91226 1.58221,-1.48457 2.10608,-2.85274 2.21456,-4.1738 0.41805,-5.0927 0.59532,-10.84871 0.6694,-15.33366 0.037,-2.24208 0.0476,-4.16534 0.0476,-5.52821 0,-0.6813 0,-1.22264 -0.003,-1.59332 -0.003,-0.18547 -0.003,-0.32808 -0.003,-0.42465 v -0.10928 l -0.003,-0.0275 v -0.007 -0.002 -5.3e-4 c 0,0 0,0 0.38364,-0.003 z m -33.14435,40.60428 c 0.19579,-0.0654 0.42069,0.013 0.50006,0.17463 0.0767,0.16192 -0.0159,0.34607 -0.21167,0.41142 -4.8603899,1.61899 -9.3241799,2.96651 -12.5719399,3.90843 -1.62427,0.47096 -2.94481,0.84137 -3.85947,1.09273 -0.45747,0.127 -0.8136,0.22225 -1.05543,0.28839 -0.12091,0.0317 -0.21325,0.0556 -0.27543,0.0741 l -0.0706,0.0185 -0.0177,0.005 h -0.004 -7.9e-4 -10e-4 -2.6e-4 l -59.8667501,16.18721 c -0.20108,0.0556 -0.41751,-0.037 -0.48339,-0.20109 -0.0659,-0.16668 0.0437,-0.34395 0.24474,-0.39952 l 59.8691201,-16.1872 h 0.002 l 0.11695,0.30162 c -0.11695,-0.30162 -0.11695,-0.30162 -0.11695,-0.30162 h 2.7e-4 0.001 l 0.004,-0.003 0.0175,-0.005 0.0696,-0.0185 c 0.0614,-0.0159 0.15293,-0.0397 0.27305,-0.0714 0.2405,-0.0661 0.59478,-0.1614 1.05066,-0.2884 0.91149,-0.25135 2.22832,-0.61912 3.8481,-1.09008 3.24009,-0.93874 7.69064,-2.28203 12.5378099,-3.89652 z m 59.31958,-39.12949 c -0.21166,0 -0.38364,0.14155 -0.38364,0.31591 h 0.38364 c -0.38364,0 -0.38364,0 -0.38364,2.7e-4 v 2.6e-4 0.002 0.008 0.0302 c 0,0.0267 0,0.0667 0,0.11932 0,0.10531 0,0.26141 -0.003,0.46488 0,0.40666 -0.005,1.0025 -0.0132,1.75789 -0.0159,1.51051 -0.0503,3.65892 -0.11642,6.21003 -0.13229,5.10302 -0.39687,11.81497 -0.92604,18.25546 -0.14023,1.68725 -0.80962,3.43376 -2.82839,5.32448 -2.02671,1.90129 -5.42661,3.95657 -11.04371,6.22855 -0.18786,0.077 -0.26723,0.26617 -0.17463,0.42307 0.0926,0.15663 0.3228,0.22146 0.5133,0.14446 5.65943,-2.2897 9.15722,-4.38917 11.28183,-6.37831 2.13254,-1.99998 2.86544,-3.88011 3.01625,-5.69939 0.52917,-6.45424 0.79375,-13.17678 0.92869,-18.28482 0.0661,-2.55402 0.0979,-4.70535 0.11377,-6.21797 0.0106,-0.75618 0.0132,-1.35308 0.0159,-1.76081 0,-0.20399 0,-0.36062 0.003,-0.46619 0,-0.0529 0,-0.0931 0,-0.12012 v -0.0304 -0.008 -0.002 -5.2e-4 c 0,-2.7e-4 0,-2.7e-4 -0.38365,-2.7e-4 h 0.38365 c 0,-0.17436 -0.17198,-0.31591 -0.38365,-0.31591 z m -41.55281,49.62472 c -0.0794,-0.1614 -0.30163,-0.24077 -0.49742,-0.17463 -6.13304,2.03994 -11.76602,3.73857 -15.86441,4.92655 -2.05052,0.59266 -3.7173999,1.06097 -4.8709799,1.37847 -0.57679,0.15875 -1.02394,0.28046 -1.32821,0.36248 -0.15346,0.0397 -0.26988,0.0714 -0.34661,0.0926 l -0.0873,0.0238 -0.0238,0.005 -0.005,0.003 v 0 0 c 0,0 0,0 0.045,0.11906 l -0.045,-0.11906 h -0.003 l -75.7335401,20.45758 c -0.20108,0.0556 -0.31062,0.23283 -0.24474,0.39952 0.0659,0.16669 0.28205,0.25665 0.48313,0.20109 L 6.4014411,240.95771 v 0 h 0.003 v 0 l 0.005,-0.003 0.0212,-0.005 0.0476,-0.0132 0.0423,-0.0106 0.0926,-0.0238 0.0635,-0.0159 c 0.0556,-0.0159 0.11906,-0.0344 0.19314,-0.0529 0.30427,-0.082 0.75407,-0.20373 1.3335,-0.36513 1.15623,-0.3175 2.8257499,-0.78581 4.8815699,-1.38112 4.10633,-1.19063 9.74989,-2.8919 15.89616,-4.93713 0.19579,-0.0635 0.29104,-0.24871 0.21167,-0.4101 z m 69.25998,-46.35923 c 0,-0.17463 0.17198,-0.31618 0.38364,-0.31618 0.20903,0 0.381,0.14155 0.381,0.31618 h -0.381 z m 0.38364,0 c 0.381,0 0.381,0 0.381,0 v 5.2e-4 0.002 0.008 0.0333 0.0487 0.0836 c 0,0.11668 0,0.28972 -0.003,0.51541 -0.003,0.45164 -0.005,1.11363 -0.0159,1.95659 -0.0212,1.68593 -0.0609,4.09575 -0.14023,6.99162 -0.16139,5.79146 -0.48154,13.5292 -1.11918,21.31139 -0.17992,2.18043 -1.05834,4.43415 -3.6195,6.83498 -2.54794,2.38893 -6.75746,4.91834 -13.57842,7.67795 -0.18785,0.0767 -0.41804,0.0106 -0.51065,-0.14552 -0.0926,-0.15611 -0.0159,-0.34661 0.17463,-0.42334 6.77598,-2.74108 10.88496,-5.22552 13.34029,-7.5266 2.44475,-2.29156 3.25967,-4.41193 3.429,-6.46033 0.63765,-7.76923 0.95779,-15.49691 1.11654,-21.28282 0.082,-2.89295 0.12171,-5.29987 0.14023,-6.98341 0.0106,-0.84191 0.0159,-1.50283 0.0185,-1.95316 0,-0.22542 0.003,-0.39793 0.003,-0.51408 0,-0.0582 0,-0.10213 0,-0.1315 v -0.0333 -0.008 -0.002 -5.2e-4 c 0,0 0,0 0.38364,0 z m -50.67829,57.84215 c 0.19579,-0.0661 0.42069,0.0132 0.50007,0.17462 0.0794,0.1614 -0.0159,0.3466 -0.21167,0.41275 -7.41098,2.46592 -14.21606,4.51644 -19.16642,5.95313 -2.4765,0.71702 -4.48998,1.28058 -5.88433,1.66422 -0.6985,0.19315 -1.2409,0.34132 -1.60867,0.43921 -0.18521,0.0503 -0.32544,0.0873 -0.42069,0.11377 -0.0476,0.0132 -0.082,0.0212 -0.10583,0.0291 l -0.0291,0.005 -0.005,0.003 h -0.003 v 0 l -91.31856,24.67504 c -0.20108,0.0529 -0.41751,-0.037 -0.48339,-0.20373 -0.0659,-0.16404 0.0439,-0.34396 0.245,-0.39688 l 91.32147,-24.67504 h 0.003 l 0.11641,0.29898 c -0.11641,-0.29898 -0.11641,-0.29898 -0.11641,-0.29898 v 0 0 l 0.008,-0.003 0.0265,-0.008 c 0.0238,-0.005 0.0582,-0.0159 0.10584,-0.0265 0.0952,-0.0265 0.23547,-0.0635 0.41804,-0.11377 0.36777,-0.0979 0.90752,-0.24606 1.60337,-0.43656 1.39171,-0.38365 3.3999,-0.94721 5.87375,-1.66159 4.94242,-1.43404 11.73692,-3.48191 19.13202,-5.94518 z m 24.42898,17.80645 c 0.19844,-0.0661 0.42069,0.0132 0.50006,0.17463 0.0794,0.16139 -0.0159,0.3466 -0.21166,0.4101 -9.144,3.04271 -17.53923,5.57477 -23.65111,7.34484 -3.05593,0.88635 -5.53773,1.5822 -7.26016,2.05581 -0.8599,0.23548 -1.52929,0.41804 -1.98438,0.53975 -0.0926,0.0265 -0.17991,0.0476 -0.254,0.0688 l -0.10848,0.0291 c -0.0609,0.0159 -0.11112,0.0291 -0.15346,0.0423 -0.0609,0.0159 -0.10318,0.0265 -0.13229,0.0344 l -0.0344,0.008 -0.008,0.003 h -0.003 v 0 0.003 l -79.63217,21.50798 c -0.20082,0.0556 -0.41725,-0.037 -0.48313,-0.20108 -0.0659,-0.16669 0.0439,-0.34396 0.24474,-0.39952 l 79.63244,-21.51063 h 0.003 l 0.11642,0.30163 c -0.11642,-0.30163 -0.11642,-0.30163 -0.11642,-0.30163 h 0.003 v 0 l 0.008,-0.003 0.0344,-0.008 c 0.0291,-0.008 0.0741,-0.0212 0.12965,-0.037 l 0.0847,-0.0212 c 0.0635,-0.0185 0.14287,-0.037 0.23018,-0.0609 l 0.0926,-0.0265 0.10848,-0.0291 c 0.45508,-0.1217 1.12183,-0.30162 1.97908,-0.53975 1.71979,-0.4736 4.19894,-1.16681 7.24958,-2.05052 6.10394,-1.77006 14.48859,-4.29683 23.61671,-7.33425 z"
       fill="url(#paint7_linear_0_1)"
       fill-opacity="0.5"
       id="path1636"
       style="fill:url(#paint7_linear_0_1);stroke-width:0.264583" />
    <path
       d="M 119.39179,287.34485 -63.191869,180.21797 119.39179,296.08933 Z"
       fill="#1f0847"
       id="path1638"
       style="stroke-width:0.264583" />
    <path
       d="m -66.128479,179.79675 2.35241,-4.00288 2.49925,4.00288 z"
       fill="url(#paint8_linear_0_1)"
       id="path1640"
       style="fill:url(#paint8_linear_0_1);stroke-width:0.264583" />
    <g
       filter="url(#filter0_d_0_1)"
       id="g1644"
       transform="matrix(0.26458333,0,0,0.26458333,-261.09756,-37.989464)">
      <path
         fill-rule="evenodd"
         clip-rule="evenodd"
         d="m 750.631,823.466 0.458,-0.699 686.221,261.963 c 0.24,0.09 0.35,0.33 0.23,0.53 -0.11,0.2 -0.4,0.29 -0.64,0.19 L 757.691,826.165 1437.36,1176.32 c 0.23,0.12 0.3,0.37 0.15,0.55 -0.14,0.19 -0.43,0.25 -0.66,0.13 z"
         fill="url(#paint9_linear_0_1)"
         id="path1642"
         style="fill:url(#paint9_linear_0_1)" />
    </g>
    <g
       filter="url(#filter1_d_0_1)"
       id="g1648"
       transform="matrix(0.26458333,0,0,0.26458333,-261.09756,-37.989464)">
      <path
         fill-rule="evenodd"
         clip-rule="evenodd"
         d="m 750.648,823.475 0.448,-0.705 686.214,273.11 c 0.24,0.1 0.35,0.34 0.23,0.53 -0.12,0.2 -0.4,0.28 -0.64,0.19 L 764.023,828.799 1437.34,1142.87 c 0.23,0.11 0.32,0.35 0.19,0.55 -0.14,0.19 -0.43,0.25 -0.66,0.15 z"
         fill="url(#paint10_linear_0_1)"
         id="path1646"
         style="fill:url(#paint10_linear_0_1)" />
    </g>
    <g
       filter="url(#filter2_d_0_1)"
       id="g1652"
       transform="matrix(0.26458333,0,0,0.26458333,-261.09756,-37.989464)">
      <path
         fill-rule="evenodd"
         clip-rule="evenodd"
         d="m 750.66,823.481 0.442,-0.708 0.009,0.004 686.209,284.253 c 0.24,0.1 0.34,0.34 0.22,0.54 -0.12,0.19 -0.41,0.27 -0.65,0.17 L 791.521,840.407 1437.33,1122.17 c 0.24,0.1 0.33,0.34 0.2,0.53 -0.12,0.2 -0.42,0.27 -0.65,0.17 L 750.669,823.485 Z"
         fill="url(#paint11_linear_0_1)"
         id="path1650"
         style="fill:url(#paint11_linear_0_1)" />
    </g>
    <path
       fill-rule="evenodd"
       clip-rule="evenodd"
       d="m -63.286329,179.84359 0.37836,-0.5461 182.582869,67.52113 c 0.19314,0.0714 0.28046,0.25929 0.19314,0.41804 -0.0847,0.15875 -0.3122,0.23019 -0.50535,0.15875 L -59.672119,181.18688 119.74104,286.35002 c 0.17198,0.10054 0.21167,0.29898 0.09,0.44185 -0.12171,0.14023 -0.36248,0.17463 -0.53446,0.0741 z"
       fill="url(#paint12_linear_0_1)"
       id="path1654"
       style="fill:url(#paint12_linear_0_1);stroke-width:0.264583" />
    <path
       fill-rule="evenodd"
       clip-rule="evenodd"
       d="m -36.762109,187.80225 c 0,-0.17462 -0.17145,-0.31591 -0.38312,-0.31591 -0.21167,0 -0.38312,0.14129 -0.38312,0.31591 v 3.37079 c 0,0.17463 0.17145,0.31592 0.38312,0.31592 0.21167,0 0.38312,-0.14129 0.38312,-0.31592 z m 2.04284,0.52679 c 0.21141,0 0.38312,0.14129 0.38312,0.31591 v 3.5814 c 0,0.17463 -0.17171,0.31618 -0.38312,0.31618 -0.21166,0 -0.38311,-0.14155 -0.38311,-0.31618 v -3.5814 c 0,-0.17462 0.17145,-0.31591 0.38311,-0.31591 z m 3.19194,1.0533 c 0,-0.17462 -0.17145,-0.31617 -0.38286,-0.31617 -0.21166,0 -0.38311,0.14155 -0.38311,0.31617 v 3.89732 c 0,0.17462 0.17145,0.31617 0.38311,0.31617 0.21141,0 0.38286,-0.14155 0.38286,-0.31617 z m 2.93661,1.05331 c 0.21166,0 0.38311,0.14155 0.38311,0.31591 v 4.10819 c 0,0.17462 -0.17145,0.31618 -0.38311,0.31618 -0.2114,0 -0.38285,-0.14156 -0.38285,-0.31618 v -4.10819 c 0,-0.17436 0.17145,-0.31591 0.38285,-0.31591 z m 4.46907,1.58009 c 0,-0.17462 -0.17171,-0.31591 -0.38311,-0.31591 -0.21167,0 -0.38312,0.14129 -0.38312,0.31591 v 4.63471 c 0,0.17462 0.17145,0.31618 0.38312,0.31618 0.2114,0 0.38311,-0.14156 0.38311,-0.31618 z m 4.59635,1.26392 c 0.21166,0 0.38311,0.14155 0.38311,0.31617 v 5.3721 c 0,0.17463 -0.17145,0.31592 -0.38311,0.31592 -0.21141,0 -0.38312,-0.14129 -0.38312,-0.31592 v -5.3721 c 0,-0.17462 0.17171,-0.31617 0.38312,-0.31617 z m 6.51166,1.89627 c 0,-0.17463 -0.17145,-0.31618 -0.38286,-0.31618 -0.21166,0 -0.38311,0.14155 -0.38311,0.31618 v 6.53071 c 0,0.17462 0.17145,0.31617 0.38311,0.31617 0.21141,0 0.38286,-0.14155 0.38286,-0.31617 z m 8.0441201,2.52809 c 0.21141,0 0.38286,0.14129 0.38286,0.31591 v 7.58428 c 0,0.17436 -0.17145,0.31592 -0.38286,0.31592 -0.21166,0 -0.38311,-0.14156 -0.38311,-0.31592 v -7.58428 c 0,-0.17462 0.17145,-0.31591 0.38311,-0.31591 z m 11.74671,4.10792 c 0,-0.17436 -0.17198,-0.31591 -0.38365,-0.31591 -0.21166,0 -0.38364,0.14155 -0.38364,0.31591 v 8.84846 c 0,0.17436 0.17198,0.31591 0.38364,0.31591 0.21167,0 0.38365,-0.14155 0.38365,-0.31591 z m 14.3007299,4.31879 c 0.21167,0 0.38364,0.14156 0.38364,0.31618 v 10.8495 c 0,0.17463 -0.17197,0.31618 -0.38364,0.31618 -0.21167,0 -0.38365,-0.14155 -0.38365,-0.31618 v -10.8495 c 0,-0.17462 0.17198,-0.31618 0.38365,-0.31618 z m 19.79083,6.32037 c 0,-0.17462 -0.17198,-0.31618 -0.38364,-0.31618 -0.21167,0 -0.38365,0.14156 -0.38365,0.31618 v 13.58847 c 0,0.17436 0.17198,0.31591 0.38365,0.31591 0.21166,0 0.38364,-0.14155 0.38364,-0.31591 z m 25.40794,7.90019 c 0.21167,0 0.38365,0.14156 0.38365,0.31592 v 17.16881 c 0,0.17462 -0.17198,0.3175 -0.38365,0.3175 -0.21167,0 -0.38365,-0.14288 -0.38365,-0.3175 v -17.16881 c 0,-0.17436 0.17198,-0.31592 0.38365,-0.31592 z m 34.345559,10.95481 c 0.21167,0 0.38365,0.14288 0.38365,0.3175 v 21.69848 c 0,0.17463 -0.17198,0.31486 -0.38365,0.31486 -0.21166,0 -0.38364,-0.14023 -0.38364,-0.31486 V 231.6236 c 0,-0.17462 0.17198,-0.3175 0.38364,-0.3175 z"
       fill="#ffffff"
       id="path1656"
       style="stroke-width:0.264583" />
    <path
       fill-rule="evenodd"
       clip-rule="evenodd"
       d="m -42.746989,185.70596 0.77232,2.76119 0.88503,-2.19022 1.01335,3.13505 0.89959,-2.54477 1.02023,3.47187 0.88874,-2.56567 0.24791,0.009 0.81465,3.45599 1.52109,-2.92814 1.14803,3.99865 1.66079,-3.26734 1.29222,4.58364 2.16006,-3.14484 1.65471,4.83103 2.29817,-3.68671 1.92669,5.61658 3.06361,-3.89626 2.17435,6.22565 3.95552,-4.63206 2.82152,7.72372 5.6091601,-4.83791 3.96637,9.07785 7.52899,-5.15911 4.9847499,10.54206 9.56998,-5.78988 7.02204,13.16858 12.51214,-7.37261 9.57792,17.38259 16.08402,-9.05721 12.77144,22.01915 21.574119,-11.05694 18.50761,29.47723 -0.2249,0.0979 -18.38325,-29.27615 -21.582059,11.06223 -12.7635,-22.01095 -16.09196,9.0596 -9.57262,-17.37731 -12.5148,7.37447 -7.02204,-13.16567 -9.58321,5.79702 -4.9741599,-10.52539 -7.53745,5.16414 -3.94997,-9.04002 -5.6266301,4.85299 -2.79664,-7.65545 -3.96055,4.63761 -2.16667,-6.20395 -3.0652,3.89864 -1.90394,-5.54937 -2.29817,3.68697 -1.66476,-4.86013 -2.18123,3.17552 -1.26153,-4.47516 -1.65867,3.26337 -1.15041,-4.00685 -1.54332,2.97074 -0.87127,-3.69675 -1.0078,2.91041 -1.02288,-3.48033 -0.88767,2.51143 -1.02976,-3.18506 -0.9025,2.23362 -0.75961,-2.71622 -0.66437,1.82695 -0.24474,-0.0606 z"
       fill="url(#paint13_linear_0_1)"
       id="path1658"
       style="fill:url(#paint13_linear_0_1);stroke-width:0.264583" />
    <path
       d="m -62.553169,179.58588 c 0,0.23283 -0.22886,0.42148 -0.51091,0.42148 -0.28204,0 -0.51064,-0.18865 -0.51064,-0.42148 0,-0.23257 0.2286,-0.42122 0.51064,-0.42122 0.28205,0 0.51091,0.18865 0.51091,0.42122 z"
       fill="#ffffff"
       id="path1660"
       style="stroke-width:0.264583" />
  </g>
</svg>
